<?xml version="1.0" standalone="no"?>
<!DOCTYPE svg PUBLIC "-//W3C//DTD SVG 1.1//EN" "http://www.w3.org/Graphics/SVG/1.1/DTD/svg11.dtd" >
<svg xmlns="http://www.w3.org/2000/svg" xmlns:xlink="http://www.w3.org/1999/xlink" version="1.1">
<metadata></metadata>
<defs>
<font id="axiformaregular" horiz-adv-x="1060" >
<font-face units-per-em="2048" ascent="1638" descent="-410" />
<missing-glyph horiz-adv-x="505" />
<glyph horiz-adv-x="0" />
<glyph horiz-adv-x="682" />
<glyph unicode="&#xd;" horiz-adv-x="266" />
<glyph unicode=" "  horiz-adv-x="505" />
<glyph unicode="&#x09;" horiz-adv-x="505" />
<glyph unicode="&#xa0;" horiz-adv-x="505" />
<glyph unicode="!" horiz-adv-x="604" d="M172 109q0 54 38 90.5t95 36.5q54 0 91.5 -36.5t37.5 -90.5q0 -58 -37 -96t-92 -38q-57 0 -95 38t-38 96zM195 1518h217l-13 -1149h-196z" />
<glyph unicode="&#x22;" horiz-adv-x="958" d="M94 913l168 600h238l-224 -600h-182zM510 913l168 600h237l-223 -600h-182z" />
<glyph unicode="#" horiz-adv-x="1441" d="M72 432l28 162h236l67 350h-237l33 162h235l80 407h180l-78 -407h355l78 407h180l-78 -407h221l-33 -162h-219l-65 -350h219l-31 -162h-219l-82 -432h-182l82 432h-355l-81 -432h-185l84 432h-233zM518 594h354l68 350h-354z" />
<glyph unicode="$" horiz-adv-x="1157" d="M63 289l154 125q59 -122 152.5 -182t203.5 -60q128 0 201.5 66t73.5 159q0 72 -41.5 122t-114.5 91q-26 14 -146 70.5t-177 93.5q-226 143 -226 359q0 161 108 273.5t288 131.5v188h151v-192q218 -39 348 -217l-139 -131q-123 162 -301 162q-101 0 -168.5 -55.5 t-67.5 -147.5q0 -118 132 -199q38 -23 175 -89t191 -99q211 -129 211 -348q0 -169 -110.5 -284t-286.5 -142v-213h-152v206q-147 13 -270 92t-189 220z" />
<glyph unicode="%" horiz-adv-x="1802" d="M70 1167q0 154 113.5 263.5t271.5 109.5t270.5 -109.5t112.5 -263.5t-112.5 -263t-270.5 -109t-271.5 109t-113.5 263zM231 1167q0 -95 64.5 -159t159.5 -64q94 0 158.5 64t64.5 159t-64.5 158.5t-158.5 63.5q-95 0 -159.5 -63.5t-64.5 -158.5zM236 0l1114 1513h206 l-1116 -1513h-204zM963 344q0 154 113 264.5t272 110.5q160 0 273.5 -110.5t113.5 -264.5q0 -152 -113.5 -260.5t-273.5 -108.5t-272.5 108.5t-112.5 260.5zM1124 344q0 -93 65.5 -156t158.5 -63q95 0 160 62.5t65 156.5q0 97 -65 162t-160 65q-94 0 -159 -65.5t-65 -161.5z " />
<glyph unicode="&#x26;" horiz-adv-x="1429" d="M84 424q0 83 21.5 152.5t62 122.5t87 92t107.5 75q-90 129 -90 283q0 159 117.5 273t280.5 114q144 0 247 -90t103 -225q0 -45 -11.5 -84.5t-29 -70t-48.5 -60.5t-58 -50.5t-71 -45t-74.5 -39.5t-79.5 -38q-20 -9 -30 -14q40 -38 117 -104l316 -277q71 84 147 213 l131 -102q-66 -116 -151 -221l245 -215l-108 -127l-248 219q-228 -225 -487 -225q-209 0 -352.5 129.5t-143.5 314.5zM279 434q0 -123 91 -205t230 -82q171 0 342 168l-356 316q-92 83 -117 108q-91 -58 -140.5 -130t-49.5 -175zM444 1151q0 -117 64 -209q158 73 201 98 q119 71 131 157q2 12 2 24q0 72 -50 121t-126 49q-93 0 -157.5 -68.5t-64.5 -171.5z" />
<glyph unicode="'" horiz-adv-x="536" d="M90 913l168 600h238l-224 -600h-182z" />
<glyph unicode="(" horiz-adv-x="800" d="M84 602q0 346 160.5 621t457.5 434l82 -148q-240 -160 -363.5 -389.5t-123.5 -517.5q0 -287 123.5 -516t363.5 -389l-84 -148q-295 158 -455.5 433t-160.5 620z" />
<glyph unicode=")" horiz-adv-x="800" d="M16 -303q240 160 364 389.5t124 515.5q0 288 -124 517.5t-364 389.5l82 148q297 -160 458 -434.5t161 -620.5q0 -345 -161 -620t-458 -433z" />
<glyph unicode="*" horiz-adv-x="933" d="M78 1239l67 137l252 -127l-6 299h152l-4 -299l254 127l61 -137l-270 -123l192 -225l-119 -96l-188 241l-193 -241l-118 96l194 225z" />
<glyph unicode="+" horiz-adv-x="1097" d="M70 623v184h389v387h184v-387h385v-184h-385v-387l-184 -3v390h-389z" />
<glyph unicode="," horiz-adv-x="495" d="M68 -180q50 37 72 54.5t50.5 46.5t42.5 56h-8q-46 0 -80 35t-34 82q0 52 39.5 89.5t93.5 37.5q62 0 101.5 -42.5t39.5 -108.5q0 -178 -254 -338z" />
<glyph unicode="-" d="M135 475v184h791v-184h-791z" />
<glyph unicode="." horiz-adv-x="475" d="M106 100q0 54 38 90.5t94 36.5t93.5 -36.5t37.5 -90.5q0 -58 -37.5 -95.5t-93.5 -37.5t-94 37.5t-38 95.5z" />
<glyph unicode="/" horiz-adv-x="1243" d="M41 -252l967 1942h192l-967 -1942h-192z" />
<glyph unicode="0" horiz-adv-x="1390" d="M104 758q0 94 14 185t42 180t76 163.5t111.5 131.5t153 89.5t195.5 32.5q127 0 229 -46.5t168 -123t110.5 -180t63.5 -211t19 -221.5t-19 -222t-63.5 -211t-110.5 -179.5t-168 -123.5t-229 -47q-106 0 -195.5 32.5t-153 90t-111.5 132t-76 163.5t-42 180t-14 185z M313 758q0 -124 22 -228t66.5 -187t120 -130t174.5 -47t174.5 47t120 130t66.5 187t22 228q0 123 -22 227t-66.5 187t-120 130.5t-174.5 47.5t-174.5 -47.5t-120 -130.5t-66.5 -187t-22 -227z" />
<glyph unicode="1" horiz-adv-x="790" d="M8 1153l428 360h162v-1513h-203v1241l-274 -229z" />
<glyph unicode="2" horiz-adv-x="1144" d="M72 1325q107 105 231 160t252 55q206 0 337.5 -125.5t131.5 -329.5q0 -198 -211 -432l-422 -465h651v-188h-944v170l486 520q121 126 181 217t60 189q0 113 -79 184.5t-195 71.5q-189 0 -367 -172z" />
<glyph unicode="3" horiz-adv-x="1134" d="M43 125l92 166q201 -127 371 -127q142 0 224.5 71.5t82.5 186.5q0 117 -86.5 190.5t-224.5 73.5h-187v182h185q125 0 204.5 68.5t79.5 177.5q0 110 -77.5 174t-192.5 64q-159 0 -332 -133l-104 143q81 83 202.5 130.5t249.5 47.5q204 0 333.5 -115t129.5 -284 q0 -122 -72 -215.5t-190 -130.5v-9q137 -30 216 -131t79 -239q0 -194 -144 -317.5t-374 -123.5q-243 0 -465 150z" />
<glyph unicode="4" horiz-adv-x="1216" d="M18 504l828 1009h117v-954h170v-178h-170v-381h-197v381h-705zM289 559h477v584z" />
<glyph unicode="5" horiz-adv-x="1171" d="M70 158l96 159q90 -74 189.5 -113.5t191.5 -39.5q149 0 243.5 91t94.5 228q0 136 -92 227t-234 91q-163 0 -278 -121l-136 78l86 755h758v-182h-600l-51 -403q111 59 246 59q217 0 362.5 -142t145.5 -360q0 -222 -151.5 -366t-385.5 -144q-128 0 -254 47t-231 136z" />
<glyph unicode="6" horiz-adv-x="1259" d="M106 711q0 106 17 206.5t50 194t85.5 171t120.5 135.5t158.5 90t195.5 32q230 0 387 -127l-86 -153q-130 102 -289 102q-90 0 -165 -39t-124.5 -102t-84.5 -144t-50.5 -162t-15.5 -159v-8q47 103 151 166t240 63q206 0 340.5 -139t134.5 -351q0 -219 -145.5 -362 t-370.5 -143q-135 0 -241.5 57.5t-172.5 158t-100.5 231t-34.5 282.5zM346 485q0 -135 89.5 -228t221.5 -93q134 0 225 93.5t91 229.5q0 134 -89 223t-222 89q-134 0 -225 -89t-91 -225z" />
<glyph unicode="7" horiz-adv-x="1030" d="M43 1331v182h952v-120l-589 -1393h-220l578 1331h-721z" />
<glyph unicode="8" horiz-adv-x="1280" d="M98 408q0 127 80.5 234.5t216.5 158.5v4q-110 52 -171.5 142t-61.5 196q0 172 133 284.5t346 112.5q210 0 343.5 -112.5t133.5 -284.5q0 -107 -62.5 -197t-172.5 -141v-6q137 -49 218 -156.5t81 -234.5q0 -187 -152.5 -310t-388.5 -123q-240 0 -391.5 122.5t-151.5 310.5 zM299 434q0 -122 95.5 -201t246.5 -79q150 0 244 79t94 201q0 118 -92 195.5t-246 77.5q-156 0 -249 -77.5t-93 -195.5zM354 1124q0 -103 78 -172t207 -69q130 0 206.5 69t76.5 172q0 106 -77.5 175t-203.5 69q-129 0 -208 -69t-79 -175z" />
<glyph unicode="9" horiz-adv-x="1253" d="M86 1032q0 220 145.5 364t372.5 144q178 0 301.5 -96t181.5 -259.5t58 -381.5q0 -133 -21.5 -253t-69 -226t-117 -183t-172.5 -121.5t-230 -44.5q-114 0 -217.5 33t-176.5 94l78 158q146 -106 309 -106q110 0 194 51.5t133 139.5t73.5 194t25.5 227q-51 -99 -156 -161 t-237 -62q-205 0 -340 138.5t-135 350.5zM285 1032q0 -135 88.5 -224t222.5 -89t224.5 90t90.5 225q0 137 -89.5 231.5t-221.5 94.5q-134 0 -224.5 -93t-90.5 -235z" />
<glyph unicode=":" horiz-adv-x="534" d="M135 100q0 54 37.5 90.5t93.5 36.5t93.5 -36.5t37.5 -90.5q0 -58 -37.5 -95.5t-93.5 -37.5t-93.5 37.5t-37.5 95.5zM135 856q0 54 37.5 90.5t93.5 36.5t93.5 -36.5t37.5 -90.5q0 -58 -37.5 -95.5t-93.5 -37.5t-93.5 37.5t-37.5 95.5z" />
<glyph unicode=";" horiz-adv-x="587" d="M119 -180q52 39 73 55t50 45.5t43 56.5h-9q-46 0 -80 35t-34 82q0 52 39.5 89.5t93.5 37.5q62 0 101.5 -42.5t39.5 -108.5q0 -178 -254 -338zM170 854q0 54 37.5 90.5t93.5 36.5t94.5 -36.5t38.5 -90.5q0 -58 -38.5 -95.5t-94.5 -37.5t-93.5 37.5t-37.5 95.5z" />
<glyph unicode="&#x3c;" horiz-adv-x="1171" d="M70 590v178l952 469v-205l-743 -354l743 -350v-207z" />
<glyph unicode="=" horiz-adv-x="1232" d="M143 403v177h947v-177h-947zM143 762v176h947v-176h-947z" />
<glyph unicode="&#x3e;" horiz-adv-x="1118" d="M127 94v207l682 352l-682 351v206l930 -497v-123z" />
<glyph unicode="?" horiz-adv-x="1046" d="M55 1348q81 94 200 151t245 57q122 0 226 -52t168 -150t64 -221q0 -69 -23 -131.5t-60.5 -108.5t-82 -88t-89.5 -79.5t-82.5 -73.5t-60.5 -77.5t-23 -85.5v-147h-185v150q0 59 22.5 112t59 94.5t80 80.5t87 77t80 77.5t59 89t22.5 103.5q0 109 -79 177.5t-196 68.5 q-81 0 -162 -44t-149 -118zM313 109q0 54 38.5 90.5t94.5 36.5q54 0 91.5 -36.5t37.5 -90.5q0 -58 -37 -96t-92 -38q-56 0 -94.5 38t-38.5 96z" />
<glyph unicode="@" horiz-adv-x="1994" d="M94 582q0 152 46.5 294t132 257t199 201.5t254 134t290.5 47.5q184 0 352.5 -68.5t289.5 -183.5t193 -270.5t72 -323.5q0 -227 -120 -379t-294 -152q-94 0 -154 47.5t-77 114.5q-54 -76 -140.5 -119t-185.5 -43q-174 0 -295.5 128t-121.5 317t123.5 318.5t304.5 129.5 q92 0 171 -35t130 -98v102h157v-563q0 -70 33 -110.5t82 -40.5q93 0 159 109t66 274q0 186 -98 344.5t-269 252t-374 93.5q-155 -1 -294.5 -62t-240.5 -165t-160 -247t-59 -302q0 -156 61.5 -298.5t166.5 -247t254 -166.5t315 -62q155 0 303.5 52.5t265.5 147.5l84 -129 q-113 -96 -293 -162.5t-374 -66.5q-197 0 -375 74.5t-304.5 200t-201 297t-74.5 358.5zM700 586q0 -128 79 -213.5t200 -85.5q120 0 201.5 84.5t81.5 210.5q0 130 -79 216.5t-200 86.5q-120 0 -201.5 -85.5t-81.5 -213.5z" />
<glyph unicode="A" horiz-adv-x="1380" d="M25 0l612 1513h111l606 -1513h-224l-153 393h-576l-153 -393h-223zM471 586h436l-217 571z" />
<glyph unicode="B" horiz-adv-x="1376" d="M190 0v1513h598q101 0 182 -33t131 -87.5t76.5 -120.5t26.5 -137q0 -102 -55.5 -187.5t-149.5 -120.5q139 -38 212 -146.5t73 -246.5q0 -83 -30 -159.5t-87 -138.5t-148.5 -99t-203.5 -37h-625zM393 193h389q134 0 212.5 77t78.5 179q0 109 -78 187.5t-221 78.5h-381 v-522zM393 901h363q113 0 176 66t63 155q0 81 -62.5 141t-170.5 60h-369v-422z" />
<glyph unicode="C" horiz-adv-x="1589" d="M94 752q0 137 40.5 260.5t114 219t171 165.5t215.5 106.5t244 36.5q208 0 381.5 -91t271.5 -241l-152 -127q-89 121 -217 190.5t-280 69.5q-158 0 -290 -75t-210 -211.5t-78 -304.5q0 -166 75.5 -298t207 -205t293.5 -73q153 0 285 68t223 188l147 -125 q-106 -147 -281 -237.5t-383 -90.5q-159 0 -301 56.5t-247.5 156.5t-167.5 246t-62 316z" />
<glyph unicode="D" horiz-adv-x="1552" d="M190 0v1513h564q321 0 508.5 -204.5t187.5 -554.5q0 -348 -192 -551t-525 -203h-543zM395 195h346q157 0 270.5 75.5t169.5 201.5t56 288q0 160 -56 285t-169.5 199.5t-270.5 74.5h-346v-1124z" />
<glyph unicode="E" horiz-adv-x="1247" d="M190 0v1513h943v-194h-738v-453h682v-194h-682v-477h738v-195h-943z" />
<glyph unicode="F" horiz-adv-x="1173" d="M190 0v1513h926v-198h-721v-449h629v-198h-629v-668h-205z" />
<glyph unicode="G" horiz-adv-x="1662" d="M94 756q0 169 63 316.5t170 249t251 160t303 58.5q190 0 359 -76.5t271 -201.5l-145 -134q-91 101 -215.5 157t-267.5 56q-162 0 -294 -74.5t-209 -209t-77 -303.5q0 -124 45 -232t122 -184t183 -120t224 -44q136 0 263.5 57t221.5 156v301h-506v189h698v-580 q-137 -159 -313.5 -239.5t-372.5 -80.5q-220 0 -397 100.5t-277 278.5t-100 400z" />
<glyph unicode="H" horiz-adv-x="1552" d="M190 0v1513h207v-639h760v639h205v-1513h-205v678h-760v-678h-207z" />
<glyph unicode="I" horiz-adv-x="585" d="M190 0v1513h205v-1513h-205z" />
<glyph unicode="J" horiz-adv-x="1142" d="M27 170l125 149q60 -73 142 -111t167 -38q134 0 217.5 86.5t83.5 245.5v1011h205v-1021q0 -246 -140 -381.5t-366 -135.5q-122 0 -235.5 48.5t-198.5 146.5z" />
<glyph unicode="K" horiz-adv-x="1363" d="M190 0v1513h205v-823l695 823h243l-598 -712l654 -801h-254l-533 664l-207 -244v-420h-205z" />
<glyph unicode="L" horiz-adv-x="1234" d="M190 0v1513h205v-1314h813v-199h-1018z" />
<glyph unicode="M" horiz-adv-x="1882" d="M190 0v1513h99l653 -960l649 960h101v-1513h-205v1022l-520 -764h-54l-520 764v-1022h-203z" />
<glyph unicode="N" horiz-adv-x="1597" d="M190 0v1513h93l921 -1079v1079h203v-1513h-107l-907 1073v-1073h-203z" />
<glyph unicode="O" horiz-adv-x="1751" d="M92 748q0 130 39.5 251.5t112 218.5t169 170t215.5 112.5t246 39.5q159 0 304.5 -62t250.5 -167.5t167.5 -250.5t62.5 -304t-62 -303t-167.5 -249t-252 -167t-309.5 -62t-307.5 60.5t-247 163.5t-162 246t-59.5 303zM305 754q0 -121 43.5 -228.5t119 -184.5t181 -122 t225.5 -45q118 0 223.5 44t182 120.5t121.5 184.5t45 231q0 165 -76.5 299.5t-207.5 210t-288 75.5q-156 0 -286.5 -76.5t-206.5 -211t-76 -297.5z" />
<glyph unicode="P" horiz-adv-x="1245" d="M190 0v1513h506q123 0 219.5 -40t154 -107t87 -148.5t29.5 -170.5q0 -73 -19 -140t-60 -127t-99.5 -104t-143.5 -70t-186 -26h-283v-580h-205zM395 770h287q76 0 135 24.5t94 65t52.5 89.5t17.5 102q0 111 -71 190.5t-201 79.5h-314v-551z" />
<glyph unicode="Q" horiz-adv-x="1751" d="M92 758q0 211 106 391.5t286.5 285.5t392.5 105q159 0 304 -62t249.5 -167t166.5 -250t62 -303q0 -246 -137 -443.5t-359 -285.5q133 -111 291 -111q83 0 180 33l25 -172q-95 -39 -217 -39q-128 0 -260.5 58.5t-243.5 178.5q-20 -2 -61 -2q-158 0 -303.5 62.5t-251 167.5 t-168 250t-62.5 303zM305 754q0 -123 45 -231t122 -184.5t182.5 -120.5t222.5 -44q118 0 223.5 44t182 120.5t121 184.5t44.5 231q0 165 -76 299.5t-206.5 210t-288.5 75.5q-157 0 -288 -75.5t-207.5 -210t-76.5 -299.5z" />
<glyph unicode="R" horiz-adv-x="1312" d="M190 0v1513h515q116 0 209 -38.5t150 -103t86.5 -143.5t29.5 -165q0 -96 -37.5 -182.5t-119.5 -155.5t-196 -94l422 -631h-252l-393 614h-209v-614h-205zM395 807h271q154 0 229.5 75t75.5 183t-69 181t-195 73h-312v-512z" />
<glyph unicode="S" horiz-adv-x="1155" d="M55 287l152 125q61 -121 156 -181.5t206 -60.5q128 0 203.5 67t75.5 162q0 123 -158 211q-41 23 -155 74t-170 86q-228 146 -228 360q0 174 126 292t331 118q130 0 245 -54t199 -169l-137 -131q-62 83 -143.5 122.5t-161.5 39.5q-102 0 -171 -56.5t-69 -148.5 q0 -119 129 -195q39 -24 176 -89t191 -97q219 -130 219 -352q0 -192 -142 -313.5t-358 -121.5q-163 0 -302.5 80t-213.5 232z" />
<glyph unicode="T" horiz-adv-x="1159" d="M29 1315v198h1101v-198h-448v-1315h-205v1315h-448z" />
<glyph unicode="U" horiz-adv-x="1445" d="M174 510v1003h205v-966q0 -181 90 -277t254 -96q163 0 252.5 98t89.5 275v966h207v-1003q0 -250 -151 -393.5t-398 -143.5q-246 0 -397.5 144t-151.5 393z" />
<glyph unicode="V" horiz-adv-x="1449" d="M16 1513h234l479 -1161l477 1161h224l-644 -1513h-116z" />
<glyph unicode="W" horiz-adv-x="2107" d="M23 1513h217l364 -1107l402 1107h92l411 -1107l359 1107h215l-516 -1513h-113l-399 1130l-398 -1130h-114z" />
<glyph unicode="X" horiz-adv-x="1284" d="M16 0l504 768l-479 745h238l364 -589l369 589h245l-495 -745l500 -768h-238l-381 600l-381 -600h-246z" />
<glyph unicode="Y" horiz-adv-x="1308" d="M39 1513h227l387 -765l394 765h227l-518 -968v-545h-205v545z" />
<glyph unicode="Z" horiz-adv-x="1265" d="M63 0v127l824 1194h-787v192h1074v-129l-816 -1191h838v-193h-1133z" />
<glyph unicode="[" horiz-adv-x="757" d="M178 -465v2126h545v-162h-342v-1802h342v-162h-545z" />
<glyph unicode="\" horiz-adv-x="1239" d="M43 1690h193l964 -1942h-192z" />
<glyph unicode="]" horiz-adv-x="757" d="M35 -303h342v1802h-342v162h543v-2126h-543v162z" />
<glyph unicode="^" horiz-adv-x="1064" d="M82 883l395 637h115l391 -637h-195l-253 434l-254 -434h-199z" />
<glyph unicode="_" horiz-adv-x="1191" d="M0 -170h1192v-178h-1192v178z" />
<glyph unicode="`" horiz-adv-x="862" d="M82 1612h240l120 -342h-170z" />
<glyph unicode="a" horiz-adv-x="1361" d="M84 557q0 162 71 291.5t196.5 202.5t281.5 73q234 0 387 -186v160h188v-1098h-188v156q-147 -183 -387 -183q-235 0 -392 168t-157 416zM283 549q0 -166 102.5 -280.5t269.5 -114.5q168 0 272.5 115t104.5 282q0 164 -104.5 278.5t-272.5 114.5q-167 0 -269.5 -114.5 t-102.5 -280.5z" />
<glyph unicode="b" horiz-adv-x="1368" d="M152 0v1550h196v-618q149 192 387 192q154 0 279.5 -77t196.5 -208.5t71 -289.5t-71 -290t-197.5 -209t-280.5 -77q-238 0 -385 187v-160h-196zM340 551q0 -167 101.5 -280t269.5 -113q167 0 269.5 113t102.5 280q0 164 -103 276.5t-269 112.5q-167 0 -269 -112.5 t-102 -276.5z" />
<glyph unicode="c" horiz-adv-x="1226" d="M84 549q0 252 165.5 413.5t424.5 161.5q162 0 298 -77.5t199 -208.5l-161 -95q-55 93 -143.5 147t-192.5 54q-168 0 -279.5 -113t-111.5 -282q0 -167 108 -280t273 -113q102 0 198 55.5t142 140.5l163 -94q-68 -127 -205 -205t-298 -78q-168 0 -300.5 73.5t-206 204.5 t-73.5 296z" />
<glyph unicode="d" horiz-adv-x="1366" d="M84 551q0 157 71 288t197.5 208t280.5 77q236 0 385 -186v612h196v-1550h-196v154q-145 -181 -381 -181q-158 0 -285 77t-197.5 209t-70.5 292zM283 551q0 -167 103 -282t271 -115t271.5 115t103.5 282q0 165 -104 279t-271 114t-270.5 -114t-103.5 -279z" />
<glyph unicode="e" horiz-adv-x="1251" d="M86 553q0 247 154.5 409t400.5 162q234 0 382 -149.5t148 -405.5q0 -19 -6 -100h-874q24 -138 118.5 -225.5t266.5 -87.5q98 0 203 33.5t180 89.5l84 -150q-81 -64 -207.5 -109t-263.5 -45q-150 0 -266 49.5t-184 133t-102 183.5t-34 212zM291 639h678q-9 143 -101 227 t-227 84t-230 -86.5t-120 -224.5z" />
<glyph unicode="f" horiz-adv-x="808" d="M53 930v168h191v71q0 195 112 301.5t297 106.5q134 0 246 -59l-59 -162q-95 39 -162 39q-118 0 -178 -58.5t-60 -171.5v-67h351v-168h-351v-930h-196v930h-191z" />
<glyph unicode="g" horiz-adv-x="1366" d="M84 563q0 158 74.5 287t203 201.5t283.5 72.5q227 0 375 -170v144h194v-985q0 -267 -160 -423.5t-427 -156.5q-266 0 -486 156l92 155q77 -58 182 -95.5t210 -37.5q181 0 288 103t107 266v90q-146 -172 -385 -172q-155 0 -281.5 73.5t-198 203t-71.5 288.5zM283 561 q0 -166 106 -276.5t268 -110.5q161 0 268 110.5t107 276.5t-107 275.5t-268 109.5q-162 0 -268 -109.5t-106 -275.5z" />
<glyph unicode="h" horiz-adv-x="1261" d="M152 0v1550h190v-587q51 74 143 118.5t205 44.5q87 0 163.5 -28.5t137 -83.5t96 -144.5t35.5 -203.5v-666h-194v610q0 162 -77 248t-202 86q-133 0 -217 -93t-84 -241v-610h-196z" />
<glyph unicode="i" horiz-adv-x="501" d="M111 1395q0 59 41 98t102 39q58 0 98.5 -39.5t40.5 -97.5q0 -61 -40.5 -101.5t-98.5 -40.5q-62 0 -102.5 40.5t-40.5 101.5zM152 0v1098h196v-1098h-196z" />
<glyph unicode="j" horiz-adv-x="550" d="M-160 -424l39 164q82 -29 133 -29q96 0 142.5 60t46.5 166v1161h196v-1149q0 -203 -97 -310.5t-265 -107.5q-54 0 -108.5 12.5t-86.5 32.5zM158 1395q0 59 41 98t102 39q58 0 98.5 -39.5t40.5 -97.5q0 -61 -40.5 -101.5t-98.5 -40.5q-62 0 -102.5 40.5t-40.5 101.5z" />
<glyph unicode="k" horiz-adv-x="1116" d="M152 0v1550h196v-897l492 445h266l-514 -461l532 -637h-258l-413 512l-105 -94v-418h-196z" />
<glyph unicode="l" horiz-adv-x="501" d="M152 0v1550h196v-1550h-196z" />
<glyph unicode="m" horiz-adv-x="1994" d="M152 0v1098h192v-162q48 89 136 140q86 50 192 50h4q111 0 205.5 -53.5t138.5 -150.5q56 93 163 148.5t236 55.5q200 0 319.5 -128t119.5 -345v-653h-197v623q0 154 -71 237.5t-193 83.5q-130 0 -211.5 -90t-81.5 -236v-618h-195v618q0 153 -71 239.5t-195 86.5 q-129 0 -212 -90.5t-83 -239.5v-614h-196z" />
<glyph unicode="n" horiz-adv-x="1265" d="M152 0v1098h192v-156q50 88 140.5 136t207.5 48q87 0 164 -28.5t138 -83.5t96.5 -144.5t35.5 -203.5v-666h-194v610q0 160 -78 247t-203 87q-133 0 -218 -94t-85 -242v-608h-196z" />
<glyph unicode="o" horiz-adv-x="1320" d="M84 551q0 117 43 222.5t118 183.5t183.5 123.5t233.5 45.5q165 0 297.5 -78t205 -209t72.5 -288q0 -160 -72.5 -292t-204.5 -209t-298 -77t-299 77t-206 209t-73 292zM283 551q0 -164 110 -280.5t269 -116.5t268.5 116.5t109.5 280.5q0 161 -110 277t-268 116 t-268.5 -116t-110.5 -277z" />
<glyph unicode="p" horiz-adv-x="1372" d="M152 -453v1551h196v-166q73 92 173 142t218 50q154 0 280.5 -77.5t197.5 -209t71 -288.5q0 -158 -71 -290t-198 -209t-282 -77q-239 0 -389 187v-613h-196zM340 551q0 -167 103.5 -282t271.5 -115t272.5 115t104.5 282q0 166 -104.5 279.5t-272.5 113.5q-167 0 -271 -114 t-104 -279z" />
<glyph unicode="q" horiz-adv-x="1372" d="M84 551q0 156 71 287t197.5 208.5t280.5 77.5q238 0 391 -190v164h195v-1551h-197v611q-152 -185 -389 -185q-155 0 -281 77t-197 209.5t-71 291.5zM283 551q0 -167 103 -282t271 -115t271.5 115t103.5 282q0 165 -104 279t-271 114t-270.5 -114t-103.5 -279z" />
<glyph unicode="r" horiz-adv-x="796" d="M152 0v1098h186v-162q96 190 315 190q66 0 129 -16l-18 -190q-58 18 -115 18q-132 0 -216.5 -89.5t-84.5 -266.5v-582h-196z" />
<glyph unicode="s" horiz-adv-x="929" d="M51 213l142 109q48 -87 122 -131t150 -44q88 0 141 44.5t53 107.5q0 85 -100 139q-35 19 -136.5 62t-135.5 61q-84 45 -126 116t-42 150q0 133 98 220.5t260 87.5q105 0 199 -44t149 -130l-125 -119q-87 127 -235 127q-74 0 -116 -38.5t-42 -94.5q0 -86 92 -129 q23 -11 121.5 -53t147.5 -68q186 -95 186 -277q0 -141 -110.5 -237.5t-284.5 -96.5q-80 0 -154 24t-142.5 79t-111.5 135z" />
<glyph unicode="t" horiz-adv-x="874" d="M31 930v168h196v389h193v-389h389v-168h-389v-559q0 -217 178 -217q97 0 197 63l73 -151q-122 -93 -293 -93q-175 0 -262.5 107.5t-87.5 304.5v545h-194z" />
<glyph unicode="u" horiz-adv-x="1218" d="M137 442v656h197v-649q0 -135 72.5 -214t201.5 -79q131 0 204 79t73 214v649h194v-656q0 -218 -125.5 -343.5t-345.5 -125.5q-215 0 -343 127t-128 342z" />
<glyph unicode="v" horiz-adv-x="1153" d="M25 1098h219l336 -822l331 822h217l-483 -1096h-137z" />
<glyph unicode="w" horiz-adv-x="1720" d="M23 1098h206l260 -824l299 824h138l311 -824l250 824h205l-367 -1096h-164l-303 821l-297 -821h-162z" />
<glyph unicode="x" horiz-adv-x="1040" d="M14 0l387 569l-348 529h228l243 -385l248 385h232l-369 -543l377 -555h-228l-266 412l-266 -412h-238z" />
<glyph unicode="y" horiz-adv-x="1136" d="M27 1098h227l340 -824l295 824h217l-461 -1221q-69 -184 -161 -264t-220 -80q-108 0 -176 43l25 172q80 -33 133 -33q68 0 121 45t96 148l41 96z" />
<glyph unicode="z" horiz-adv-x="1040" d="M61 0v125l627 803h-590v168h854v-115l-624 -813h643v-168h-910z" />
<glyph unicode="{" horiz-adv-x="759" d="M45 526v136q43 10 68 17t61.5 23.5t56.5 37t35 55t15 79.5q0 47 -8.5 197.5t-8.5 233.5q0 176 92.5 266t270.5 90h88v-164h-68q-194 0 -194 -190q0 -65 8 -215t8 -211q0 -105 -65.5 -180.5t-155.5 -102.5v-8q91 -29 156 -103.5t65 -177.5q0 -62 -8 -212t-8 -214 q0 -192 194 -192h68v-164h-88q-178 0 -270.5 90.5t-92.5 269.5q0 82 8.5 230.5t8.5 195.5q0 45 -15 80t-35.5 56t-55.5 37t-62 24t-68 16z" />
<glyph unicode="|" horiz-adv-x="534" d="M178 -367v2102h176v-2102h-176z" />
<glyph unicode="}" horiz-adv-x="759" d="M45 -309h68q101 0 147.5 48t46.5 144q0 64 -8 214t-8 212q0 103 65 177.5t156 103.5v8q-90 27 -155.5 102.5t-65.5 180.5q0 61 8 211t8 215q0 94 -46.5 142t-147.5 48h-68v164h88q176 0 269.5 -90t93.5 -266q0 -83 -7.5 -233.5t-7.5 -197.5q0 -33 7.5 -60t19 -46 t31.5 -35t37.5 -26t45 -19.5t46.5 -14t49 -11.5v-136q-52 -11 -86 -22t-72.5 -34t-58 -62t-19.5 -95q0 -47 7.5 -195.5t7.5 -230.5q0 -178 -93 -269t-268 -91h-90v164z" />
<glyph unicode="~" horiz-adv-x="1368" d="M131 621q116 202 344 202q61 0 126 -21.5t111 -48t100.5 -48t96.5 -21.5q65 0 109 28.5t98 96.5l127 -94q-122 -203 -346 -203q-62 0 -127 21.5t-110.5 48t-100 48t-96.5 21.5q-63 0 -108 -28t-99 -95z" />
<glyph unicode="&#xa2;" horiz-adv-x="1249" d="M90 549q0 232 142 389t372 182v170h139v-170q144 -14 261 -89t174 -193l-162 -95q-47 78 -118 130t-155 65v-774q84 17 156.5 68t110.5 120l164 -94q-60 -112 -175.5 -186.5t-255.5 -91.5v-164h-139v161q-229 23 -371.5 181t-142.5 391zM289 549q0 -149 88 -257t227 -130 v776q-140 -26 -227.5 -133.5t-87.5 -255.5z" />
<glyph unicode="&#xa3;" horiz-adv-x="1169" d="M111 684v168h125q-56 158 -56 250q1 122 61.5 222t166.5 157.5t235 58.5q135 1 250.5 -63.5t183.5 -176.5l-151 -108q-42 72 -114.5 117t-154.5 45q-118 0 -194 -77.5t-76 -195.5q0 -90 53 -229h496v-168h-438q21 -81 18 -152q-3 -96 -48 -189t-118 -155h733v-188h-970 v162q86 63 144 177t58 220q0 53 -20 125h-184z" />
<glyph unicode="&#xa5;" horiz-adv-x="1312" d="M63 1513h220l374 -725l375 725h219l-407 -759h270v-152h-352l-6 -12v-105h358v-153h-358v-332h-203v332h-363v153h363v109l-4 8h-359v152h277z" />
<glyph unicode="&#xa8;" horiz-adv-x="1015" d="M100 1434q0 57 41.5 96t102.5 39q57 0 97 -39t40 -96q0 -62 -39.5 -103t-97.5 -41q-62 0 -103 40.5t-41 103.5zM508 1434q0 57 40.5 96t100.5 39q59 0 99 -39t40 -96q0 -62 -40 -103t-99 -41q-60 0 -100.5 40.5t-40.5 103.5z" />
<glyph unicode="&#xa9;" horiz-adv-x="1761" d="M92 756q0 159 62.5 304t168.5 250.5t252 167.5t306 62t306 -62t251.5 -167.5t168 -250.5t62.5 -304q0 -127 -40 -246t-113 -215t-170 -168.5t-217 -112t-248 -39.5q-213 0 -395 105t-288 285t-106 391zM233 756q0 -130 51.5 -249t138.5 -205t207 -137.5t251 -51.5 q132 0 252 51.5t207 138t138.5 205t51.5 248.5q0 175 -87 323.5t-236.5 235t-325.5 86.5q-175 0 -324.5 -86.5t-236.5 -235t-87 -323.5zM469 756q0 178 120.5 299t297.5 121q99 0 183 -40.5t138 -109.5l-96 -80q-93 103 -225 103q-123 0 -201 -81.5t-78 -211.5 q0 -129 78 -210t201 -81q67 0 127.5 25.5t99.5 70.5l92 -88q-55 -64 -139 -100.5t-180 -36.5q-177 0 -297.5 121.5t-120.5 298.5z" />
<glyph unicode="&#xab;" horiz-adv-x="1056" d="M84 596l291 416h194l-293 -416l293 -416h-194zM465 596l287 416h196l-291 -416l291 -416h-196z" />
<glyph unicode="&#xad;" d="M135 475v184h791v-184h-791z" />
<glyph unicode="&#xae;" horiz-adv-x="1163" d="M90 1071q0 99 39 190.5t105 157.5t157.5 105t190.5 39q133 0 246 -66t179 -179.5t66 -246.5t-66 -246t-179 -179t-246 -66t-246.5 66t-179.5 179t-66 246zM190 1071q0 -161 115.5 -276t276.5 -115t276 115t115 276t-115 276t-276 115t-276.5 -115t-115.5 -276zM410 829 v494h198q74 0 122 -46t48 -118q0 -50 -25 -88t-69 -57l107 -185h-107l-98 168h-82v-168h-94zM504 1075h82q98 0 98 86q0 82 -98 82h-82v-168z" />
<glyph unicode="&#xb4;" horiz-adv-x="919" d="M82 1270l121 342h239l-190 -342h-170z" />
<glyph unicode="&#xb8;" horiz-adv-x="645" d="M82 -455l51 129q88 -43 166 -43q57 0 88 25.5t31 64.5q0 74 -107 74h-114l-19 45l80 201l152 -4l-56 -135h17q87 0 149 -50t62 -139q0 -93 -69.5 -160t-197.5 -67q-109 0 -233 59z" />
<glyph unicode="&#xbb;" horiz-adv-x="1056" d="M109 180l290 416l-290 416h196l287 -416l-287 -416h-196zM487 180l293 416l-293 416h195l291 -416l-291 -416h-195z" />
<glyph unicode="&#x2c6;" horiz-adv-x="1173" d="M78 1274l287 336h141l287 -336h-211l-148 184l-147 -184h-209z" />
<glyph unicode="&#x2da;" horiz-adv-x="776" d="M82 1458q0 97 69.5 164.5t170.5 67.5q100 0 168.5 -67.5t68.5 -164.5t-68.5 -163t-168.5 -66q-101 0 -170.5 66t-69.5 163zM209 1462q0 -49 33 -80.5t80 -31.5q44 0 76 32t32 80q0 44 -32.5 75.5t-75.5 31.5q-46 0 -79.5 -31.5t-33.5 -75.5z" />
<glyph unicode="&#x2dc;" horiz-adv-x="1107" d="M82 1384q28 93 91.5 145t150.5 52q51 0 104 -22.5t99 -45t81 -22.5q76 0 119 92l123 -57q-26 -93 -90.5 -145t-147.5 -52q-51 0 -103 23t-97.5 46t-81.5 23q-74 0 -121 -96z" />
<glyph unicode="&#x401;" horiz-adv-x="1247" d="M190 0v1513h943v-194h-738v-453h682v-194h-682v-477h738v-195h-943zM354 1780q0 52 37.5 87.5t93.5 35.5q51 0 87 -35.5t36 -87.5q0 -56 -35.5 -92.5t-87.5 -36.5q-56 0 -93.5 36.5t-37.5 92.5zM723 1780q0 52 37.5 87.5t91.5 35.5q53 0 89 -35.5t36 -87.5 q0 -56 -36 -92.5t-89 -36.5q-55 0 -92 36.5t-37 92.5z" />
<glyph unicode="&#x410;" horiz-adv-x="1380" d="M25 0l612 1513h111l606 -1513h-224l-153 393h-576l-153 -393h-223zM471 586h436l-217 571z" />
<glyph unicode="&#x411;" horiz-adv-x="1327" d="M190 0v1513h934v-190h-731v-379h324q93 0 171 -17.5t132 -47t96 -70.5t67.5 -83.5t41.5 -91t22 -89.5t6 -82q0 -91 -32 -173t-94 -147.5t-162.5 -104t-227.5 -38.5h-547zM393 193h309q165 0 252.5 78t87.5 200q0 55 -18 103t-55 89t-102.5 65t-151.5 24h-322v-559z" />
<glyph unicode="&#x412;" horiz-adv-x="1376" d="M190 0v1513h598q101 0 182 -33t131 -87.5t76.5 -120.5t26.5 -137q0 -102 -55.5 -187.5t-149.5 -120.5q139 -38 212 -146.5t73 -246.5q0 -83 -30 -159.5t-87 -138.5t-148.5 -99t-203.5 -37h-625zM393 193h389q134 0 212.5 77t78.5 179q0 109 -78 187.5t-221 78.5h-381 v-522zM393 901h363q113 0 176 66t63 155q0 81 -62.5 141t-170.5 60h-369v-422z" />
<glyph unicode="&#x413;" horiz-adv-x="1112" d="M190 0v1513h893v-192h-690v-1321h-203z" />
<glyph unicode="&#x414;" horiz-adv-x="1560" d="M61 188h162l500 1325h117l497 -1325h160v-495h-201v307h-1032v-307h-203v495zM440 188h678l-338 973z" />
<glyph unicode="&#x415;" horiz-adv-x="1247" d="M190 0v1513h943v-194h-738v-453h682v-194h-682v-477h738v-195h-943z" />
<glyph unicode="&#x416;" horiz-adv-x="2039" d="M33 6l10 184q52 -18 109 -18q37 0 63 10t55 33t69.5 81.5t88 134t127.5 212.5q57 76 98 102q-36 24 -66.5 60t-53.5 79t-39.5 80t-35.5 83t-30 69q-24 48 -35 69.5t-30 53.5t-33 45.5t-34.5 29t-43.5 20.5t-53 5q-32 0 -86 -12l-33 176q65 33 141 33q54 0 96 -9.5 t79 -34.5t65 -54.5t60 -84t57.5 -107.5t64.5 -140q11 -24 25.5 -60t22 -53t20.5 -42.5t23 -37t26 -26t34 -20.5t43 -10.5t56 -4.5h25v657h204v-657h25q36 0 62.5 4t47.5 17t34 24t28 38t23 45t25.5 59t29.5 67q39 87 64.5 140t57.5 107.5t60 84t65 54.5t79 34.5t96 9.5 q77 0 139 -33l-31 -176q-56 12 -86 12t-53 -5t-43.5 -20.5t-34.5 -29t-33 -45.5t-30 -53.5t-35 -69.5q-10 -21 -49 -114t-77 -159.5t-85 -107.5q45 -35 84 -92q67 -114 108.5 -182.5t81 -126.5t63 -85.5t50 -47t47.5 -24.5t51 -5q58 0 111 18l10 -184q-67 -29 -145 -29 q-32 0 -60 4t-55 14.5t-48.5 20.5t-45.5 31t-41.5 37t-41 48t-39 53t-41.5 63t-42 68.5t-46 77.5q-17 29 -26 44q-6 11 -22.5 40t-23.5 40.5t-22.5 36t-25 35t-25 26.5t-29 23t-31 12.5t-36.5 5.5h-39v-661h-204v661h-39q-21 0 -40 -5.5t-36.5 -19.5t-30.5 -26t-29.5 -37 t-26 -39.5t-28 -46t-26.5 -45.5q-124 -212 -167 -272q-91 -127 -187 -166q-58 -23 -130 -23q-78 0 -145 29z" />
<glyph unicode="&#x417;" horiz-adv-x="1224" d="M43 129l88 168q228 -135 430 -135q159 0 254.5 74.5t95.5 193.5t-93 187.5t-247 68.5h-258v182h230q143 0 236 70.5t93 183.5q1 105 -85 167.5t-212 62.5q-184 0 -393 -138l-94 152q95 82 229.5 128t270.5 46q220 0 355.5 -116t135.5 -285q0 -118 -67.5 -206t-194.5 -130 v-8q141 -31 222 -130.5t81 -242.5q0 -199 -154 -323t-411 -124q-266 0 -512 154z" />
<glyph unicode="&#x418;" horiz-adv-x="1595" d="M190 0v1513h203v-1140l895 1140h115v-1513h-203v1135l-889 -1135h-121z" />
<glyph unicode="&#x419;" horiz-adv-x="1595" d="M190 0v1513h203v-1140l895 1140h115v-1513h-203v1135l-889 -1135h-121zM408 1802l108 119q74 -89 144 -127.5t153 -38.5q85 0 155 38.5t142 127.5l113 -119q-91 -109 -191.5 -160t-218.5 -51q-119 0 -217.5 51t-187.5 160z" />
<glyph unicode="&#x41a;" horiz-adv-x="1363" d="M190 0v1513h205v-823l695 823h243l-598 -712l654 -801h-254l-533 664l-207 -244v-420h-205z" />
<glyph unicode="&#x41b;" horiz-adv-x="1314" d="M31 0l571 1513h117l565 -1513h-223l-404 1137l-401 -1137h-225z" />
<glyph unicode="&#x41c;" horiz-adv-x="1882" d="M190 0v1513h99l653 -960l649 960h101v-1513h-205v1022l-520 -764h-54l-520 764v-1022h-203z" />
<glyph unicode="&#x41d;" horiz-adv-x="1552" d="M190 0v1513h207v-639h760v639h205v-1513h-205v678h-760v-678h-207z" />
<glyph unicode="&#x41e;" horiz-adv-x="1751" d="M92 748q0 130 39.5 251.5t112 218.5t169 170t215.5 112.5t246 39.5q159 0 304.5 -62t250.5 -167.5t167.5 -250.5t62.5 -304t-62 -303t-167.5 -249t-252 -167t-309.5 -62t-307.5 60.5t-247 163.5t-162 246t-59.5 303zM305 754q0 -121 43.5 -228.5t119 -184.5t181 -122 t225.5 -45q118 0 223.5 44t182 120.5t121.5 184.5t45 231q0 165 -76.5 299.5t-207.5 210t-288 75.5q-156 0 -286.5 -76.5t-206.5 -211t-76 -297.5z" />
<glyph unicode="&#x41f;" horiz-adv-x="1552" d="M190 0v1513h1172v-1513h-205v1317h-760v-1317h-207z" />
<glyph unicode="&#x420;" horiz-adv-x="1245" d="M190 0v1513h506q123 0 219.5 -40t154 -107t87 -148.5t29.5 -170.5q0 -73 -19 -140t-60 -127t-99.5 -104t-143.5 -70t-186 -26h-283v-580h-205zM395 770h287q76 0 135 24.5t94 65t52.5 89.5t17.5 102q0 111 -71 190.5t-201 79.5h-314v-551z" />
<glyph unicode="&#x421;" horiz-adv-x="1589" d="M94 752q0 137 40.5 260.5t114 219t171 165.5t215.5 106.5t244 36.5q208 0 381.5 -91t271.5 -241l-152 -127q-89 121 -217 190.5t-280 69.5q-158 0 -290 -75t-210 -211.5t-78 -304.5q0 -166 75.5 -298t207 -205t293.5 -73q153 0 285 68t223 188l147 -125 q-106 -147 -281 -237.5t-383 -90.5q-159 0 -301 56.5t-247.5 156.5t-167.5 246t-62 316z" />
<glyph unicode="&#x422;" horiz-adv-x="1159" d="M29 1315v198h1101v-198h-448v-1315h-205v1315h-448z" />
<glyph unicode="&#x423;" horiz-adv-x="1232" d="M55 1511h236l364 -802l349 802h225q-54 -118 -161.5 -359t-191.5 -425t-163 -348q-33 -70 -65.5 -124.5t-76.5 -109t-91 -90.5t-108 -58t-130 -22q-94 0 -158 37l20 176q65 -26 123 -26q32 0 62 11t53 25t49.5 43.5t43 50.5t41 63.5t36.5 64t37 69.5z" />
<glyph unicode="&#x424;" horiz-adv-x="1873" d="M86 760q0 198 97.5 363.5t268.5 265t384 112.5v176h202v-176q213 -13 384 -113t267.5 -264.5t96.5 -363.5q0 -201 -96 -366.5t-266.5 -265.5t-385.5 -114v-178h-202v178q-214 14 -385 114.5t-268 266t-97 365.5zM295 760q0 -231 150.5 -383.5t390.5 -169.5v1100 q-241 -17 -391 -167.5t-150 -379.5zM1038 207q240 17 389.5 169.5t149.5 383.5q0 229 -149.5 379.5t-389.5 167.5v-1100z" />
<glyph unicode="&#x425;" horiz-adv-x="1284" d="M16 0l504 768l-479 745h238l364 -589l369 589h245l-495 -745l500 -768h-238l-381 600l-381 -600h-246z" />
<glyph unicode="&#x426;" horiz-adv-x="1458" d="M190 0v1513h205v-1316h621v1316h203v-1316h147v-504h-203v307h-973z" />
<glyph unicode="&#x427;" horiz-adv-x="1392" d="M106 956v557h205v-499q0 -193 79.5 -274t248.5 -81q75 0 146 12.5t112.5 26t97.5 35.5v780h205v-1513h-205v532q-189 -71 -358 -71q-250 0 -390.5 123.5t-140.5 371.5z" />
<glyph unicode="&#x428;" horiz-adv-x="2228" d="M190 0v1513h205v-1316h617v1316h202v-1316h619v1316h203v-1513h-1846z" />
<glyph unicode="&#x429;" horiz-adv-x="2273" d="M190 0v1513h205v-1316h617v1316h202v-1316h619v1316h203v-1316h147v-504h-203v307h-1790z" />
<glyph unicode="&#x42a;" horiz-adv-x="1531" d="M33 1323v190h573v-569q163 66 330 66q110 0 206 -33.5t169 -97t115 -162t42 -221.5q0 -100 -32 -187t-95.5 -157t-169.5 -111t-243 -41h-525v1323h-370zM606 193h287q182 0 272 84.5t90 228.5q0 153 -88.5 231t-246.5 78q-163 0 -314 -74v-548z" />
<glyph unicode="&#x42b;" horiz-adv-x="1857" d="M195 0v1513h202v-544h324q92 0 169.5 -18t132 -48t96.5 -72t67.5 -86t42 -93.5t22.5 -92t6 -84.5q0 -94 -32 -177.5t-94 -151t-163.5 -107t-228.5 -39.5h-544zM397 193h310q165 0 252.5 81.5t87.5 210.5q0 58 -18 108t-55.5 92t-102.5 66.5t-152 24.5h-322v-583zM1462 0 v1513h205v-1513h-205z" />
<glyph unicode="&#x42c;" horiz-adv-x="1318" d="M190 0v1513h203v-569q163 66 330 66q109 0 204.5 -33.5t168.5 -97t115 -162t42 -221.5q0 -100 -32 -187t-95.5 -157t-169 -111t-241.5 -41h-525zM393 193h287q182 0 272 84.5t90 228.5q0 153 -88.5 231t-246.5 78q-163 0 -314 -74v-548z" />
<glyph unicode="&#x42d;" horiz-adv-x="1599" d="M63 305l148 125q91 -120 223 -188t285 -68q223 0 381.5 135t187.5 353h-891v194h889q-35 214 -194.5 349.5t-374.5 135.5q-152 0 -280.5 -69.5t-217.5 -190.5l-151 127q98 150 271.5 241t381.5 91q158 0 301 -58t250 -160t170 -250.5t63 -319.5q0 -170 -62 -316 t-167.5 -246t-247.5 -156.5t-301 -56.5q-208 0 -383 90.5t-281 237.5z" />
<glyph unicode="&#x42e;" horiz-adv-x="2267" d="M190 0v1513h205v-659h219q25 193 134.5 350t278.5 246.5t364 89.5q159 0 304 -62t250.5 -167.5t167.5 -250.5t62 -304t-62 -303t-167.5 -249t-252 -167t-309.5 -62q-202 0 -371.5 89t-274.5 244.5t-126 348.5h-217v-657h-205zM821 754q0 -162 74.5 -295t205 -209 t290.5 -76q118 0 223.5 44t182 120.5t121 184.5t44.5 231q0 165 -76.5 299.5t-207 210t-287.5 75.5q-156 0 -286.5 -76.5t-207 -211t-76.5 -297.5z" />
<glyph unicode="&#x42f;" horiz-adv-x="1325" d="M76 0l370 586q-84 25 -148 72t-101.5 107.5t-55.5 128t-18 140.5q0 94 30.5 177.5t91 152t162 109t232.5 40.5h494v-1513h-203v582q-120 -23 -266 -23l-338 -559h-250zM332 1038q0 -47 8.5 -86.5t32 -77.5t61 -64t99 -42t143.5 -16q160 0 254 20v547h-268 q-171 0 -250.5 -77.5t-79.5 -203.5z" />
<glyph unicode="&#x430;" horiz-adv-x="1361" d="M84 557q0 162 71 291.5t196.5 202.5t281.5 73q234 0 387 -186v160h188v-1098h-188v156q-147 -183 -387 -183q-235 0 -392 168t-157 416zM283 549q0 -166 102.5 -280.5t269.5 -114.5q168 0 272.5 115t104.5 282q0 164 -104.5 278.5t-272.5 114.5q-167 0 -269.5 -114.5 t-102.5 -280.5z" />
<glyph unicode="&#x431;" horiz-adv-x="1370" d="M100 756q0 290 120.5 473t363.5 239q45 11 128.5 25t128 25t118 47.5t149.5 97.5l78 -178q-20 -21 -38.5 -37.5t-41.5 -31t-39 -24.5t-45 -20.5t-45 -16t-54.5 -15t-57 -13.5t-68.5 -15t-74 -16q-44 -10 -70 -16t-65 -18.5t-62.5 -25t-55.5 -33.5t-52 -45t-42.5 -59 t-36.5 -77.5t-26 -97.5t-18 -121q61 131 184.5 202.5t263.5 71.5q79 0 156.5 -23t147 -69t122.5 -110t84 -153t31 -190q0 -116 -41 -218.5t-114.5 -178t-181.5 -119t-236 -43.5q-123 0 -224.5 41t-172.5 112.5t-119.5 170.5t-71.5 214.5t-23 244.5zM352 537 q0 -99 43.5 -185.5t128 -142t191.5 -55.5q158 0 264 110t106 266q0 153 -105 261t-257 108q-96 0 -180 -44t-137.5 -128t-53.5 -190z" />
<glyph unicode="&#x432;" horiz-adv-x="1273" d="M129 614v363q0 273 141.5 439.5t391.5 166.5q213 0 335.5 -114.5t122.5 -313.5q0 -94 -58 -185.5t-149 -123.5q125 -33 200 -140t75 -260q0 -207 -140 -340t-380 -133q-266 0 -402.5 164.5t-136.5 476.5zM324 616q0 -84 12.5 -153t33 -116t50 -83t59.5 -56.5t66 -33 t65.5 -16.5t61.5 -4q146 0 231.5 84.5t85.5 216.5q0 117 -73 196.5t-222 79.5h-370v-115zM324 907h342q70 0 122 22t80.5 59.5t42 79t13.5 87.5q0 115 -67.5 181.5t-194.5 66.5q-66 0 -123.5 -24t-107 -76.5t-78.5 -149t-29 -227.5v-19z" />
<glyph unicode="&#x433;" horiz-adv-x="1013" d="M70 272q0 77 34.5 137t89 98.5t121 69t133 55t121 50t89 61t34.5 80.5q0 55 -48 91t-146 36q-145 0 -332 -63l-45 164q185 73 389 73q112 0 201 -29t146.5 -94t57.5 -159q0 -73 -34.5 -129.5t-89.5 -92t-121.5 -63.5t-133 -53t-121.5 -52t-89.5 -67.5t-34.5 -93.5 q0 -72 58.5 -106.5t156.5 -34.5q88 0 192 25t193 71l55 -162q-224 -111 -459 -111q-185 0 -301 75.5t-116 223.5z" />
<glyph unicode="&#x434;" horiz-adv-x="1363" d="M84 563q0 158 74.5 287t203 201.5t283.5 72.5q227 0 375 -170v144h194v-981q0 -289 -157 -437.5t-447 -148.5q-204 0 -430 80l43 168q204 -68 381 -68q202 0 309 91.5t107 277.5v90q-146 -172 -385 -172q-155 0 -281.5 73.5t-198 203t-71.5 288.5zM283 561 q0 -166 106 -276.5t268 -110.5q161 0 268 110.5t107 276.5t-107 275.5t-268 109.5q-162 0 -268 -109.5t-106 -275.5z" />
<glyph unicode="&#x435;" horiz-adv-x="1251" d="M86 553q0 247 154.5 409t400.5 162q234 0 382 -149.5t148 -405.5q0 -19 -6 -100h-874q24 -138 118.5 -225.5t266.5 -87.5q98 0 203 33.5t180 89.5l84 -150q-81 -64 -207.5 -109t-263.5 -45q-150 0 -266 49.5t-184 133t-102 183.5t-34 212zM291 639h678q-9 143 -101 227 t-227 84t-230 -86.5t-120 -224.5z" />
<glyph unicode="&#x436;" horiz-adv-x="1712" d="M33 4l8 150q50 -13 96 -13q19 0 33 3t26.5 8t27 19.5t26.5 27.5t33.5 43.5t39.5 56.5t53 76t66 94q32 46 72 70q-14 8 -27 19t-22.5 19.5t-21 23.5t-17.5 23t-16 26.5t-14 24.5t-13.5 28t-11 25.5t-11 27.5t-10.5 26q-14 33 -18 42.5t-16.5 35.5t-19.5 34t-21 24.5 t-27 22t-31.5 10.5t-40.5 5q-25 0 -74 -10l-28 148q59 22 125 22q91 0 151 -30t96.5 -83.5t77.5 -154.5q46 -115 58 -136q32 -58 90 -72q30 -7 71 -7h21v465h182v-465h21q22 0 40.5 2.5t33 5t27.5 11t22 13t19.5 19.5t15.5 22t15.5 29t14.5 31.5t16 39t17 42.5 q59 149 125.5 208.5t199.5 59.5q67 0 123 -22l-26 -148q-51 10 -74 10q-22 0 -40.5 -5t-31.5 -10.5t-27 -22t-21 -24.5t-19.5 -34t-16.5 -35.5t-18 -42.5q-2 -5 -13.5 -32t-15 -35t-15 -32t-18.5 -34.5t-19.5 -29.5t-24 -30.5t-27.5 -25.5t-33 -24q42 -24 74 -70 q148 -219 165 -241q50 -67 90 -80q21 -7 50 -7q44 0 94 13l10 -150q-65 -22 -129 -22q-69 0 -120 17t-97 63t-70.5 80t-74.5 115q-9 15 -14 22q-63 101 -91 130q-47 48 -102 48h-35v-461h-182v461h-33q-30 0 -54.5 -11.5t-46 -35t-39 -49t-40.5 -62.5q-8 -13 -12 -20 q-86 -134 -118 -173q-81 -98 -188 -118q-34 -6 -73 -6q-62 0 -127 22z" />
<glyph unicode="&#x437;" horiz-adv-x="1116" d="M29 -305l82 158q192 -140 387 -140q155 0 248.5 80.5t93.5 206.5q0 123 -86 191.5t-224 68.5h-247v178h168q165 0 258.5 76t93.5 193q0 110 -82 174.5t-205 64.5q-180 0 -360 -145l-105 137q88 81 217.5 133.5t263.5 52.5q201 0 334 -115.5t133 -285.5q0 -117 -67 -210 t-189 -138v-8q133 -28 215 -135.5t82 -249.5q0 -193 -144.5 -320t-381.5 -127q-261 0 -485 160z" />
<glyph unicode="&#x438;" horiz-adv-x="1296" d="M139 438v660h197v-652q0 -143 66.5 -216.5t195.5 -73.5q163 0 256.5 96.5t93.5 269.5v576h195v-1098h-187v158q-49 -81 -155 -133t-236 -52q-69 0 -129 14t-115.5 48.5t-95 86.5t-63 133t-23.5 183z" />
<glyph unicode="&#x439;" horiz-adv-x="1296" d="M139 438v660h197v-652q0 -143 66.5 -216.5t195.5 -73.5q163 0 256.5 96.5t93.5 269.5v576h195v-1098h-187v158q-49 -81 -155 -133t-236 -52q-69 0 -129 14t-115.5 48.5t-95 86.5t-63 133t-23.5 183zM285 1366l98 107q66 -80 129.5 -115t136.5 -35q76 0 140 35t129 115 l100 -107q-82 -99 -172 -144.5t-197 -45.5q-213 0 -364 190z" />
<glyph unicode="&#x43a;" horiz-adv-x="1116" d="M152 0v1550h196v-897l492 445h266l-514 -461l532 -637h-258l-413 512l-105 -94v-418h-196z" />
<glyph unicode="&#x43b;" horiz-adv-x="1161" d="M23 0l499 1098h121l496 -1098h-215l-340 801l-346 -801h-215z" />
<glyph unicode="&#x43c;" horiz-adv-x="1576" d="M152 0v1098h116l523 -684l516 684h116v-1098h-192v709l-414 -545h-57l-414 545v-709h-194z" />
<glyph unicode="&#x43d;" horiz-adv-x="1251" d="M152 0v1098h196v-457h555v457h195v-1098h-195v471h-555v-471h-196z" />
<glyph unicode="&#x43e;" horiz-adv-x="1320" d="M84 551q0 117 43 222.5t118 183.5t183.5 123.5t233.5 45.5q165 0 297.5 -78t205 -209t72.5 -288q0 -160 -72.5 -292t-204.5 -209t-298 -77t-299 77t-206 209t-73 292zM283 551q0 -164 110 -280.5t269 -116.5t268.5 116.5t109.5 280.5q0 161 -110 277t-268 116 t-268.5 -116t-110.5 -277z" />
<glyph unicode="&#x43f;" horiz-adv-x="1265" d="M152 0v1098h192v-156q50 88 140.5 136t207.5 48q87 0 164 -28.5t138 -83.5t96.5 -144.5t35.5 -203.5v-666h-194v610q0 160 -78 247t-203 87q-133 0 -218 -94t-85 -242v-608h-196z" />
<glyph unicode="&#x440;" horiz-adv-x="1372" d="M152 -453v1551h196v-166q73 92 173 142t218 50q154 0 280.5 -77.5t197.5 -209t71 -288.5q0 -158 -71 -290t-198 -209t-282 -77q-239 0 -389 187v-613h-196zM340 551q0 -167 103.5 -282t271.5 -115t272.5 115t104.5 282q0 166 -104.5 279.5t-272.5 113.5q-167 0 -271 -114 t-104 -279z" />
<glyph unicode="&#x441;" horiz-adv-x="1226" d="M84 549q0 252 165.5 413.5t424.5 161.5q162 0 298 -77.5t199 -208.5l-161 -95q-55 93 -143.5 147t-192.5 54q-168 0 -279.5 -113t-111.5 -282q0 -167 108 -280t273 -113q102 0 198 55.5t142 140.5l163 -94q-68 -127 -205 -205t-298 -78q-168 0 -300.5 73.5t-206 204.5 t-73.5 296z" />
<glyph unicode="&#x442;" horiz-adv-x="1994" d="M152 0v1098h192v-162q48 89 135.5 140t196.5 50q111 0 205.5 -53.5t138.5 -150.5q56 93 163 148.5t236 55.5q200 0 319.5 -128t119.5 -345v-653h-197v623q0 154 -71 237.5t-193 83.5q-130 0 -211.5 -90t-81.5 -236v-618h-195v618q0 153 -71 239.5t-195 86.5 q-129 0 -212 -90.5t-83 -239.5v-614h-196z" />
<glyph unicode="&#x443;" horiz-adv-x="1136" d="M25 1098h227l340 -824l295 824h217l-461 -1221q-69 -184 -161 -264t-220 -80q-108 0 -176 43l25 172q80 -33 133 -33q68 0 121 45t96 148l41 96z" />
<glyph unicode="&#x444;" horiz-adv-x="1681" d="M84 549q0 172 87 302.5t237.5 200t343.5 72.5v426h178v-426q193 -4 343.5 -73.5t237 -200.5t86.5 -303q0 -169 -84.5 -298t-235 -199.5t-347.5 -74.5v-434h-178v434q-303 6 -485.5 162.5t-182.5 411.5zM268 551q0 -192 133.5 -299.5t350.5 -110.5v813 q-222 -3 -353 -108.5t-131 -294.5zM930 141q219 3 350 112t131 300q0 187 -129.5 292.5t-351.5 108.5v-813z" />
<glyph unicode="&#x445;" horiz-adv-x="1042" d="M16 0l387 569l-348 529h228l243 -385l248 385h232l-369 -543l377 -555h-228l-266 412l-266 -412h-238z" />
<glyph unicode="&#x446;" horiz-adv-x="1386" d="M139 438v660h197v-652q0 -143 66.5 -216.5t195.5 -73.5q163 0 256.5 96.5t93.5 269.5v576h195v-836q0 -41 18.5 -68.5t53 -41t71.5 -18.5t86 -5v-498h-180v355q-90 0 -155.5 56t-71.5 130q-43 -85 -156 -142t-244 -57q-69 0 -129 14t-115.5 48.5t-95 86.5t-63 133 t-23.5 183z" />
<glyph unicode="&#x447;" horiz-adv-x="1146" d="M84 745v353h195v-338q0 -134 63.5 -192t187.5 -58q150 0 269 39v549h196v-1098h-196v371q-150 -41 -283 -41q-207 0 -319.5 98t-112.5 317z" />
<glyph unicode="&#x448;" horiz-adv-x="1976" d="M139 438v660h197v-633q0 -309 250 -309q139 0 219 96t80 268v578h194v-652q0 -140 64.5 -215t183.5 -75q139 0 220 101.5t81 262.5v578h197v-1098h-185v158q-45 -80 -144.5 -132.5t-211.5 -52.5q-111 0 -201.5 51.5t-132.5 153.5q-52 -104 -158.5 -154.5t-230.5 -50.5 q-64 0 -122 14t-114 48.5t-96.5 86.5t-65 133t-24.5 183z" />
<glyph unicode="&#x449;" horiz-adv-x="2068" d="M139 438v660h197v-633q0 -309 250 -309q139 0 219 96t80 268v578h194v-652q0 -140 64 -215t182 -75q140 0 221.5 100.5t81.5 263.5v578h197v-836q0 -41 17.5 -68.5t51 -41t69.5 -18.5t85 -5v-498h-178v355q-91 0 -154 55.5t-71 130.5q-43 -86 -143.5 -142.5t-225.5 -56.5 q-112 0 -199 51t-127 152q-52 -102 -159.5 -152.5t-227.5 -50.5q-82 0 -154 24t-134.5 75.5t-99 145.5t-36.5 220z" />
<glyph unicode="&#x44a;" horiz-adv-x="1316" d="M20 920v178h482v-297q127 82 284 82q201 0 330 -130t129 -327q0 -89 -28.5 -168t-84.5 -144t-150.5 -103t-215.5 -38q-81 0 -148.5 18t-114.5 47.5t-82.5 72t-56.5 87t-34.5 96.5t-18 96t-4.5 91v439h-287zM502 475q0 -323 268 -323q136 0 207.5 78.5t71.5 199.5 q0 122 -73.5 198.5t-209.5 76.5q-148 0 -264 -89v-141z" />
<glyph unicode="&#x44b;" horiz-adv-x="1550" d="M152 0v1098h194v-371h268q101 0 180.5 -23t127.5 -59t79 -85t42.5 -96.5t11.5 -98.5q0 -71 -25.5 -135t-75.5 -116t-135 -83t-194 -31h-473zM346 168h256q137 0 197.5 56t60.5 145q0 78 -58.5 134t-185.5 56h-270v-391zM1202 0v1098h195v-1098h-195z" />
<glyph unicode="&#x44c;" horiz-adv-x="1146" d="M137 481v617h197v-295q128 80 282 80q202 0 331.5 -130t129.5 -327q0 -89 -28.5 -168t-84.5 -144t-150.5 -103t-215.5 -38q-82 0 -150 18t-114.5 47.5t-82.5 72t-57 87t-34.5 96.5t-18 96t-4.5 91zM334 475q0 -323 266 -323q136 0 208.5 78.5t72.5 199.5 q0 122 -73.5 198.5t-209.5 76.5q-147 0 -264 -87v-143z" />
<glyph unicode="&#x44d;" horiz-adv-x="1234" d="M63 838q66 134 204.5 210t305.5 76q251 0 414.5 -162t163.5 -413q0 -250 -160.5 -412t-408.5 -162q-173 0 -310 79t-202 204l159 94q48 -85 144.5 -140.5t206.5 -55.5q137 0 238.5 86.5t127.5 222.5h-473v172h473q-28 136 -132 222.5t-245 86.5q-112 0 -201 -55.5 t-145 -147.5z" />
<glyph unicode="&#x44e;" horiz-adv-x="1728" d="M152 0v1550h196v-923h148q27 215 185.5 357t387.5 142q165 0 298 -78t205.5 -209t72.5 -288q0 -120 -43 -226t-118 -184t-183 -123t-232 -45q-226 0 -383 137.5t-188 348.5h-150v-459h-196zM690 551q0 -164 110 -280.5t269 -116.5t269 116.5t110 280.5q0 161 -110.5 277 t-268.5 116t-268.5 -116t-110.5 -277z" />
<glyph unicode="&#x44f;" horiz-adv-x="1134" d="M63 0l297 422q-125 36 -188 125.5t-63 200.5q0 69 25.5 130t76.5 111t138 79.5t200 29.5h432v-1098h-195v416q-92 -15 -229 -15l-268 -401h-226zM303 750q0 -185 260 -185q135 0 223 15v350h-235q-126 0 -187 -47t-61 -133z" />
<glyph unicode="&#x451;" horiz-adv-x="1251" d="M86 553q0 247 154.5 409t400.5 162q234 0 382 -149.5t148 -405.5q0 -19 -6 -100h-874q24 -138 118.5 -225.5t266.5 -87.5q98 0 203 33.5t180 89.5l84 -150q-81 -64 -207.5 -109t-263.5 -45q-150 0 -266 49.5t-184 133t-102 183.5t-34 212zM291 639h678q-9 143 -101 227 t-227 84t-230 -86.5t-120 -224.5zM307 1356q0 57 41.5 96t102.5 39q57 0 97 -39t40 -96q0 -62 -39.5 -103t-97.5 -41q-62 0 -103 40.5t-41 103.5zM715 1356q0 57 40.5 96t100.5 39q59 0 99 -39t40 -96q0 -62 -40 -103t-99 -41q-60 0 -100.5 40.5t-40.5 103.5z" />
<glyph unicode="&#x2000;" horiz-adv-x="960" />
<glyph unicode="&#x2001;" horiz-adv-x="1921" />
<glyph unicode="&#x2002;" horiz-adv-x="960" />
<glyph unicode="&#x2003;" horiz-adv-x="1921" />
<glyph unicode="&#x2004;" horiz-adv-x="640" />
<glyph unicode="&#x2005;" horiz-adv-x="480" />
<glyph unicode="&#x2006;" horiz-adv-x="320" />
<glyph unicode="&#x2007;" horiz-adv-x="320" />
<glyph unicode="&#x2008;" horiz-adv-x="240" />
<glyph unicode="&#x2009;" horiz-adv-x="384" />
<glyph unicode="&#x200a;" horiz-adv-x="106" />
<glyph unicode="&#x2010;" d="M135 475v184h791v-184h-791z" />
<glyph unicode="&#x2011;" d="M135 475v184h791v-184h-791z" />
<glyph unicode="&#x2012;" d="M135 475v184h791v-184h-791z" />
<glyph unicode="&#x2013;" horiz-adv-x="1466" d="M135 475v184h1196v-184h-1196z" />
<glyph unicode="&#x2014;" horiz-adv-x="2119" d="M135 475v184h1850v-184h-1850z" />
<glyph unicode="&#x2018;" horiz-adv-x="483" d="M88 1223q0 176 254 338l61 -88q-46 -35 -69.5 -54t-50.5 -47.5t-41 -54.5h8q46 0 79 -35t33 -84q0 -53 -39 -90t-94 -37q-60 0 -100.5 43.5t-40.5 108.5z" />
<glyph unicode="&#x2019;" horiz-adv-x="479" d="M92 1155q65 48 103.5 83t58.5 71h-8q-46 0 -79.5 34.5t-33.5 83.5q0 53 39 90t94 37q62 0 102 -42.5t40 -108.5q0 -174 -254 -336z" />
<glyph unicode="&#x201a;" horiz-adv-x="495" d="M70 -178q65 48 103 82.5t58 70.5h-8q-46 0 -79 35t-33 84q0 53 39 90t94 37q62 0 101.5 -42.5t39.5 -108.5q0 -174 -254 -336z" />
<glyph unicode="&#x201c;" horiz-adv-x="974" d="M96 1223q0 176 254 338l62 -88q-48 -37 -70 -55t-50 -46.5t-42 -54.5h8q46 0 79.5 -35t33.5 -84q0 -53 -39 -90t-94 -37q-60 0 -101 44t-41 108zM580 1223q0 176 254 338l61 -88q-48 -37 -70 -55t-50 -46.5t-42 -54.5h8q46 0 79.5 -35t33.5 -84q0 -53 -39 -90t-94 -37 q-60 0 -100.5 43.5t-40.5 108.5z" />
<glyph unicode="&#x201d;" horiz-adv-x="954" d="M86 1161q48 37 70 55t50 46.5t42 54.5h-8q-46 0 -79.5 35t-33.5 84q0 53 39 90t94 37q60 0 100.5 -43.5t40.5 -108.5q0 -176 -254 -338zM565 1161q48 37 70 55t50 46.5t42 54.5h-8q-46 0 -79.5 35t-33.5 84q0 53 39 90t94 37q60 0 101 -44t41 -108q0 -176 -254 -338z" />
<glyph unicode="&#x201e;" horiz-adv-x="964" d="M61 -182q51 39 71 55t48.5 45t42.5 55h-8q-46 0 -79.5 35t-33.5 84q0 53 39.5 90t94.5 37q60 0 100.5 -43.5t40.5 -107.5q0 -176 -254 -338zM541 -182q48 37 70 54.5t49.5 46t41.5 54.5h-8q-46 0 -79 35t-33 84q0 53 39 90t94 37q60 0 100.5 -43.5t40.5 -107.5 q0 -176 -254 -338z" />
<glyph unicode="&#x2026;" horiz-adv-x="1429" d="M104 100q0 54 38 90.5t94 36.5t93.5 -36.5t37.5 -90.5q0 -58 -37.5 -95.5t-93.5 -37.5t-94 37.5t-38 95.5zM582 100q0 54 37.5 90.5t93.5 36.5t93.5 -36.5t37.5 -90.5q0 -58 -37.5 -95.5t-93.5 -37.5t-93.5 37.5t-37.5 95.5zM1061 100q0 54 37.5 90.5t93.5 36.5 t93.5 -36.5t37.5 -90.5q0 -58 -37.5 -95.5t-93.5 -37.5t-93.5 37.5t-37.5 95.5z" />
<glyph unicode="&#x202f;" horiz-adv-x="384" />
<glyph unicode="&#x2039;" horiz-adv-x="677" d="M84 596l291 416h194l-293 -416l293 -416h-194z" />
<glyph unicode="&#x203a;" horiz-adv-x="677" d="M109 180l292 416l-292 416h194l291 -416l-291 -416h-194z" />
<glyph unicode="&#x205f;" horiz-adv-x="480" />
<glyph unicode="&#x20ac;" horiz-adv-x="1531" d="M66 522l69 164h115q-2 23 -2 70q0 46 2 69h-170l70 164h129q69 250 264 400.5t448 150.5q128 0 250 -37t217 -104l-94 -162q-163 119 -360 119q-169 0 -307.5 -101t-200.5 -266h786l-74 -164h-751q-4 -46 -4 -71q0 -22 4 -68h706l-63 -164h-606q62 -163 198 -261.5 t307 -98.5q191 0 392 110v-194q-181 -101 -400 -101q-250 0 -445.5 150t-264.5 395h-215z" />
<glyph unicode="&#x2122;" horiz-adv-x="1671" d="M72 1397v116h546v-116h-202v-600h-142v600h-202zM694 797v716h60l344 -436l350 436h57v-716h-131v428l-254 -318h-43l-250 316v-426h-133z" />
<glyph unicode="&#x25fc;" horiz-adv-x="1095" d="M0 0v1096h1096v-1096h-1096z" />
</font>
</defs>
</svg>
