<?xml version="1.0" standalone="no"?>
<!DOCTYPE svg PUBLIC "-//W3C//DTD SVG 1.1//EN" "http://www.w3.org/Graphics/SVG/1.1/DTD/svg11.dtd" >
<svg xmlns="http://www.w3.org/2000/svg" xmlns:xlink="http://www.w3.org/1999/xlink" version="1.1">
<metadata></metadata>
<defs>
<font id="axiformabold_italic" horiz-adv-x="1085" >
<font-face units-per-em="2048" ascent="1638" descent="-410" />
<missing-glyph horiz-adv-x="512" />
<glyph horiz-adv-x="0" />
<glyph horiz-adv-x="682" />
<glyph unicode="&#xd;" horiz-adv-x="266" />
<glyph unicode=" "  horiz-adv-x="512" />
<glyph unicode="&#x09;" horiz-adv-x="512" />
<glyph unicode="&#xa0;" horiz-adv-x="512" />
<glyph unicode="!" horiz-adv-x="661" d="M117 145q9 71 62 116.5t124 45.5q75 0 117.5 -51t30.5 -123q-12 -70 -65.5 -114t-121.5 -44q-72 0 -114.5 48.5t-32.5 121.5zM195 420l149 1122h305l-186 -1122h-268z" />
<glyph unicode="&#x22;" horiz-adv-x="1132" d="M139 877l275 632h338l-332 -632h-281zM657 877l275 632h338l-332 -632h-281z" />
<glyph unicode="#" horiz-adv-x="1525" d="M55 367l84 241h209l111 312h-215l82 239h217l127 354h276l-123 -354h262l123 354h277l-121 -354h207l-82 -239h-205l-106 -312h206l-81 -241h-207l-125 -367h-289l127 367h-262l-127 -367h-289l131 367h-207zM631 608h262l108 312h-262z" />
<glyph unicode="$" horiz-adv-x="1214" d="M37 287l225 186q47 -100 129.5 -155.5t181.5 -55.5q91 0 153 46t73 116q7 49 -18.5 87t-84.5 75q-26 16 -131.5 71t-154.5 88q-208 145 -172 383q23 158 134 264.5t281 137.5l35 196h277l-35 -202q180 -42 303 -191l-195 -213q-132 140 -284 140q-83 0 -138.5 -41 t-64.5 -107q-6 -52 23.5 -88.5t99.5 -75.5q16 -9 71 -38.5t85.5 -46t72 -41t66.5 -42.5q100 -70 138.5 -167.5t22.5 -209.5q-25 -166 -144.5 -274.5t-291.5 -140.5l-39 -217h-276l37 215q-125 27 -222.5 102.5t-156.5 198.5z" />
<glyph unicode="%" horiz-adv-x="1845" d="M162 0l1327 1513h289l-1329 -1513h-287zM176 1169q23 155 151 263t287 108q164 0 262.5 -113t75.5 -272q-25 -156 -152 -261.5t-286 -105.5q-165 0 -264 112t-74 269zM389 1159q-12 -72 29.5 -120t113.5 -48q75 0 136 51.5t71 124.5q10 72 -32 121t-113 49 q-75 0 -135 -51.5t-70 -126.5zM997 354q23 156 151 263.5t286 107.5q165 0 265 -114t75 -273q-23 -154 -151 -258.5t-288 -104.5q-165 0 -264 111.5t-74 267.5zM1212 344q-12 -71 29 -119.5t113 -48.5q76 0 136.5 51t72.5 125q9 73 -33.5 121.5t-114.5 48.5 q-74 0 -133.5 -51.5t-69.5 -126.5z" />
<glyph unicode="&#x26;" horiz-adv-x="1439" d="M72 444q10 75 41 140.5t79.5 116.5t99 89t114.5 74q-72 150 -48 297q26 159 155.5 268t320.5 109q164 0 266 -103.5t80 -244.5q-9 -60 -39.5 -113t-61.5 -87t-96.5 -75.5t-101.5 -60t-119 -58.5q-7 -3 -10 -5q18 -23 63 -68l229 -231q101 93 193 208l160 -153 q-81 -97 -193 -217l187 -189l-187 -174l-182 193q-238 -180 -492 -180q-229 0 -356 132t-102 332zM358 442q-11 -94 48 -156.5t172 -62.5q134 0 282 109l-254 266q-36 36 -71 80q-162 -104 -177 -236zM602 1135q-15 -84 23 -164q56 24 87 38t74.5 38t67 44t43.5 48t25 59 q8 54 -24.5 88.5t-92.5 34.5q-74 0 -131 -51t-72 -135z" />
<glyph unicode="'" horiz-adv-x="610" d="M137 877l275 632h338l-332 -632h-281z" />
<glyph unicode="(" horiz-adv-x="856" d="M98 633q53 341 256.5 602t544.5 424l100 -234q-510 -301 -587 -823q-40 -259 43 -464t290 -367l-159 -220q-288 178 -414 455.5t-74 626.5z" />
<glyph unicode=")" horiz-adv-x="856" d="M-92 -223q255 159 403 362t187 467q75 514 -336 826l149 223q292 -163 422 -450.5t76 -639.5q-51 -344 -256 -607.5t-537 -412.5z" />
<glyph unicode="*" horiz-adv-x="1009" d="M186 1225l113 188l231 -123l39 293h219l-57 -291l268 121l58 -190l-291 -119l166 -213l-170 -139l-166 235l-236 -235l-145 139l221 213z" />
<glyph unicode="+" horiz-adv-x="1177" d="M88 575l41 273h389l57 387h271l-58 -387h386l-41 -273h-385l-58 -385l-270 -4l57 389h-389z" />
<glyph unicode="," horiz-adv-x="536" d="M-55 -209q67 46 93.5 64.5t68.5 54.5t65 67q-59 5 -96.5 53.5t-30.5 112.5q8 66 59 110t121 44q83 0 131.5 -62.5t36.5 -154.5q-27 -208 -366 -414z" />
<glyph unicode="-" d="M123 432l41 270h842l-41 -270h-842z" />
<glyph unicode="." horiz-adv-x="507" d="M41 145q9 71 62 116.5t126 45.5q74 0 116 -50.5t30 -123.5q-12 -70 -65.5 -114t-121.5 -44q-72 0 -114.5 48.5t-32.5 121.5z" />
<glyph unicode="/" horiz-adv-x="1374" d="M-70 -252l1276 1942h322l-1276 -1942h-322z" />
<glyph unicode="0" horiz-adv-x="1409" d="M126 568q-4 101 15 208q25 158 83.5 294t146.5 242t214.5 167t276.5 61q103 0 188 -30t144 -83t101 -127.5t60.5 -163.5t22 -189.5t-15.5 -207.5q-23 -157 -80 -292.5t-144.5 -242t-214.5 -168t-278 -61.5q-103 0 -188.5 29.5t-144.5 83t-102 127.5t-61.5 163t-22.5 190z M428.5 564.5q5.5 -90.5 30.5 -158t78.5 -107t130.5 -39.5q79 0 147.5 40.5t116.5 111t80.5 158.5t48.5 190q12 78 13 148.5t-12 134.5t-40 110.5t-74.5 74t-111.5 27.5q-154 0 -255.5 -137t-138.5 -362q-19 -101 -13.5 -191.5z" />
<glyph unicode="1" horiz-adv-x="856" d="M100 1139l518 374h232l-225 -1513h-297l161 1098l-251 -174z" />
<glyph unicode="2" horiz-adv-x="1196" d="M39 0l35 252l547 496q117 106 153 145q85 95 96 182q10 82 -40.5 131t-139.5 49q-163 0 -368 -174l-148 228q130 117 273.5 174t281.5 57q224 0 353.5 -136.5t97.5 -342.5q-34 -218 -353 -502l-313 -280h563l-43 -279h-995z" />
<glyph unicode="3" horiz-adv-x="1157" d="M-8 131l149 236q169 -113 332 -113q121 0 199 51.5t90 138.5q12 83 -42.5 136t-160.5 53h-205l41 270h172q105 0 176 51t82 131q12 80 -38.5 125t-143.5 45q-155 0 -334 -116l-119 225q101 81 241 128.5t278 47.5q208 0 328 -122.5t93 -291.5q-17 -115 -98.5 -201 t-206.5 -128q140 -37 200.5 -139.5t39.5 -239.5q-29 -198 -195 -320.5t-409 -122.5t-469 156z" />
<glyph unicode="4" horiz-adv-x="1261" d="M27 547l934 966h219l-136 -909h164l-37 -252h-163l-54 -352h-282l51 352h-664zM385 604h377l67 469z" />
<glyph unicode="5" horiz-adv-x="1204" d="M18 150l146 233q166 -129 352 -129q130 0 217 69.5t103 172.5q14 95 -47.5 157t-170.5 62q-146 0 -270 -103l-155 144l137 757h833l-41 -278h-590l-51 -299q95 39 211 39q103 0 191.5 -35.5t150.5 -99t90.5 -158.5t12.5 -207q-31 -220 -205.5 -360t-425.5 -140 q-272 0 -488 175z" />
<glyph unicode="6" horiz-adv-x="1284" d="M123 530q-6 94 10 195q18 127 59 244.5t107.5 222t152 181.5t199.5 122t242 45q232 0 399 -139l-153 -219q-111 88 -260 88q-167 0 -283.5 -126.5t-157.5 -328.5q130 162 353 162q210 0 331 -143.5t90 -356.5q-31 -212 -195.5 -353.5t-391.5 -141.5q-94 0 -174 27 t-137.5 76t-100.5 117.5t-63.5 151t-26.5 176.5zM438 487q-18 -102 38.5 -173.5t160.5 -71.5q102 0 181.5 70t96.5 175q15 105 -43 171.5t-159 66.5q-103 0 -181.5 -68.5t-93.5 -169.5z" />
<glyph unicode="7" horiz-adv-x="1073" d="M92 0l715 1235h-643l41 278h987l-29 -208l-737 -1305h-334z" />
<glyph unicode="8" horiz-adv-x="1302" d="M82 436q19 127 108.5 222.5t239.5 148.5q-97 53 -143.5 141.5t-26.5 198.5q29 175 183 284t372 109q225 0 349.5 -118t97.5 -294q-34 -209 -275 -325q126 -57 184.5 -162.5t38.5 -234.5q-32 -193 -205 -312t-419 -119q-255 0 -394.5 131t-109.5 330zM387 451 q-15 -91 48.5 -150t178.5 -59q117 0 202.5 58.5t98.5 152.5q12 87 -51.5 146.5t-179.5 59.5q-121 0 -203 -58.5t-94 -149.5zM528 1104q-12 -80 41.5 -134.5t153.5 -54.5t170.5 53.5t85.5 135.5q14 79 -42 133.5t-155 54.5q-100 0 -171 -52.5t-83 -135.5z" />
<glyph unicode="9" horiz-adv-x="1273" d="M98 111l123 223q47 -40 119 -66t152 -26q162 0 273.5 117.5t168.5 316.5q-136 -133 -338 -133q-144 0 -248.5 67t-150.5 184t-27 261q28 216 182.5 350.5t382.5 134.5q99 0 181 -28.5t140.5 -79.5t102 -122t63.5 -156.5t25.5 -182.5t-10.5 -201q-21 -159 -78.5 -299.5 t-147.5 -252.5t-222.5 -177.5t-290.5 -65.5q-119 0 -223.5 35.5t-176.5 100.5zM455 1034q-12 -103 46.5 -171t160.5 -68q104 0 183 70.5t91 174.5q12 102 -48.5 172t-162.5 70t-179.5 -70.5t-90.5 -177.5z" />
<glyph unicode=":" horiz-adv-x="569" d="M72 145q9 71 62 116.5t126 45.5q74 0 116 -50.5t30 -123.5q-12 -70 -65.5 -114t-121.5 -44q-72 0 -114.5 48.5t-32.5 121.5zM180 881q9 71 62.5 116t126.5 45q74 0 115.5 -50.5t29.5 -123.5q-12 -70 -65 -113.5t-121 -43.5q-73 0 -115.5 48.5t-32.5 121.5z" />
<glyph unicode=";" horiz-adv-x="612" d="M-16 -209q67 46 93.5 64.5t68.5 54.5t65 67q-59 5 -96.5 53.5t-30.5 112.5q8 66 59 110t121 44q83 0 131.5 -62.5t36.5 -154.5q-27 -208 -366 -414zM203 883q10 73 65 119.5t129 46.5q76 0 119 -52.5t29 -126.5q-12 -72 -66.5 -116.5t-124.5 -44.5q-74 0 -117.5 49.5 t-33.5 124.5z" />
<glyph unicode="&#x3c;" horiz-adv-x="1140" d="M82 543l35 248l1009 446l-39 -287l-679 -280l591 -283l-41 -293z" />
<glyph unicode="=" horiz-adv-x="1208" d="M119 352l37 240h946l-37 -240h-946zM178 750l37 239h946l-37 -239h-946z" />
<glyph unicode="&#x3e;" horiz-adv-x="1112" d="M70 80l39 293l647 282l-559 279l41 289l862 -463l-29 -217z" />
<glyph unicode="?" horiz-adv-x="1126" d="M182 1343q109 116 247.5 182t287.5 66q215 0 339 -129t95 -315q-11 -70 -42.5 -130.5t-73.5 -104.5t-90.5 -84t-97 -76t-89.5 -72.5t-70 -82t-37 -95.5l-14 -103h-279l23 152q10 65 38.5 121t67.5 96t84.5 76.5t90.5 69t83 65.5t65 74.5t34 87.5q12 82 -35.5 130 t-132.5 48q-81 0 -171 -48t-169 -128zM297 143q9 69 62.5 115.5t125.5 46.5q75 0 117.5 -51t28.5 -123q-10 -69 -63 -113.5t-122 -44.5q-72 0 -115 48.5t-34 121.5z" />
<glyph unicode="@" horiz-adv-x="1978" d="M106 600q26 193 119 362.5t232.5 291t324 192t385.5 70.5q192 0 352 -68t262 -182t148 -267.5t21 -320.5q-35 -232 -180.5 -385.5t-323.5 -153.5q-95 0 -151.5 42t-77.5 108q-62 -73 -146.5 -111.5t-177.5 -38.5q-180 0 -284 130.5t-74 326.5q28 184 162.5 310t312.5 126 q85 0 154 -32.5t110 -94.5l14 96h221l-82 -534q-10 -62 9 -92.5t57 -30.5q72 0 147 103t97 251q20 132 -16 248t-115 197t-197 127t-256 45q-208 -2 -389 -98t-299 -265t-143 -377q-19 -153 20 -287t122.5 -229t210 -149.5t277.5 -54.5q150 0 303 51.5t279 138.5l84 -176 q-117 -89 -305 -153t-381 -64q-200 0 -367.5 75t-276 202t-158.5 302t-24 369zM760 573q-12 -97 39.5 -162t148.5 -65q102 0 182.5 74t94.5 176q13 102 -41.5 167.5t-147.5 65.5q-99 0 -181 -74t-95 -182z" />
<glyph unicode="A" horiz-adv-x="1425" d="M-51 0l803 1513h247l344 -1513h-317l-63 328h-527l-166 -328h-321zM563 598h355l-101 504z" />
<glyph unicode="B" horiz-adv-x="1417" d="M104 0l226 1513h647q109 0 191 -33.5t126 -88.5t62 -121q12 -42 11 -86q0 -24 -3 -49q-14 -105 -82 -188t-172 -120q132 -34 191 -141q44 -79 43 -177q0 -35 -5 -73q-13 -93 -56 -171.5t-112.5 -138t-170.5 -93t-222 -33.5h-674zM442 266h297q138 0 208.5 58.5 t82.5 144.5q2 16 2 31q0 61 -38 108q-48 58 -156 58h-336zM541 920h290q97 0 155.5 52t68.5 120q1 11 1 22q0 52 -32 90q-40 46 -125 45h-309z" />
<glyph unicode="C" horiz-adv-x="1566" d="M125 770q22 175 104 321.5t202.5 244t270.5 151t310 53.5q207 0 364.5 -86.5t251.5 -232.5l-227 -193q-143 221 -406 221q-209 0 -365.5 -134t-185.5 -351q-6 -44 -6 -84q0 -159 94 -269q118 -137 324 -137q131 0 253 60.5t224 167.5l187 -205q-129 -144 -314.5 -232 t-392.5 -88q-165 0 -302.5 57.5t-231 159.5t-135.5 252q-27 97 -27 203q0 59 8 121z" />
<glyph unicode="D" horiz-adv-x="1576" d="M104 0l226 1513h555q355 0 527 -207q134 -162 134 -415q0 -71 -10 -148q-48 -347 -264.5 -545t-562.5 -198h-605zM451 291h266q110 0 201.5 38t153 104.5t100.5 151.5t53 185q6 47 6 90q-1 44 -7 86q-14 82 -53.5 144t-113 97.5t-172.5 35.5h-295z" />
<glyph unicode="E" horiz-adv-x="1304" d="M104 0l226 1513h1026l-43 -282h-721l-49 -326h667l-41 -282h-667l-51 -340h720l-41 -283h-1026z" />
<glyph unicode="F" horiz-adv-x="1234" d="M104 0l226 1513h1009l-43 -286h-706l-51 -340h620l-43 -285h-618l-90 -602h-304z" />
<glyph unicode="G" horiz-adv-x="1658" d="M133 784q33 228 162.5 401.5t321 264t413.5 90.5q190 0 342 -69.5t244 -180.5l-217 -207q-66 80 -166.5 123t-218.5 43q-143 0 -265.5 -59.5t-205.5 -173t-103 -260.5q-6 -40 -6 -79q0 -87 30 -164q43 -111 144.5 -178t241.5 -67q124 0 238 46t194 124l31 197h-418 l41 264h694l-88 -625q-157 -145 -342.5 -221t-382.5 -76q-169 0 -309 61t-231 167.5t-131 256.5q-23 91 -23 189q0 65 10 133z" />
<glyph unicode="H" horiz-adv-x="1576" d="M104 0l226 1513h303l-90 -604h633l92 604h303l-225 -1513h-304l91 616h-633l-92 -616h-304z" />
<glyph unicode="I" horiz-adv-x="641" d="M104 0l226 1513h305l-225 -1513h-306z" />
<glyph unicode="J" horiz-adv-x="1196" d="M-33 190l168 226q62 -71 140 -109.5t161 -38.5q132 0 220 94t110 244l137 907h303l-137 -925q-23 -155 -81 -274t-142 -192t-185.5 -110t-218.5 -37q-289 0 -475 215z" />
<glyph unicode="K" horiz-adv-x="1425" d="M104 0l226 1513h303l-105 -702l676 702h369l-660 -688l473 -825h-370l-332 600l-221 -225l-55 -375h-304z" />
<glyph unicode="L" horiz-adv-x="1269" d="M104 0l226 1513h305l-182 -1222h768l-43 -291h-1074z" />
<glyph unicode="M" horiz-adv-x="1923" d="M104 0l226 1513h198l465 -858l719 858h205l-225 -1513h-303l129 858l-535 -633h-104l-349 633l-127 -858h-299z" />
<glyph unicode="N" horiz-adv-x="1626" d="M104 0l226 1513h192l658 -935l141 935h299l-225 -1513h-205l-647 928l-140 -928h-299z" />
<glyph unicode="O" horiz-adv-x="1736" d="M131 768q31 220 161 397.5t324 276t412 98.5q170 0 309.5 -63t227.5 -171t126 -252q24 -90 24 -186q0 -58 -9 -118q-24 -161 -106 -304.5t-200.5 -247t-272.5 -163.5t-318 -60q-168 0 -307 62.5t-227.5 169.5t-127.5 253q-25 92 -25 190q0 58 9 118zM444 750 q-6 -42 -7 -81q0 -88 32 -164q45 -109 141.5 -170t225.5 -61q130 0 249 61.5t202.5 174t105.5 252.5q7 45 7 88q0 148 -88 254q-113 136 -313 137q-133 0 -252.5 -62.5t-201 -175.5t-101.5 -253z" />
<glyph unicode="P" horiz-adv-x="1308" d="M104 0l226 1513h540q97 0 175.5 -20t132 -54.5t93 -82.5t57.5 -104q16 -56 24 -118q3 -27 4 -54q0 -36 -6 -72q-11 -84 -39.5 -155.5t-80 -133t-123 -105t-171.5 -68t-221 -24.5h-230l-77 -522h-304zM526 797h201q141 0 220 62t93 163q2 17 2 33q0 71 -40 119 q-48 60 -150 59h-260z" />
<glyph unicode="Q" horiz-adv-x="1736" d="M131 768q31 220 161 397.5t324 276t412 98.5q170 0 309.5 -63t227.5 -170.5t126 -252.5q24 -90 24 -186q0 -58 -9 -118q-38 -251 -204 -446.5t-404 -278.5q87 -84 235 -84q104 0 238 41l16 -252q-136 -47 -280 -47q-166 0 -305.5 72t-229.5 220q-213 9 -371 117.5 t-229 286.5q-50 125 -50 267q0 59 9 122zM444 750q-6 -42 -6 -81q0 -89 31 -164q45 -109 141.5 -170t225.5 -61q130 0 249 61.5t202.5 174t105.5 252.5q7 45 7 88q0 148 -88 254q-113 137 -313 137q-133 0 -252.5 -62.5t-201 -175.5t-101.5 -253z" />
<glyph unicode="R" horiz-adv-x="1382" d="M104 0l226 1513h561q107 0 192 -27.5t139 -74t88 -109t44 -130.5q6 -37 6 -76q0 -33 -4 -66q-10 -74 -36 -140.5t-70 -126.5t-111.5 -106.5t-153.5 -72.5l277 -584h-355l-239 551h-179l-81 -551h-304zM530 823h222q139 0 208.5 58t81.5 151q3 20 3 38q0 62 -35 106 q-45 56 -144 57h-274z" />
<glyph unicode="S" horiz-adv-x="1224" d="M29 287l227 186q49 -101 134.5 -156t189.5 -55q93 0 157.5 46.5t73.5 115.5q1 11 1 21q0 38 -20 67q-26 37 -87 74q-26 16 -134.5 70.5t-158.5 88.5q-186 126 -186 318q0 32 5 65q28 187 180 299.5t375 112.5q287 0 465 -207l-198 -213q-135 140 -293 140q-86 0 -143 -41 t-66 -107q-1 -9 -1 -17q0 -41 26 -73q30 -38 100 -74q26 -14 96.5 -50.5t123 -65.5t85.5 -52q103 -70 143 -168q29 -70 29 -147q0 -30 -4 -62q-21 -134 -107.5 -233t-212 -148t-272.5 -49q-176 0 -315 79.5t-213 234.5z" />
<glyph unicode="T" horiz-adv-x="1228" d="M147 1221l43 292h1172l-45 -292h-430l-185 -1221h-305l183 1221h-433z" />
<glyph unicode="U" horiz-adv-x="1484" d="M170 360q-8 47 -9 101q0 61 11 129l141 923h305l-141 -927q-7 -46 -7 -85q0 -99 46 -155q64 -78 189 -78q135 0 228 83.5t116 240.5l139 921h307l-141 -931q-24 -158 -88.5 -277.5t-156.5 -190.5t-199.5 -106t-227.5 -35q-99 0 -183.5 23t-154 70.5t-113 120.5t-61.5 173 z" />
<glyph unicode="V" horiz-adv-x="1511" d="M170 1513h348l244 -1046l555 1046h346l-848 -1513h-242z" />
<glyph unicode="W" horiz-adv-x="2181" d="M174 1513h332l151 -1017l496 1017h195l196 -1017l455 1017h332l-725 -1513h-256l-174 991l-469 -991h-256z" />
<glyph unicode="X" horiz-adv-x="1370" d="M-55 0l600 766l-342 747h350l215 -518l387 518h361l-590 -747l358 -766h-348l-236 530l-397 -530h-358z" />
<glyph unicode="Y" horiz-adv-x="1390" d="M186 1513h351l219 -663l426 663h352l-672 -989l-80 -524h-303l80 524z" />
<glyph unicode="Z" horiz-adv-x="1333" d="M8 0l29 217l901 1016h-717l41 280h1135l-31 -225l-885 -1007h754l-41 -281h-1186z" />
<glyph unicode="[" horiz-adv-x="833" d="M23 -465l317 2126h637l-39 -256h-342l-242 -1614h342l-37 -256h-636z" />
<glyph unicode="\" horiz-adv-x="1353" d="M229 1690h310l673 -1942h-305z" />
<glyph unicode="]" horiz-adv-x="833" d="M-92 -465l37 256h342l241 1614h-342l39 256h637l-317 -2126h-637z" />
<glyph unicode="^" horiz-adv-x="1110" d="M135 883l492 680h192l287 -680h-279l-143 385l-260 -385h-289z" />
<glyph unicode="_" horiz-adv-x="1210" d="M-123 -391l39 266h1210l-39 -266h-1210z" />
<glyph unicode="`" horiz-adv-x="798" d="M260 1630h318l71 -360h-250z" />
<glyph unicode="a" horiz-adv-x="1388" d="M94 586q24 166 114 294t224 196.5t289 68.5q217 0 346 -168l20 139h275l-168 -1116h-272l18 133q-163 -160 -377 -160q-124 0 -223 49.5t-158 133.5q-58 84 -82 196q-13 63 -14 129q0 52 8 105zM389 584q-7 -37 -7 -72q0 -50 14 -97q24 -79 90 -129t161 -50q136 0 237 95 t120 230q4 27 4 52q0 97 -59 173q-74 94 -210 95q-129 0 -226 -85t-124 -212z" />
<glyph unicode="b" horiz-adv-x="1388" d="M68 0l231 1559l289 -3l-84 -559q155 148 352 148q154 0 271 -77.5t173 -213.5q40 -98 39 -211q0 -45 -6 -92q-33 -252 -201 -415t-411 -163q-223 0 -350 189l-23 -162h-280zM430 567q-5 -32 -5 -61q0 -98 57 -172q74 -96 210 -96t231.5 91t114.5 224q5 30 5 59 q0 52 -17 100q-26 74 -91 120.5t-157 46.5q-136 0 -232.5 -89.5t-115.5 -222.5z" />
<glyph unicode="c" horiz-adv-x="1234" d="M96 571q22 173 113.5 304t230 200.5t303.5 69.5q176 0 307.5 -80.5t190.5 -235.5l-244 -120q-79 168 -258 168q-135 0 -237.5 -90t-120.5 -234q-3 -25 -3 -49q0 -101 58 -174q72 -90 201 -90q93 0 178.5 46.5t138.5 125.5l213 -150q-89 -138 -237.5 -212.5t-319.5 -74.5 q-175 0 -301 79q-127 78 -181 214q-39 97 -38 209q0 46 6 94z" />
<glyph unicode="d" horiz-adv-x="1394" d="M92 586q24 166 113 294t221.5 196.5t286.5 68.5q219 0 346 -162l86 573h289l-234 -1556h-280l16 119q-160 -146 -365 -146q-164 0 -283 85q-120 84 -170 224q-34 95 -34 201q0 50 8 103zM388 454q14 -62 45.5 -111t88 -78t127.5 -29q136 0 236.5 95.5t115.5 227.5 q3 22 3 44q0 39 -10 75q-14 58 -47 103.5t-88.5 72.5t-125.5 27q-128 0 -224 -85t-120 -212q-7 -35 -7 -68q-1 -31 6 -62z" />
<glyph unicode="e" horiz-adv-x="1282" d="M96 578q35 254 216 410.5t438 156.5q121 0 219.5 -40t164.5 -112.5t93 -182.5q16 -64 16 -136q0 -51 -8 -105q-9 -60 -27 -112h-839q8 -108 77 -173t203 -65q93 0 197.5 33t181.5 84l98 -209q-98 -66 -229.5 -109t-271.5 -43q-153 0 -266 51t-173 137q-61 85 -84 191 q-13 61 -13 126q0 48 7 98zM401 672h570q0 108 -63 170.5t-171 62.5q-113 0 -202.5 -61.5t-133.5 -171.5z" />
<glyph unicode="f" horiz-adv-x="884" d="M123 874l37 242h170l8 49q33 216 170.5 328.5t335.5 112.5q170 0 313 -86l-117 -215q-85 45 -172 45q-103 0 -165.5 -53t-77.5 -154l-4 -27h348l-37 -242h-346l-131 -874h-287l127 874h-172z" />
<glyph unicode="g" horiz-adv-x="1376" d="M14 -307l133 213q71 -57 169.5 -94t199.5 -37q164 0 271 88t128 225l7 51q-141 -141 -353 -141q-164 0 -282 76.5t-169 209.5q-35 93 -35 200q0 48 7 100q24 166 115 295t226 197.5t290 68.5q221 0 340 -164l20 135h267l-152 -1010q-41 -272 -226 -425.5t-456 -153.5 q-147 0 -276 45.5t-224 120.5zM379 559q-4 -27 -4 -52q0 -97 56 -168q70 -89 200 -89q134 0 236 92t124 231q4 29 4 55q0 96 -57 165q-72 88 -201 88q-136 0 -238 -88.5t-120 -233.5z" />
<glyph unicode="h" horiz-adv-x="1314" d="M68 0l231 1556h283l-93 -595q56 82 157.5 134t221.5 52q86 0 158.5 -29.5t126.5 -87t76 -154.5q12 -53 12 -115q0 -50 -8 -106l-96 -655h-289l90 610q6 37 6 69q0 83 -37 133q-51 70 -157 69q-119 0 -204 -86t-108 -234l-82 -561h-288z" />
<glyph unicode="i" horiz-adv-x="555" d="M72 0l166 1116h288l-166 -1116h-288zM250 1427q10 72 66 120t128 48q80 1 126 -53q37 -43 37 -102q0 -15 -3 -31q-10 -72 -65.5 -120t-126.5 -48q-82 0 -128 53q-36 42 -36 101q0 15 2 32z" />
<glyph unicode="j" horiz-adv-x="530" d="M-414 -412l82 230q70 -37 150 -37q99 0 157 70t80 212l158 1053h289l-166 -1102q-38 -254 -172 -371.5t-328 -117.5q-145 0 -250 63zM223 1427q10 72 66.5 120t128.5 48q79 0 126 -53q36 -43 36 -102q0 -15 -2 -31q-10 -72 -66 -120t-127 -48q-82 0 -128 53 q-36 42 -36 101q0 15 2 32z" />
<glyph unicode="k" horiz-adv-x="1193" d="M68 0l231 1556h289l-123 -819l465 379h362l-567 -457l428 -659h-352l-299 479l-84 -69l-62 -410h-288z" />
<glyph unicode="l" horiz-adv-x="548" d="M68 0l231 1556h289l-232 -1556h-288z" />
<glyph unicode="m" horiz-adv-x="2052" d="M68 0l165 1116h283l-24 -158q59 88 158 138.5t206 50.5q106 0 190 -50t115 -145q73 95 183 145t231 50q202 -1 315 -131q86 -100 86 -259q0 -49 -8 -104l-96 -653h-289l92 625q5 34 5 63q0 80 -36 128q-49 65 -147 65q-111 0 -192.5 -78t-104.5 -221l-86 -582h-289 l93 621q6 35 6 66q0 77 -36 125q-50 68 -151 69q-108 0 -189.5 -76t-103.5 -223l-88 -582h-288z" />
<glyph unicode="n" horiz-adv-x="1316" d="M68 0l165 1116h283l-22 -155q56 83 155.5 134.5t218.5 51.5q86 0 158.5 -29.5t126.5 -87t76 -154.5q12 -53 12 -115q0 -50 -8 -106l-96 -655h-289l90 610q6 37 6 69q0 83 -37 133q-51 70 -157 69q-119 0 -204 -86t-108 -234l-82 -561h-288z" />
<glyph unicode="o" horiz-adv-x="1329" d="M92 578q40 248 229.5 408.5t440.5 160.5q179 0 307 -85t180 -228q33 -90 33 -190q0 -60 -12 -124q-46 -241 -232.5 -395t-431.5 -154q-179 0 -306.5 83.5t-181.5 221.5q-36 92 -35 195q0 52 9 107zM379 569q-6 -35 -6 -68q0 -94 53 -165q72 -96 203 -96q130 0 234 93 t124 224q5 31 5 59q0 96 -56 168q-74 94 -203 95q-127 0 -229 -89t-125 -221z" />
<glyph unicode="p" horiz-adv-x="1388" d="M-2 -459l235 1575h285l-16 -117q153 146 348 146q154 0 272 -77.5t175 -213.5q42 -100 42 -216q0 -42 -6 -87q-31 -252 -198 -415t-410 -163q-221 0 -348 185l-90 -617h-289zM430 567q-4 -29 -4 -57q0 -101 58 -176q75 -96 210 -96q136 0 231 91t113 224q4 28 4 55 q0 55 -18 104q-26 74 -91.5 120.5t-158.5 46.5q-136 0 -231 -89.5t-113 -222.5z" />
<glyph unicode="q" horiz-adv-x="1394" d="M92 590q24 166 113 293t221.5 194.5t286.5 67.5q220 0 348 -164l18 135h287l-236 -1575h-288l80 563q-152 -131 -351 -131q-169 0 -288 86t-167 226q-33 92 -33 196q0 53 9 109zM389 584q-7 -37 -7 -72q0 -53 16 -100q25 -80 91 -128t160 -48q136 0 236.5 95.5 t115.5 227.5q3 24 3 46q0 101 -58 179q-71 97 -209 97q-129 0 -226.5 -85.5t-121.5 -211.5z" />
<glyph unicode="r" horiz-adv-x="884" d="M68 0l165 1116h277l-25 -145q126 176 330 176q67 0 160 -27l-76 -274q-68 22 -127 22q-125 0 -219.5 -86t-120.5 -266l-76 -516h-288z" />
<glyph unicode="s" horiz-adv-x="1019" d="M10 193l170 176q47 -72 123.5 -113t165.5 -41q66 0 116.5 28t59.5 76q1 6 1 12q0 52 -75 89q-24 12 -82 35q-64 25 -98.5 41t-90 51.5t-82.5 71.5q-27 37 -44 95q-10 36 -10 75q0 26 4 53q24 150 147 231.5t295 81.5q111 0 213.5 -42t175.5 -124l-165 -178 q-96 107 -240 107q-57 0 -96.5 -23t-46.5 -61q-2 -10 -2 -19q0 -56 71 -92q26 -13 82.5 -36t99 -40.5t93.5 -50.5t82 -69q31 -35 47 -91q10 -33 11 -71q0 -25 -5 -52q-25 -160 -158 -250t-317 -90q-140 0 -256.5 56.5t-188.5 163.5z" />
<glyph unicode="t" horiz-adv-x="944" d="M102 874l37 242h185l59 395h287l-60 -395h369l-37 -242h-367l-67 -446q-5 -30 -4 -55q0 -135 131 -135q82 0 190 53l60 -230q-72 -42 -163.5 -65t-176.5 -23q-195 1 -277 123q-60 89 -59 227q0 52 8 111l68 440h-183z" />
<glyph unicode="u" horiz-adv-x="1257" d="M127 502l92 614h289l-96 -637q-4 -29 -5 -55q0 -74 37 -122q49 -64 148 -64q110 0 180 70t90 198l92 610h289l-92 -614q-40 -266 -193.5 -397.5t-394.5 -131.5q-114 0 -203.5 34t-147.5 99q-60 65 -82 166q-12 55 -12 118q0 53 9 112z" />
<glyph unicode="v" horiz-adv-x="1220" d="M119 1116h319l170 -723l385 723h316l-652 -1114h-221z" />
<glyph unicode="w" horiz-adv-x="1796" d="M119 1116h303l113 -731l364 731h203l147 -731l330 731h303l-545 -1114h-252l-145 700l-354 -700h-252z" />
<glyph unicode="x" horiz-adv-x="1132" d="M-55 0l454 569l-245 547h329l138 -342l256 342h325l-430 -555l275 -561h-332l-160 367l-276 -367h-334z" />
<glyph unicode="y" horiz-adv-x="1226" d="M-63 -412l83 234q62 -35 136 -35q78 0 136.5 43.5t115.5 136.5l32 53l-319 1096h330l180 -727l364 727h318l-608 -1145q-124 -232 -253 -339t-290 -107q-133 0 -225 63z" />
<glyph unicode="z" horiz-adv-x="1101" d="M2 0l29 197l661 677h-532l37 240h917l-29 -194l-651 -680h570l-35 -240h-967z" />
<glyph unicode="{" horiz-adv-x="833" d="M49 479l31 230q45 6 76.5 12t66.5 20.5t57.5 35t40.5 54.5t25 80q6 40 31 174t35 207q54 369 442 369h127l-41 -275h-55q-167 0 -189 -163q-9 -61 -32 -198t-29 -175q-12 -92 -77.5 -157t-158.5 -103q78 -35 125 -100.5t35 -157.5q-9 -60 -29 -201.5t-24 -171.5 q-11 -79 21 -118.5t116 -39.5h59l-40 -274h-138q-189 0 -268.5 98.5t-50.5 288.5q9 61 25 189.5t24 179.5q8 56 -3.5 94t-44 58t-67.5 29t-90 15z" />
<glyph unicode="|" horiz-adv-x="598" d="M37 -367l313 2102h287l-313 -2102h-287z" />
<glyph unicode="}" horiz-adv-x="833" d="M-100 -473l41 274h57q163 0 188 164q7 56 30 189t30 184q26 165 233 258q-79 38 -124 103.5t-31 156.5q7 52 28 186t29 187q12 78 -20.5 117.5t-116.5 39.5h-60l41 275h123q390 0 336 -375q-6 -45 -17 -126t-20 -144.5t-16 -110.5q-7 -45 1 -78.5t24 -53t47 -33.5 t59 -19.5t72 -11.5l-31 -230q-44 -5 -76 -11.5t-67 -20.5t-58 -35t-40.5 -55.5t-24.5 -80.5q-7 -48 -31.5 -176t-34.5 -192q-56 -381 -428 -381h-143z" />
<glyph unicode="~" horiz-adv-x="1431" d="M127 623q82 122 192.5 180.5t231.5 58.5q72 0 139.5 -20.5t109.5 -45t93 -45t94 -20.5q56 0 104 30.5t121 110.5l170 -155q-182 -244 -434 -244q-73 0 -140.5 21t-109.5 45.5t-91.5 45.5t-90.5 21q-56 0 -103.5 -29t-119.5 -104z" />
<glyph unicode="&#xa2;" horiz-adv-x="1269" d="M104 571q32 244 194.5 398.5t393.5 173.5l23 153h162l-25 -159q141 -21 244 -99t153 -209l-243 -120q-63 132 -193 161l-94 -622q74 15 138.5 58t105.5 106l213 -150q-82 -126 -213 -199.5t-285 -85.5l-23 -155h-161l24 162q-145 21 -246.5 102.5t-144.5 207t-23 277.5z M389 553q-14 -107 32.5 -189.5t137.5 -111.5l90 610q-102 -28 -173.5 -110.5t-86.5 -198.5z" />
<glyph unicode="&#xa3;" horiz-adv-x="1204" d="M47 0l31 240q95 78 157 179t76 195q2 10 2 29h-180l35 229h119q-23 148 -8 236q34 199 187.5 314.5t358.5 117.5q145 1 261 -67t167 -175l-217 -174q-29 61 -85.5 96t-121.5 35q-98 0 -169.5 -62t-88.5 -163q-10 -52 9 -158h471l-35 -229h-410q0 -29 -6 -63 q-14 -80 -57.5 -159t-112.5 -142h664l-41 -279h-1006z" />
<glyph unicode="&#xa5;" horiz-adv-x="1417" d="M190 295l33 219h344l8 45l-18 49h-319l32 219h205l-252 686h334l211 -657l416 657h342l-461 -686h197l-33 -219h-311l-41 -59l-7 -35h347l-35 -219h-344l-43 -295h-303l43 295h-345z" />
<glyph unicode="&#xa8;" horiz-adv-x="1042" d="M246 1454q11 69 65.5 115.5t124.5 46.5q74 0 118 -51.5t34 -124.5q-10 -72 -65 -119t-124 -47q-77 0 -121 51t-32 129zM690 1454q10 69 65 115.5t126 46.5q74 0 117.5 -51.5t33.5 -124.5t-64 -119.5t-124 -46.5q-77 0 -120.5 51t-33.5 129z" />
<glyph unicode="&#xa9;" horiz-adv-x="1738" d="M131 764q23 163 107 308t205 247t274 161.5t311 59.5q130 0 246 -40t203 -113t146.5 -170t81.5 -217t3 -248q-33 -210 -162.5 -388t-326.5 -283.5t-414 -105.5q-161 0 -297.5 62t-227 167.5t-131.5 252t-18 307.5zM305 760q-19 -126 13 -240t101.5 -196t175.5 -130.5 t230 -48.5q126 0 247.5 49t215.5 131.5t159.5 196t84.5 238.5q19 123 -13 235.5t-102 194t-176.5 130t-230.5 48.5q-165 0 -318 -79.5t-257.5 -220t-129.5 -308.5zM502 766q26 179 159.5 295.5t315.5 116.5q110 0 196.5 -50.5t133.5 -144.5l-158 -92q-68 104 -188 104 q-100 0 -176 -68t-89 -173q-14 -103 39 -170.5t154 -67.5q61 0 118 27t99 73l129 -106q-68 -83 -165 -129.5t-206 -46.5q-181 0 -284.5 124.5t-77.5 307.5z" />
<glyph unicode="&#xab;" horiz-adv-x="1200" d="M92 596l338 416h307l-352 -416l221 -416h-295zM553 596l334 416h309l-350 -416l219 -416h-295z" />
<glyph unicode="&#xad;" d="M123 432l41 270h842l-41 -270h-842z" />
<glyph unicode="&#xae;" horiz-adv-x="1214" d="M180 1079q32 220 205 367t389 147q148 0 260.5 -72t164 -192.5t30.5 -261.5q-16 -106 -71.5 -202t-135 -165t-182.5 -110t-209 -41q-143 0 -254.5 70.5t-164.5 192.5t-32 267zM313 1073q-23 -164 71.5 -280.5t258.5 -116.5q163 0 295.5 117.5t157.5 279.5 q24 160 -71 276.5t-263 116.5q-167 0 -296.5 -114.5t-152.5 -278.5zM477 829l74 494h217q80 0 122.5 -48.5t33.5 -119.5q-12 -101 -115 -145l76 -181h-133l-64 164h-65l-25 -164h-121zM637 1090h72q40 0 63.5 18.5t26.5 52.5q3 26 -13 44t-53 18l-76 2z" />
<glyph unicode="&#xb4;" horiz-adv-x="829" d="M211 1270l180 360h328l-246 -360h-262z" />
<glyph unicode="&#xb8;" horiz-adv-x="706" d="M-51 -483l74 164q77 -43 165 -43q53 0 85.5 22.5t35.5 56.5q5 32 -18.5 50t-81.5 18h-113l-8 55l111 201l211 -4l-76 -135q89 -5 146.5 -62t43.5 -151q-13 -96 -103 -167t-233 -71q-116 0 -239 66z" />
<glyph unicode="&#xbb;" horiz-adv-x="1198" d="M41 180l344 416l-225 416h309l209 -416l-342 -416h-295zM500 180l346 416l-228 416h308l213 -416l-344 -416h-295z" />
<glyph unicode="&#x2c6;" horiz-adv-x="1148" d="M203 1272l356 360h215l250 -360h-274l-105 176l-162 -176h-280z" />
<glyph unicode="&#x2da;" horiz-adv-x="782" d="M238 1483q15 107 105 183.5t202 76.5q115 0 183.5 -78t51.5 -188q-17 -108 -106 -183t-201 -75q-117 0 -184.5 76.5t-50.5 187.5zM401 1481q-7 -45 19 -76t69 -31q45 0 82 32.5t43 80.5q7 41 -19 70.5t-69 29.5q-46 0 -82.5 -31t-42.5 -75z" />
<glyph unicode="&#x2dc;" horiz-adv-x="1132" d="M219 1386q67 116 142.5 172t170.5 56q58 0 108.5 -22t89 -44t65.5 -22q44 0 78.5 25.5t70.5 78.5l176 -102q-59 -113 -136 -170.5t-163 -57.5q-43 0 -84 14.5t-67.5 32t-58 32t-56.5 14.5q-87 0 -160 -113z" />
<glyph unicode="&#x401;" horiz-adv-x="1304" d="M104 0l226 1513h1026l-43 -282h-721l-49 -326h667l-41 -282h-667l-51 -340h720l-41 -283h-1026zM446 1808q11 68 65 114t124 46q72 0 115 -51t32 -123q-10 -71 -63.5 -117.5t-120.5 -46.5q-76 0 -120 51t-32 127zM883 1808q11 68 65 114t123 46q72 0 115.5 -51t34.5 -123 q-10 -71 -64.5 -117.5t-122.5 -46.5q-75 0 -117.5 50.5t-33.5 127.5z" />
<glyph unicode="&#x410;" horiz-adv-x="1425" d="M-51 0l803 1513h247l344 -1513h-317l-63 328h-527l-166 -328h-321zM563 598h355l-101 504z" />
<glyph unicode="&#x411;" horiz-adv-x="1363" d="M104 0l226 1513h987l-39 -264h-688l-45 -295h258q84 0 155 -13t122 -36.5t92.5 -55t66 -68.5t43 -77.5t23.5 -82t7.5 -81t-5.5 -75.5q-15 -99 -61.5 -183.5t-120 -147.5t-179.5 -98.5t-233 -35.5h-609zM442 266h246q137 0 214.5 61t92.5 156q6 40 -2.5 75.5t-32 65 t-71 47t-113.5 17.5h-270z" />
<glyph unicode="&#x412;" horiz-adv-x="1417" d="M104 0l226 1513h647q109 0 191 -33.5t126 -88.5t62 -120.5t8 -135.5q-14 -105 -82 -188t-172 -120q132 -34 191 -141t38 -250q-13 -93 -56 -171.5t-112.5 -138t-170.5 -93t-222 -33.5h-674zM442 266h297q138 0 208.5 58.5t82.5 144.5q12 81 -36 139t-156 58h-336z M541 920h290q97 0 155.5 52t68.5 120q8 66 -31.5 111.5t-124.5 45.5h-309z" />
<glyph unicode="&#x413;" horiz-adv-x="1136" d="M104 0l226 1513h946l-41 -272h-647l-185 -1241h-299z" />
<glyph unicode="&#x414;" horiz-adv-x="1634" d="M-49 -307l86 581h168l631 1239h288l254 -1239h170l-86 -581h-293l48 307h-926l-47 -307h-293zM518 274h549l-143 852z" />
<glyph unicode="&#x415;" horiz-adv-x="1304" d="M104 0l226 1513h1026l-43 -282h-721l-49 -326h667l-41 -282h-667l-51 -340h720l-41 -283h-1026z" />
<glyph unicode="&#x416;" horiz-adv-x="2117" d="M-8 10l39 252q47 -16 108 -16q74 0 137 67.5t258 342.5q5 7 7 10q51 68 92 100q-27 26 -47.5 64t-30.5 67.5t-24 77.5t-21 69q-45 121 -85.5 170.5t-113.5 49.5q-27 0 -94 -13l31 246q74 39 162 39q74 0 127 -23t93 -76.5t68.5 -121t61.5 -176.5q8 -25 19.5 -62t16 -52.5 t13.5 -40t14 -33t15 -22.5t18.5 -17.5t23 -9t30.5 -6.5t38 -1h29l92 616h303l-92 -616h25q22 0 38.5 1t32.5 7t26 10t24.5 19t22 23.5t24 34t25.5 40.5t31.5 54t37.5 63q53 87 92 143.5t83.5 107.5t87.5 78.5t94.5 43.5t113.5 16q83 0 151 -39l-41 -244q-59 11 -94 11 q-41 0 -72 -12.5t-64 -47.5t-55.5 -67t-66.5 -101q-12 -17 -44.5 -68t-51.5 -79.5t-51.5 -67.5t-63.5 -65q24 -30 53 -99q116 -263 149 -320q41 -69 84 -83q19 -6 44 -6q61 0 117 18l-33 -258q-74 -31 -168 -31q-40 0 -75.5 6.5t-63 17t-52 29.5t-42.5 37t-36.5 47.5 t-30.5 53t-27 61.5t-25 65t-25.5 71t-26.5 73q-45 101 -62 126q-36 50 -89 50h-37l-92 -616h-303l92 616h-33q-28 0 -53 -12t-54 -43.5t-45.5 -53.5t-54.5 -75q-23 -33 -60.5 -89t-58.5 -86.5t-55 -75t-59 -69t-61 -54t-70.5 -44t-79 -25t-94.5 -10.5q-96 0 -166 33z" />
<glyph unicode="&#x417;" horiz-adv-x="1259" d="M-2 131l129 242q196 -121 412 -121q133 0 220 54.5t101 142.5q13 79 -45 129.5t-186 50.5h-264l41 266h210q117 0 199 56t94 143q12 75 -43 121.5t-157 46.5q-182 0 -392 -123l-108 223q114 84 263.5 131t295.5 47q122 0 217.5 -34.5t151 -92t80 -130t12.5 -150.5 q-16 -101 -91 -185t-206 -133q138 -37 199 -143t40 -244q-15 -95 -64 -176.5t-129.5 -143.5t-198 -97.5t-259.5 -35.5q-285 0 -522 156z" />
<glyph unicode="&#x418;" horiz-adv-x="1605" d="M104 0l226 1513h299l-154 -997l914 997h210l-225 -1513h-299l152 995l-914 -995h-209z" />
<glyph unicode="&#x419;" horiz-adv-x="1605" d="M104 0l226 1513h299l-154 -997l914 997h210l-225 -1513h-299l152 995l-914 -995h-209zM594 1841l188 146q49 -97 104 -131.5t132 -34.5q86 0 168.5 40t189.5 138l117 -172q-259 -230 -508 -230q-266 0 -391 244z" />
<glyph unicode="&#x41a;" horiz-adv-x="1425" d="M104 0l226 1513h303l-105 -702l676 702h369l-660 -688l473 -825h-370l-332 600l-221 -225l-55 -375h-304z" />
<glyph unicode="&#x41b;" horiz-adv-x="1402" d="M-47 0l772 1513h287l309 -1513h-330l-182 1087l-524 -1087h-332z" />
<glyph unicode="&#x41c;" horiz-adv-x="1923" d="M104 0l226 1513h198l465 -858l719 858h205l-225 -1513h-303l129 858l-535 -633h-104l-349 633l-127 -858h-299z" />
<glyph unicode="&#x41d;" horiz-adv-x="1576" d="M104 0l226 1513h303l-90 -604h633l92 604h303l-225 -1513h-304l91 616h-633l-92 -616h-304z" />
<glyph unicode="&#x41e;" horiz-adv-x="1736" d="M131 768q31 220 161 397.5t324 276t412 98.5q170 0 309.5 -63t227.5 -170.5t126 -252t15 -304.5q-24 -161 -106 -304.5t-200.5 -247t-272.5 -163.5t-318 -60q-168 0 -307 62.5t-227.5 169.5t-127.5 253t-16 308zM444 750q-20 -136 25 -245t141.5 -170t225.5 -61 q130 0 249 61.5t202.5 174t105.5 252.5q32 206 -81 342.5t-313 136.5q-133 0 -252.5 -62.5t-201 -175.5t-101.5 -253z" />
<glyph unicode="&#x41f;" horiz-adv-x="1576" d="M104 0l226 1513h1241l-225 -1513h-304l181 1221h-633l-182 -1221h-304z" />
<glyph unicode="&#x420;" horiz-adv-x="1308" d="M104 0l226 1513h540q97 0 175.5 -20t132 -54.5t93 -82.5t57 -104t25 -118t-2.5 -126q-11 -84 -39.5 -155.5t-80 -133t-123 -105t-171.5 -68t-221 -24.5h-230l-77 -522h-304zM526 797h201q141 0 220 62t93 163q11 92 -37.5 151.5t-150.5 59.5h-260z" />
<glyph unicode="&#x421;" horiz-adv-x="1566" d="M125 770q22 175 104 321.5t202.5 244t270.5 151t310 53.5q207 0 364.5 -86.5t251.5 -232.5l-227 -193q-143 221 -406 221q-209 0 -365.5 -134t-185.5 -351q-30 -216 88 -353t324 -137q131 0 253 60.5t224 167.5l187 -205q-129 -144 -314.5 -232t-392.5 -88 q-165 0 -302.5 57.5t-231 159.5t-135.5 251.5t-19 324.5z" />
<glyph unicode="&#x422;" horiz-adv-x="1228" d="M147 1221l43 292h1172l-45 -292h-430l-185 -1221h-305l183 1221h-433z" />
<glyph unicode="&#x423;" horiz-adv-x="1290" d="M43 23l53 245q62 -26 121 -26q91 0 167 67.5t155 190.5l-328 1013h352l185 -688l366 688h352q-71 -119 -295 -500.5t-335 -561.5q-40 -64 -64.5 -101t-66.5 -94t-74.5 -91t-80 -75t-93 -62.5t-102.5 -37t-119 -15.5q-109 0 -193 48z" />
<glyph unicode="&#x424;" horiz-adv-x="1935" d="M125 780q47 315 277.5 504.5t572.5 210.5l26 182h306l-27 -184q160 -14 288 -78t210 -164t116.5 -234.5t12.5 -285.5q-44 -308 -272.5 -498.5t-575.5 -212.5l-27 -184h-305l29 187q-217 20 -371.5 124t-221.5 269t-38 364zM428 750q-28 -196 71 -320t296 -139l139 932 q-202 -21 -339.5 -146t-166.5 -327zM1100 291q203 17 340 141.5t166 319.5q30 196 -71 323.5t-296 147.5z" />
<glyph unicode="&#x425;" horiz-adv-x="1370" d="M-55 0l600 766l-342 747h350l215 -518l387 518h361l-590 -747l358 -766h-348l-236 530l-397 -530h-358z" />
<glyph unicode="&#x426;" horiz-adv-x="1533" d="M104 0l226 1513h305l-182 -1220h514l182 1220h305l-182 -1220h158l-91 -600h-303l47 307h-979z" />
<glyph unicode="&#x427;" horiz-adv-x="1429" d="M171 806.5q-5 82.5 9 186.5l78 520h305l-74 -501q-12 -68 -6.5 -117.5t20.5 -83t45.5 -53.5t67.5 -28.5t86 -8.5q140 0 304 53l110 739h307l-225 -1513h-307l72 483q-188 -57 -347 -57q-74 0 -137 13t-118 41.5t-94 73t-65 107.5t-31 145.5z" />
<glyph unicode="&#x428;" horiz-adv-x="2248" d="M104 0l226 1513h305l-182 -1220h497l183 1220h305l-183 -1220h498l184 1220h306l-226 -1513h-1913z" />
<glyph unicode="&#x429;" horiz-adv-x="2322" d="M104 0l226 1513h305l-182 -1220h497l183 1220h305l-183 -1220h498l184 1220h306l-185 -1220h160l-90 -600h-303l47 307h-1768z" />
<glyph unicode="&#x42a;" horiz-adv-x="1554" d="M152 1249l41 264h636l-77 -512q137 46 276 46q114 0 211.5 -37.5t166 -105.5t99 -171.5t11.5 -226.5q-13 -81 -44 -153.5t-84.5 -137.5t-125 -112.5t-172 -75t-218.5 -27.5h-567l187 1249h-340zM643 274h207q157 0 245.5 68.5t104.5 185.5q18 117 -47.5 180.5 t-189.5 63.5q-119 0 -252 -49z" />
<glyph unicode="&#x42b;" horiz-adv-x="1961" d="M109 0l225 1513h299l-78 -516h279q75 0 139.5 -13.5t112.5 -37t88 -56t65.5 -71t44.5 -80.5t25.5 -85.5t9 -86.5t-5.5 -82q-30 -212 -184 -348.5t-396 -136.5h-624zM446 268h230q146 0 229 64.5t99 169.5q13 96 -44.5 161.5t-187.5 65.5h-256zM1425 0l226 1513h305 l-225 -1513h-306z" />
<glyph unicode="&#x42c;" horiz-adv-x="1353" d="M104 0l226 1513h299l-76 -512q134 46 274 46q114 0 211.5 -37.5t166 -105.5t99 -171.5t11.5 -226.5q-16 -102 -61.5 -190t-122 -160.5t-194.5 -114t-265 -41.5h-568zM444 274h205q157 0 245.5 68.5t106.5 185.5q17 117 -49 180.5t-190 63.5q-120 0 -250 -49z" />
<glyph unicode="&#x42d;" horiz-adv-x="1560" d="M37 303l217 186q68 -102 174 -161.5t234 -59.5q172 0 310.5 95t203.5 253h-691l41 273h693q-15 161 -126 259.5t-276 98.5q-131 0 -250 -60t-215 -163l-176 207q121 141 302.5 225t381.5 84q158 0 293 -59.5t226 -164t132 -255.5t15 -324q-26 -176 -106 -321t-196.5 -240 t-262 -147t-304.5 -52q-210 0 -371.5 90.5t-248.5 235.5z" />
<glyph unicode="&#x42e;" horiz-adv-x="2310" d="M104 0l226 1513h305l-92 -614h186q82 283 322.5 462t537.5 179q136 0 254.5 -40.5t204.5 -114t144 -171.5t80 -217t5 -247q-22 -161 -101.5 -304.5t-197 -247t-270.5 -163.5t-317 -60q-147 0 -273 48t-215 132.5t-143.5 200.5t-63.5 250h-196l-90 -606h-306zM1016 750 q-18 -136 28 -245t143 -170t226 -61q130 0 248.5 61.5t200.5 174t102 252.5q29 206 -85 342.5t-314 136.5q-133 0 -252 -62.5t-199 -175.5t-98 -253z" />
<glyph unicode="&#x42f;" horiz-adv-x="1386" d="M-10 0l436 561q-134 68 -191 198t-34 279q34 220 201.5 347.5t467.5 127.5h510l-225 -1513h-299l78 522q-101 -16 -219 -16l-373 -506h-352zM510 1008q-6 -42 4 -81t36.5 -75.5t82.5 -58t135 -21.5q87 0 207 21l65 442h-174q-327 0 -356 -227z" />
<glyph unicode="&#x430;" horiz-adv-x="1388" d="M94 586q24 166 114 294t224 196.5t289 68.5q217 0 346 -168l20 139h275l-168 -1116h-272l18 133q-163 -160 -377 -160q-124 0 -223 49.5t-158 133.5t-82.5 195.5t-5.5 234.5zM389 584q-17 -90 7.5 -169t90 -129t160.5 -50q136 0 237 95t120 230q19 131 -55 225.5 t-210 94.5q-129 0 -226 -85t-124 -212z" />
<glyph unicode="&#x431;" horiz-adv-x="1406" d="M119.5 614.5q0.5 87.5 15.5 178.5q37 216 120 363t211.5 234.5t317.5 133.5q11 2 65.5 14.5t72 17.5t67 18.5t80 26t78.5 32.5t95 46t99 58l78 -254q-23 -17 -45 -31.5t-39.5 -26t-42.5 -22.5t-39 -18t-46 -16.5t-46 -14.5t-57 -15t-60 -14.5t-74.5 -17.5t-82.5 -19 q-55 -13 -88.5 -22t-79 -25.5t-75.5 -35t-65.5 -48t-60.5 -66t-49 -87.5t-43 -115q77 100 197 154.5t247 54.5q105 0 200 -40.5t163 -112t101 -178.5t16 -230q-23 -162 -111 -290t-234 -202t-327 -74q-93 0 -173 23.5t-140.5 66t-107.5 101.5t-77 130.5t-45.5 153t-15 169z M449 545q-20 -128 49.5 -222t201.5 -94q135 0 236.5 91.5t118.5 222.5q15 127 -57.5 215t-202.5 88q-127 0 -226.5 -83.5t-119.5 -217.5z" />
<glyph unicode="&#x432;" horiz-adv-x="1320" d="M124 408.5q-9 84.5 9 189.5l57 373q20 133 66.5 239t109 176.5t141.5 118t162.5 68t174.5 20.5q118 0 210 -36t146 -96t76.5 -136t9.5 -158q-17 -106 -83.5 -187t-166.5 -116q126 -40 184 -152.5t33 -265.5q-16 -102 -62.5 -187t-123.5 -149.5t-192 -100.5t-257 -36 q-54 0 -106.5 9t-108 29t-101 53t-86 81.5t-62 113.5t-30.5 149.5zM423.5 434q12.5 -68 48.5 -111.5t84 -64t108 -20.5q124 0 201 66t96 165q6 40 -2 77.5t-31.5 71t-73 54t-119.5 20.5h-297l-14 -96q-13 -94 -0.5 -162zM475 940h252q66 0 117 18.5t80 49.5t45 64t22 69 q13 84 -32 136t-146 52q-131 0 -222 -102.5t-114 -274.5z" />
<glyph unicode="&#x433;" horiz-adv-x="1042" d="M49 305q10 77 49.5 139t95 101t121.5 70t130 54t117.5 44.5t88 49t37.5 60.5q5 33 -26 56.5t-101 23.5q-145 0 -321 -65l-50 225q90 35 206 58.5t216 23.5q192 0 305 -85t93 -233q-10 -73 -49 -130.5t-94 -93t-120 -64t-128.5 -51t-116.5 -45.5t-88 -55.5t-39 -74.5 q-4 -47 37 -70.5t112 -23.5q174 0 373 86l43 -227q-242 -105 -487 -105q-212 0 -317.5 93t-86.5 239z" />
<glyph unicode="&#x434;" horiz-adv-x="1380" d="M63 -373l82 228q182 -82 371 -82q173 0 278.5 81t127.5 234l6 49q-142 -139 -353 -139q-164 0 -281.5 76.5t-168 210t-27.5 299.5q35 251 213.5 406t417.5 155q219 0 340 -162l18 133h269l-154 -1010q-23 -153 -86.5 -267.5t-157 -182t-205 -100.5t-241.5 -33 q-124 0 -244.5 29.5t-204.5 74.5zM385 559q-18 -131 52 -220t200 -89q134 0 237 92t125 231q19 132 -53.5 220t-202.5 88q-135 0 -236.5 -88.5t-121.5 -233.5z" />
<glyph unicode="&#x435;" horiz-adv-x="1282" d="M96 578q35 254 216 410.5t438 156.5q121 0 219.5 -40t164.5 -112.5t93 -182t8 -241.5q-9 -60 -27 -112h-839q8 -108 77 -173t203 -65q93 0 197.5 33t181.5 84l98 -209q-98 -66 -229.5 -109t-271.5 -43q-153 0 -266 51t-173.5 137t-83.5 191.5t-6 223.5zM401 672h570 q0 108 -63 170.5t-171 62.5q-113 0 -202.5 -61.5t-133.5 -171.5z" />
<glyph unicode="&#x436;" horiz-adv-x="1814" d="M-12 8l43 223q43 -14 78 -14q56 0 106.5 47t206.5 236q25 37 61 65q-8 8 -16 17t-13.5 16t-12 20.5t-10 19.5t-10.5 23t-9 22t-9.5 26t-9.5 26q-30 81 -61 120.5t-90 39.5q-45 0 -92 -8l26 217q59 29 143 29q123 0 187.5 -59t107.5 -193l15 -51t14.5 -45.5t14 -34 t18.5 -30.5t23.5 -19t33.5 -14t45 -3h27l65 432h281l-66 -432h13q31 0 56 8t41.5 17.5t37 34t31 40t34.5 54t37 59.5q75 124 153.5 180t192.5 56q94 0 150 -33l-37 -213q-33 10 -68 10q-28 0 -52.5 -9.5t-41 -20.5t-40.5 -40t-36.5 -46.5t-42.5 -61.5q-28 -44 -43.5 -66 t-43 -51t-58.5 -47q19 -23 41 -70q86 -170 123.5 -219t95.5 -49q53 0 111 14l-31 -227q-65 -22 -147 -22q-36 0 -67.5 5t-56 11.5t-47.5 21t-38.5 26t-32.5 33.5t-26.5 35.5t-23 42t-20 43t-20 47t-19.5 46.5q-30 69 -58 99t-73 30h-32l-64 -424h-281l64 424h-25 q-43 0 -78.5 -30t-99.5 -116q-10 -13 -35 -49t-37 -52.5t-38.5 -47.5t-46 -47t-50.5 -38t-61.5 -33t-70.5 -19t-85 -8q-81 0 -151 26z" />
<glyph unicode="&#x437;" horiz-adv-x="1140" d="M-96 -305l129 221q173 -127 352 -127q137 0 224.5 61t101.5 164q13 96 -53 153.5t-179 57.5h-221l37 248h151q142 0 226 60.5t98 152.5q13 90 -47.5 143.5t-161.5 53.5q-163 0 -354 -127l-101 209q101 77 246 128.5t281 51.5q108 0 198.5 -36t147 -95.5t82.5 -138 t14 -162.5q-33 -214 -291 -326q130 -40 189 -151t41 -248q-29 -196 -197 -327.5t-422 -131.5q-274 0 -491 166z" />
<glyph unicode="&#x438;" horiz-adv-x="1335" d="M120.5 286.5q-11.5 84.5 6.5 196.5l94 633h289l-90 -608q-19 -129 23.5 -199.5t148.5 -70.5q124 0 221.5 85.5t120.5 229.5l86 563h287l-166 -1116h-279l25 156q-70 -79 -177.5 -131t-230.5 -52q-68 0 -126.5 17t-109 55t-81 97.5t-42 144z" />
<glyph unicode="&#x439;" horiz-adv-x="1335" d="M120.5 286.5q-11.5 84.5 6.5 196.5l94 633h289l-90 -608q-19 -129 23.5 -199.5t148.5 -70.5q124 0 221.5 85.5t120.5 229.5l86 563h287l-166 -1116h-279l25 156q-70 -79 -177.5 -131t-230.5 -52q-68 0 -126.5 17t-109 55t-81 97.5t-42 144zM414 1393l170 131 q45 -87 94 -118.5t119 -31.5q76 0 150 36t171 124l105 -154q-233 -206 -457 -206q-239 0 -352 219z" />
<glyph unicode="&#x43a;" horiz-adv-x="1193" d="M68 0l231 1556h289l-123 -819l465 379h362l-567 -457l428 -659h-352l-299 479l-84 -69l-62 -410h-288z" />
<glyph unicode="&#x43b;" horiz-adv-x="1245" d="M-47 0l635 1116h284l293 -1116h-319l-166 764l-408 -764h-319z" />
<glyph unicode="&#x43c;" horiz-adv-x="1599" d="M68 0l165 1116h203l373 -596l555 596h209l-166 -1116h-281l88 592l-401 -422h-100l-277 422l-88 -592h-280z" />
<glyph unicode="&#x43d;" horiz-adv-x="1288" d="M68 0l165 1116h287l-63 -428h454l64 428h287l-168 -1116h-287l65 430h-454l-64 -430h-286z" />
<glyph unicode="&#x43e;" horiz-adv-x="1339" d="M92 578q40 248 229.5 408.5t440.5 160.5q179 0 307 -85t180 -228t21 -314q-46 -241 -232.5 -395t-431.5 -154q-179 0 -306.5 83.5t-181 221.5t-26.5 302zM379 569q-25 -137 47 -233t203 -96q130 0 234 93t124 224q22 133 -51.5 227.5t-202.5 94.5q-127 0 -229 -89 t-125 -221z" />
<glyph unicode="&#x43f;" horiz-adv-x="1316" d="M68 0l165 1116h283l-22 -155q56 83 155.5 134.5t218.5 51.5q86 0 158.5 -29.5t126.5 -87t76 -154.5t4 -221l-96 -655h-289l90 610q20 132 -31 201.5t-157 69.5q-119 0 -204 -86t-108 -234l-82 -561h-288z" />
<glyph unicode="&#x440;" horiz-adv-x="1394" d="M-2 -459l235 1575h285l-16 -117q153 146 348 146q154 0 272 -77.5t175 -214t36 -302.5q-31 -252 -198 -415t-410 -163q-221 0 -348 185l-90 -617h-289zM430 567q-20 -138 54.5 -233.5t209.5 -95.5q136 0 231 91t113 224q13 86 -13.5 159.5t-92 120t-158.5 46.5 q-136 0 -231 -89.5t-113 -222.5z" />
<glyph unicode="&#x441;" horiz-adv-x="1234" d="M96 571q22 173 113.5 304t230 200.5t303.5 69.5q176 0 307.5 -80.5t190.5 -235.5l-244 -120q-79 168 -258 168q-135 0 -237.5 -90t-120.5 -234q-17 -133 55.5 -223t200.5 -90q93 0 178.5 46.5t138.5 125.5l213 -150q-89 -138 -237.5 -212.5t-319.5 -74.5 q-175 0 -301 78.5t-180.5 214t-32.5 303.5z" />
<glyph unicode="&#x442;" horiz-adv-x="2052" d="M68 0l165 1116h283l-24 -158q59 88 158 138.5t206 50.5q106 0 190 -50t115 -145q73 95 183 145t231 50q202 0 315 -130.5t78 -363.5l-96 -653h-289l92 625q18 126 -31 191t-147 65q-111 0 -192.5 -78t-104.5 -221l-86 -582h-289l93 621q20 123 -30 191.5t-151 68.5 q-108 0 -189.5 -76t-103.5 -223l-88 -582h-288z" />
<glyph unicode="&#x443;" horiz-adv-x="1226" d="M-66 -412l84 234q62 -35 136 -35q78 0 136.5 43.5t115.5 136.5l32 53l-319 1096h330l180 -727l364 727h318l-609 -1145q-125 -232 -253 -339t-289 -107q-134 0 -226 63z" />
<glyph unicode="&#x444;" horiz-adv-x="1742" d="M94 614q24 134 91.5 236.5t167.5 165t223 95t268 34.5l61 411h273l-62 -411q141 -7 254 -49.5t191 -116t112.5 -183.5t16.5 -245q-19 -140 -82 -248t-161.5 -178t-226 -107.5t-280.5 -42.5l-66 -440h-272l66 442q-213 9 -354 93t-196 224t-24 320zM371 563 q-23 -156 65 -247.5t269 -94.5l100 674q-180 -5 -296 -88t-138 -244zM977 221q177 3 294.5 92t143.5 254q20 142 -65 233t-271 95z" />
<glyph unicode="&#x445;" horiz-adv-x="1134" d="M-53 0l454 569l-245 547h329l138 -342l256 342h325l-430 -555l275 -561h-332l-160 367l-276 -367h-334z" />
<glyph unicode="&#x446;" horiz-adv-x="1476" d="M117.5 276.5q-12.5 82.5 5.5 190.5l98 649h289l-94 -622q-18 -124 27 -190t153 -66q129 0 222.5 85.5t117.5 243.5l84 549h287l-119 -764q-8 -53 4.5 -87t48 -50.5t77.5 -22t107 -4.5l-82 -557h-249l51 351q-107 0 -173 60.5t-57 160.5q-55 -99 -178 -164.5t-266 -65.5 q-66 0 -123 16.5t-107 53t-80.5 94t-43 140z" />
<glyph unicode="&#x447;" horiz-adv-x="1202" d="M116 602.5q-4 67.5 7 153.5l57 360h289l-55 -354q-28 -197 170 -197q113 0 225 31l78 520h287l-166 -1116h-289l51 334q-134 -31 -248 -31q-65 0 -120.5 9.5t-107 31t-87 56t-61.5 85t-30 118z" />
<glyph unicode="&#x448;" horiz-adv-x="2002" d="M127 487l94 629h291l-96 -631q-18 -121 27 -184t139 -63q111 0 188 81t98 230l86 567h289l-96 -637q-17 -114 28 -177.5t138 -63.5q109 0 187 82t97 212l89 584h290l-168 -1116h-272l23 156q-52 -78 -157.5 -130.5t-217.5 -52.5q-100 0 -180 46t-111 137 q-71 -94 -180 -138.5t-221 -44.5q-88 0 -160 28t-127 86.5t-77 161t-1 238.5z" />
<glyph unicode="&#x449;" horiz-adv-x="2148" d="M127 487l94 629h291l-96 -631q-18 -121 27 -184t139 -63q111 0 188 81t98 230l86 567h289l-96 -637q-17 -114 28 -177.5t138 -63.5q109 0 187 82t97 212l89 584h290l-116 -770q-3 -22 -3.5 -40t3 -32.5t9 -26t15.5 -20.5t20 -15t26 -10.5t31 -7t36 -4t39.5 -2t44.5 -0.5 l-84 -557h-248l53 351q-107 0 -165 60t-46 157q-67 -106 -178.5 -166t-228.5 -60q-100 0 -180 46t-111 137q-71 -94 -180 -138.5t-221 -44.5q-88 0 -160 28t-127 86.5t-77 161t-1 238.5z" />
<glyph unicode="&#x44a;" horiz-adv-x="1339" d="M92 872l37 244h537l-41 -274q125 67 264 67q134 0 230.5 -63t138 -171t22.5 -239q-14 -92 -53.5 -172.5t-106.5 -147t-170 -105t-231 -38.5q-84 0 -153 18.5t-116 50t-81 75.5t-52.5 92.5t-27 103t-7.5 105.5t9 102l53 352h-252zM564.5 418q-2.5 -33 8.5 -68t28.5 -63 t55.5 -46t91 -18q105 0 170.5 62.5t78.5 158.5q13 90 -33 152.5t-157 62.5t-219 -51l-19 -129q-2 -28 -4.5 -61z" />
<glyph unicode="&#x44b;" horiz-adv-x="1630" d="M68 0l165 1116h279l-53 -342h213q97 0 172.5 -24t122 -62.5t74.5 -91t36 -106.5t0 -111q-24 -170 -153.5 -274.5t-341.5 -104.5h-514zM377 236h184q112 0 169 44t67 111q8 60 -30.5 103t-127.5 43h-215zM1151 0l168 1116h285l-170 -1116h-283z" />
<glyph unicode="&#x44c;" horiz-adv-x="1177" d="M120 418q1 51 9 102l90 596h285l-41 -274q128 67 264 67q134 0 231 -63t138.5 -171t21.5 -239q-14 -92 -53.5 -172.5t-106.5 -147t-170 -105t-231 -38.5q-84 0 -153 18.5t-116 50t-81 75.5t-52.5 92.5t-27 103t-7.5 105.5zM403.5 418q-2.5 -33 7.5 -68t28 -63t56 -46 t91 -18q104 0 171 62.5t79 158.5q12 91 -34.5 153t-158.5 62q-109 0 -217 -51l-18 -129q-2 -28 -4.5 -61z" />
<glyph unicode="&#x44d;" horiz-adv-x="1234" d="M37 258l211 150q46 -80 124.5 -128.5t176.5 -48.5q109 0 199 61.5t131 162.5h-408l33 209h399q-19 99 -92 160t-178 61q-93 0 -179.5 -48.5t-146.5 -129.5l-201 141q96 147 243.5 222t312.5 75q175 0 303 -80.5t185.5 -223t31.5 -319.5q-37 -248 -214.5 -397.5 t-430.5 -149.5q-177 0 -304 74.5t-196 208.5z" />
<glyph unicode="&#x44e;" horiz-adv-x="1804" d="M68 0l231 1556h287l-133 -884h137q65 213 243.5 344t405.5 131q178 0 306.5 -85t180.5 -228t19 -314q-46 -241 -232 -395t-430 -154q-115 0 -211 36t-162 98.5t-105 147.5t-46 183h-143l-66 -436h-282zM854 569q-25 -137 47.5 -233t202.5 -96q131 0 233.5 92.5 t124.5 224.5q22 134 -50.5 228t-203.5 94q-127 0 -229 -89t-125 -221z" />
<glyph unicode="&#x44f;" horiz-adv-x="1187" d="M-18 0l337 403q-106 52 -147 150t-25 209q26 168 166.5 261t403.5 93h442l-166 -1116h-280l55 369q-99 -15 -188 -15l-281 -354h-317zM434 733q-9 -71 39.5 -110t151.5 -39q79 0 178 18l43 281h-148q-250 0 -264 -150z" />
<glyph unicode="&#x451;" horiz-adv-x="1282" d="M96 578q35 254 216 410.5t438 156.5q121 0 219.5 -40t164.5 -112.5t93 -182t8 -241.5q-9 -60 -27 -112h-839q8 -108 77 -173t203 -65q93 0 197.5 33t181.5 84l98 -209q-98 -66 -229.5 -109t-271.5 -43q-153 0 -266 51t-173.5 137t-83.5 191.5t-6 223.5zM401 672h570 q0 108 -63 170.5t-171 62.5q-113 0 -202.5 -61.5t-133.5 -171.5zM416 1409q11 69 65.5 115.5t124.5 46.5q74 0 118 -51.5t34 -124.5q-10 -72 -65 -119t-124 -47q-77 0 -121 51t-32 129zM860 1409q10 69 65 115.5t126 46.5q74 0 117.5 -51.5t33.5 -124.5t-64 -119.5 t-124 -46.5q-77 0 -120.5 51t-33.5 129z" />
<glyph unicode="&#x2000;" horiz-adv-x="999" />
<glyph unicode="&#x2001;" horiz-adv-x="1999" />
<glyph unicode="&#x2002;" horiz-adv-x="999" />
<glyph unicode="&#x2003;" horiz-adv-x="1999" />
<glyph unicode="&#x2004;" horiz-adv-x="666" />
<glyph unicode="&#x2005;" horiz-adv-x="499" />
<glyph unicode="&#x2006;" horiz-adv-x="333" />
<glyph unicode="&#x2007;" horiz-adv-x="333" />
<glyph unicode="&#x2008;" horiz-adv-x="249" />
<glyph unicode="&#x2009;" horiz-adv-x="399" />
<glyph unicode="&#x200a;" horiz-adv-x="111" />
<glyph unicode="&#x2010;" d="M123 432l41 270h842l-41 -270h-842z" />
<glyph unicode="&#x2011;" d="M123 432l41 270h842l-41 -270h-842z" />
<glyph unicode="&#x2012;" d="M123 432l41 270h842l-41 -270h-842z" />
<glyph unicode="&#x2013;" horiz-adv-x="1474" d="M123 432l41 270h1229l-41 -270h-1229z" />
<glyph unicode="&#x2014;" horiz-adv-x="2127" d="M123 432l41 270h1882l-41 -270h-1882z" />
<glyph unicode="&#x2018;" horiz-adv-x="514" d="M190 1280q30 196 353 387l80 -127q-6 -4 -26 -18t-27 -18.5t-24.5 -17t-25.5 -18t-22.5 -16.5t-23 -18.5t-19.5 -17t-20 -18.5t-17 -18q57 -10 89.5 -59t24.5 -111q-10 -62 -61 -103.5t-115 -41.5q-83 0 -131 62t-35 153z" />
<glyph unicode="&#x2019;" horiz-adv-x="509" d="M178 1176q7 5 33 22.5t35 24t30 21.5t31.5 23.5t26 21t26.5 24t21 22.5q-55 12 -88.5 61.5t-26.5 110.5q9 62 61 104t117 42q84 0 131 -62.5t33 -152.5q-26 -195 -350 -389z" />
<glyph unicode="&#x201a;" horiz-adv-x="509" d="M-25 -180q4 3 25.5 18t27.5 18.5t24.5 16.5t25.5 18.5t22 17t23 18.5t19 16.5t19.5 18.5t16.5 18q-55 12 -88.5 61.5t-26.5 110.5q9 62 61 103.5t118 41.5q84 0 131 -62.5t33 -152.5q-26 -194 -351 -389z" />
<glyph unicode="&#x201c;" horiz-adv-x="1026" d="M190 1280q30 196 353 387l80 -127q-6 -4 -26 -18t-27 -18.5t-24.5 -17t-25.5 -18t-22.5 -16.5t-23 -18.5t-19.5 -17t-20 -18.5t-17 -18q57 -10 89.5 -59t24.5 -111q-10 -62 -61 -103.5t-115 -41.5q-83 0 -131 62t-35 153zM702 1280q30 196 353 387l80 -127q-6 -4 -26 -18 t-27 -18.5t-24.5 -17t-25.5 -18t-22.5 -16.5t-23 -18.5t-19.5 -17t-20 -18.5t-17 -18q57 -10 89.5 -59t24.5 -111q-10 -62 -61 -103.5t-115 -41.5q-83 0 -131 62t-35 153z" />
<glyph unicode="&#x201d;" horiz-adv-x="1001" d="M178 1184q8 6 33 23t35 23.5t30.5 21t31.5 23.5t26.5 21.5t27 24t21.5 22.5q-57 10 -90 59t-25 111q10 62 61 104t115 42q83 0 131 -62t35 -153q-30 -197 -352 -387zM668 1184q6 4 29 20t30.5 21t27 18.5t28 20t24 19t25 21t20.5 19t20 20.5q-57 10 -89.5 59t-24.5 111 q10 62 61 104t115 42q83 0 131 -62t35 -153q-30 -197 -352 -387z" />
<glyph unicode="&#x201e;" horiz-adv-x="1001" d="M-25 -180q6 4 26 18t27 18.5t24.5 17t25.5 18t22.5 16.5t23 18.5t19.5 17t20 18.5t17 18q-57 10 -89.5 59t-24.5 111q10 62 61 103.5t115 41.5q83 0 131 -62t35 -153q-30 -196 -353 -387zM465 -180q6 4 26 18t27 18.5t24.5 17t25.5 18t22.5 16.5t23 18.5t19.5 17t20 18.5 t17 18q-57 10 -90 59t-25 111q10 62 61 103.5t115 41.5q83 0 131 -62t35 -153q-30 -197 -352 -387z" />
<glyph unicode="&#x2026;" horiz-adv-x="1523" d="M39 145q9 71 62 116.5t126 45.5q74 0 116 -50.5t30 -123.5q-12 -70 -65.5 -114t-121.5 -44q-72 0 -114.5 48.5t-32.5 121.5zM549 145q9 71 62 116.5t126 45.5q74 0 116 -50.5t30 -123.5q-12 -70 -65.5 -114t-121.5 -44q-72 0 -114.5 48.5t-32.5 121.5zM1057 145 q9 71 62 116.5t126 45.5q74 0 116 -50.5t30 -123.5q-12 -70 -65.5 -114t-121.5 -44q-72 0 -114.5 48.5t-32.5 121.5z" />
<glyph unicode="&#x202f;" horiz-adv-x="399" />
<glyph unicode="&#x2039;" horiz-adv-x="739" d="M92 596l338 416h307l-354 -416l223 -416h-295z" />
<glyph unicode="&#x203a;" horiz-adv-x="737" d="M39 180l348 416l-229 416h307l213 -416l-344 -416h-295z" />
<glyph unicode="&#x205f;" horiz-adv-x="499" />
<glyph unicode="&#x20ac;" horiz-adv-x="1548" d="M68 506l108 194h129q0 32 6 66l6 43h-151l108 195h103q102 242 311 389t469 147q129 0 252 -38t209 -107l-166 -232q-124 92 -291 92q-140 0 -255.5 -68t-188.5 -183h678l-117 -195h-645q-8 -28 -12 -64q-5 -35 -5 -45h611l-107 -194h-479q40 -115 138 -181.5t233 -66.5 q93 0 200.5 30.5t190.5 73.5l-35 -290q-85 -44 -199.5 -69.5t-218.5 -25.5q-253 0 -425 145.5t-212 383.5h-245z" />
<glyph unicode="&#x2122;" horiz-adv-x="1673" d="M205 1352l24 161h572l-25 -161h-198l-82 -555h-174l81 555h-198zM768 797l106 716h119l224 -393l348 393h121l-107 -716h-170l55 368l-241 -272h-70l-160 272l-55 -368h-170z" />
<glyph unicode="&#x25fc;" horiz-adv-x="1116" d="M0 0v1116h1116v-1116h-1116z" />
</font>
</defs>
</svg>
