<?xml version="1.0" standalone="no"?>
<!DOCTYPE svg PUBLIC "-//W3C//DTD SVG 1.1//EN" "http://www.w3.org/Graphics/SVG/1.1/DTD/svg11.dtd" >
<svg xmlns="http://www.w3.org/2000/svg" xmlns:xlink="http://www.w3.org/1999/xlink" version="1.1">
<metadata></metadata>
<defs>
<font id="axiformamedium_italic" horiz-adv-x="1265" >
<font-face units-per-em="2048" ascent="1638" descent="-410" />
<missing-glyph horiz-adv-x="512" />
<glyph horiz-adv-x="0" />
<glyph horiz-adv-x="682" />
<glyph unicode="&#xd;" horiz-adv-x="266" />
<glyph unicode=" "  horiz-adv-x="512" />
<glyph unicode="&#x09;" horiz-adv-x="512" />
<glyph unicode="&#xa0;" horiz-adv-x="512" />
<glyph unicode="!" horiz-adv-x="632" d="M125 123q9 61 54 99t106 38q64 0 100 -43.5t25 -105.5q-10 -60 -55.5 -98t-104.5 -38q-62 0 -98 42.5t-27 105.5zM199 385l159 1141h244l-182 -1141h-221z" />
<glyph unicode="&#x22;" horiz-adv-x="1013" d="M154 901l264 610h272l-319 -610h-217zM604 901l264 610h273l-320 -610h-217z" />
<glyph unicode="#" horiz-adv-x="1468" d="M66 412l63 186h227l117 338h-231l65 188h232l135 389h211l-133 -389h323l133 389h213l-133 -389h217l-65 -188h-215l-115 -338h217l-63 -186h-217l-140 -412h-217l141 412h-323l-141 -412h-220l144 412h-225zM571 598h324l115 338h-324z" />
<glyph unicode="$" horiz-adv-x="1175" d="M43 291l186 139q48 -115 131.5 -172t188.5 -57q117 0 193 61t89 148q9 61 -21 107t-93 87q-35 22 -141.5 77.5t-155.5 88.5q-96 65 -143 160.5t-29 214.5q23 154 136 259t284 130l34 192h213l-34 -198q193 -39 311 -207l-168 -154q-113 152 -281 152q-95 0 -165 -52 t-82 -137q-13 -111 104 -184q24 -15 152 -83.5t174 -98.5q95 -64 136.5 -161.5t24.5 -211.5q-24 -165 -145.5 -272.5t-296.5 -134.5l-37 -213h-215l37 213q-134 23 -235 100t-152 207z" />
<glyph unicode="%" horiz-adv-x="1818" d="M168 0l1335 1513h240l-1340 -1513h-235zM180 1174q23 152 149.5 259t284.5 107q162 0 260.5 -112t75.5 -269q-23 -154 -149.5 -260t-284.5 -106q-164 0 -262.5 112t-73.5 269zM358 1159q-13 -85 35.5 -140.5t134.5 -55.5q90 0 161 60t83 148q12 85 -37.5 142t-134.5 57 q-90 0 -160 -61t-82 -150zM969 354q23 153 149.5 260t282.5 107q164 0 263.5 -113t76.5 -270q-23 -154 -150.5 -258.5t-285.5 -104.5q-164 0 -261.5 111t-74.5 268zM1149 340q-14 -84 34 -140.5t134 -56.5q91 0 162.5 60.5t83.5 148.5q12 86 -37.5 143.5t-134.5 57.5 q-90 0 -160 -61.5t-82 -151.5z" />
<glyph unicode="&#x26;" horiz-adv-x="1431" d="M80 440q9 78 41.5 146.5t83.5 120.5t102 90t115 73q-75 147 -51 295q28 163 154.5 267t299.5 104q157 0 252.5 -95.5t75.5 -236.5q-8 -58 -36.5 -107.5t-64.5 -85t-93 -71.5t-105 -60t-119 -57q-23 -10 -35 -16q54 -58 88 -92l261 -260q97 97 184 215l133 -123 q-99 -126 -188 -221l202 -203l-145 -143l-201 206q-249 -206 -508 -206q-216 0 -342.5 130.5t-103.5 329.5zM305 436q-14 -115 56 -189.5t198 -74.5q86 0 168.5 37.5t175.5 114.5l-289 299q-30 30 -88 96q-202 -117 -221 -283zM565 1145q-17 -101 29 -191q166 70 219 101 q120 73 135 164q10 67 -30 108t-109 41q-84 0 -154.5 -59.5t-89.5 -163.5z" />
<glyph unicode="'" horiz-adv-x="561" d="M152 901l264 610h272l-319 -610h-217z" />
<glyph unicode="(" horiz-adv-x="819" d="M106 631q52 341 252.5 604.5t526.5 423.5l82 -178q-262 -157 -419 -379.5t-198 -503.5q-83 -556 346 -879l-121 -168q-278 174 -399.5 453t-69.5 627z" />
<glyph unicode=")" horiz-adv-x="819" d="M-94 -276q533 327 614 884q83 560 -346 877l115 170q279 -161 403.5 -446.5t71.5 -637.5q-53 -343 -255 -611t-523 -413z" />
<glyph unicode="*" horiz-adv-x="958" d="M195 1237l94 152l233 -129l39 299h174l-51 -295l268 125l49 -156l-292 -123l172 -219l-140 -111l-168 240l-235 -240l-121 111l229 221z" />
<glyph unicode="+" horiz-adv-x="1124" d="M94 606l33 213h389l57 387h213l-57 -387h385l-33 -213h-385l-57 -385l-213 -4l57 389h-389z" />
<glyph unicode="," horiz-adv-x="509" d="M-37 -188q4 3 24.5 16.5t25 17t22.5 16t24 16.5t20.5 15t21 17t18 16t18.5 17t15 16t14 18q-53 3 -85.5 45t-25.5 97q6 55 48.5 91t103.5 36q72 0 113 -53.5t30 -131.5q-24 -179 -319 -354z" />
<glyph unicode="-" horiz-adv-x="1069" d="M135 461l33 213h807l-33 -213h-807z" />
<glyph unicode="." horiz-adv-x="485" d="M53 123q9 61 53.5 99t106.5 38q64 0 100 -43.5t25 -105.5q-10 -60 -55.5 -98t-104.5 -38q-62 0 -98 42.5t-27 105.5z" />
<glyph unicode="/" horiz-adv-x="1284" d="M-66 -252l1264 1942h238l-1264 -1942h-238z" />
<glyph unicode="0" horiz-adv-x="1396" d="M135 581q-3 97 15 195q18 115 55 222t98 207t139 173.5t186 117.5t232 44q91 0 166.5 -24t129.5 -67t94 -102.5t63 -129.5t34 -149.5t9 -161t-15 -165.5q-18 -116 -54 -224t-96.5 -207.5t-138 -173t-185.5 -117.5t-232 -44q-105 0 -189.5 32t-140.5 88.5t-96.5 133.5 t-55.5 166t-18 186zM372.5 589.5q-0.5 -82.5 16 -155t49 -125t87 -82.5t126.5 -30q92 0 170.5 45.5t134 125t93 179t55.5 213.5q11 71 13 137t-5 129.5t-27.5 116t-52 92.5t-82 62t-114.5 22q-90 0 -166 -42.5t-130.5 -118.5t-92.5 -175t-58 -219q-16 -92 -16.5 -174.5z" />
<glyph unicode="1" horiz-adv-x="811" d="M111 1149l489 364h188l-225 -1513h-233l174 1182l-277 -201z" />
<glyph unicode="2" horiz-adv-x="1163" d="M39 0l24 197l558 516q49 45 63 58t54 51.5t54 55.5t41 50.5t38 56t22.5 52.5t15.5 59q13 100 -49.5 162.5t-171.5 62.5q-184 0 -383 -176l-117 178q122 108 256.5 162.5t266.5 54.5q213 0 336.5 -130.5t93.5 -340.5q-29 -203 -295 -448l-438 -404h622l-31 -217h-960z" />
<glyph unicode="3" horiz-adv-x="1140" d="M-2 129l121 184q170 -120 338 -120q139 0 232 65t108 172q15 104 -53.5 171t-194.5 67h-197l33 213h182q119 0 202.5 63t98.5 164q13 98 -47.5 155.5t-169.5 57.5q-163 0 -352 -127l-96 172q97 79 231.5 126.5t263.5 47.5q140 0 241.5 -59.5t145 -154t25.5 -202.5 q-20 -118 -102 -204.5t-209 -128.5q136 -37 197 -139t40 -242q-28 -195 -187.5 -315t-395.5 -120q-238 0 -455 154z" />
<glyph unicode="4" horiz-adv-x="1230" d="M29 518l962 995h152l-139 -940h165l-28 -202h-168l-55 -371h-226l56 371h-693zM334 573h442l80 543z" />
<glyph unicode="5" horiz-adv-x="1183" d="M27 158l125 176q163 -141 352 -141q144 0 246.5 85.5t123.5 215.5q19 121 -52 199.5t-201 78.5q-167 0 -291 -115l-135 101l143 755h805l-31 -213h-616l-66 -370q109 53 240 53q141 0 248.5 -63.5t160 -180.5t31.5 -264q-21 -145 -105.5 -259t-217 -177.5t-291.5 -63.5 q-267 0 -469 183z" />
<glyph unicode="6" d="M131.5 490.5q-5.5 110.5 11.5 234.5q20 132 62 251.5t108.5 223t150.5 179t193 118.5t232 43q101 0 202 -34t179 -101l-119 -168q-119 96 -272 96q-99 0 -185.5 -46t-148 -124.5t-103 -178t-59.5 -210.5q70 99 171.5 151t219.5 52q211 0 329 -143.5t87 -356.5 t-193.5 -354t-384.5 -141q-110 0 -198.5 38t-146 105.5t-94 161t-42 204zM383 489q-22 -125 46 -213t192 -88t220.5 87t116.5 214q19 126 -50.5 206.5t-192.5 80.5q-125 0 -217.5 -82t-114.5 -205z" />
<glyph unicode="7" horiz-adv-x="1044" d="M109 0l757 1300h-692l31 213h962l-20 -149l-778 -1364h-260z" />
<glyph unicode="8" horiz-adv-x="1286" d="M90 432q19 126 111.5 223t247.5 152q-104 54 -151.5 145.5t-27.5 198.5q26 172 176 280.5t363 108.5q217 0 336.5 -117.5t91.5 -292.5q-17 -105 -91.5 -190t-197.5 -139q133 -57 196.5 -165.5t41.5 -238.5q-31 -187 -200.5 -304.5t-410.5 -117.5q-245 0 -380.5 130.5 t-104.5 326.5zM324 438q-19 -110 58.5 -183t213.5 -73q141 0 244.5 72t120.5 186q14 105 -62 177.5t-215 72.5q-146 0 -245.5 -72t-114.5 -180zM481 1116q-14 -95 48.5 -159t181.5 -64q121 0 203 64t100 161q19 96 -46 160.5t-182 64.5q-120 0 -205 -64t-100 -163z" />
<glyph unicode="9" horiz-adv-x="1259" d="M104 106l101 177q121 -101 284 -101q99 0 182 43t142.5 119t100.5 171t65 208q-157 -180 -387 -180q-141 0 -244 69t-148 186.5t-26 260.5q31 216 183 348.5t374 132.5q115 0 206 -39t149.5 -108.5t95 -165.5t42 -209.5t-9.5 -241.5q-17 -127 -54.5 -242.5t-100 -218 t-144 -178t-191 -119t-235.5 -43.5q-115 0 -216 34.5t-169 96.5zM397 1032q-15 -125 56 -207t192 -82q127 0 224 86.5t110 214.5q12 122 -60.5 206.5t-193.5 84.5q-123 0 -217 -85.5t-111 -217.5z" />
<glyph unicode=":" horiz-adv-x="544" d="M82 123q9 61 53.5 99t106.5 38q64 0 100 -43.5t25 -105.5q-10 -60 -55.5 -98t-104.5 -38q-62 0 -98 42.5t-27 105.5zM193 872q9 61 53 99.5t106 38.5q64 0 100 -44t25 -106q-10 -60 -55.5 -97.5t-104.5 -37.5q-62 0 -97.5 42t-26.5 105z" />
<glyph unicode=";" horiz-adv-x="595" d="M10 -188q4 3 24.5 16.5t25 17t22.5 16t24 16.5t20.5 15t21 17t18 16t18.5 17t15 16t14 18q-53 3 -85.5 45t-25.5 97q6 55 48.5 91t103.5 36q72 0 113 -53.5t30 -131.5q-24 -179 -319 -354zM221 872q9 61 54.5 99.5t107.5 38.5q64 0 101 -44t26 -106q-10 -61 -56.5 -99 t-105.5 -38q-63 0 -99.5 42.5t-27.5 106.5z" />
<glyph unicode="&#x3c;" horiz-adv-x="1161" d="M90 573l27 201l1020 463l-33 -231l-760 -330l660 -330l-33 -233z" />
<glyph unicode="=" horiz-adv-x="1224" d="M133 387l29 197h946l-29 -197h-946zM188 758l29 196h946l-28 -196h-947z" />
<glyph unicode="&#x3e;" horiz-adv-x="1116" d="M74 90l32 234l707 329l-606 328l33 233l858 -485l-21 -156z" />
<glyph unicode="?" horiz-adv-x="1073" d="M186 1348q99 102 229 161.5t263 59.5q200 0 322 -126t92 -308q-11 -70 -43 -132t-75.5 -107.5t-94 -87t-100.5 -79t-92 -75t-72 -83.5t-37 -96l-19 -115h-215l23 154q13 88 65 160t118 122.5t131.5 98t116.5 108t62 130.5q13 100 -46 161.5t-161 61.5q-86 0 -176.5 -46 t-169.5 -122zM281 121q8 58 52 97.5t105 39.5q65 0 101.5 -43.5t25.5 -105.5q-10 -60 -55 -98t-104 -38q-62 0 -98 42.5t-27 105.5z" />
<glyph unicode="@" horiz-adv-x="1988" d="M115 596q26 196 120.5 367t234.5 292.5t323.5 191t382.5 69.5q186 0 344 -67.5t261 -180.5t150.5 -267.5t22.5 -322.5q-22 -149 -94 -272.5t-176 -195t-218 -71.5q-93 0 -148.5 45.5t-70.5 110.5q-64 -74 -152.5 -115t-183.5 -41q-179 0 -284.5 131.5t-75.5 325.5 q28 184 165 310t316 126q91 0 165 -35.5t116 -101.5l16 106h180l-86 -559q-10 -66 12.5 -101.5t67.5 -35.5q86 0 169 118t106 279q26 181 -47 329.5t-221.5 232t-338.5 82.5q-163 -1 -313.5 -58.5t-267 -158t-194.5 -245t-97 -311.5q-19 -160 21.5 -299.5t127 -238 t218.5 -155t290 -56.5q157 0 313.5 54t284.5 147l78 -150q-124 -95 -311.5 -159t-382.5 -64q-200 0 -366.5 74t-274.5 201t-157.5 301t-24.5 368zM733 573q-15 -112 44 -190t171 -78q117 0 209 85t111 206q17 117 -45.5 193.5t-169.5 76.5q-114 0 -208 -83.5t-112 -209.5z " />
<glyph unicode="A" horiz-adv-x="1394" d="M-43 0l825 1513h154l373 -1513h-254l-86 373h-557l-197 -373h-258zM518 590h408l-119 549z" />
<glyph unicode="B" horiz-adv-x="1388" d="M121 0l225 1513h598q88 0 159 -22.5t115.5 -59.5t71.5 -87q28 -48 36 -102q4 -28 5 -56q0 -26 -4 -53q-14 -104 -81 -187t-171 -119q129 -36 189 -144q44 -80 44 -178q0 -34 -5 -71q-13 -89 -53 -166t-105.5 -137.5t-164.5 -95.5t-220 -35h-639zM385 215h330 q84 0 149 20.5t105 55.5t62.5 76.5t29.5 89.5q2 18 2 35q-1 78 -49 136q-60 70 -191 70h-366zM487 907h334q113 0 182.5 62.5t81.5 144.5q2 13 2 25q-1 60 -41 105q-48 54 -147 54h-352z" />
<glyph unicode="C" horiz-adv-x="1583" d="M135 766q22 174 103.5 321t200.5 245.5t268 153t309 54.5q212 0 370 -90.5t248 -241.5l-182 -143q-66 113 -178.5 180.5t-267.5 67.5q-157 0 -291 -68t-223 -194t-111 -287q-7 -47 -6 -91q0 -71 16 -135q27 -104 89.5 -176t157 -112.5t208.5 -40.5q148 0 283.5 66 t242.5 184l150 -158q-131 -146 -316.5 -235t-392.5 -89q-161 0 -296.5 57t-228 158t-134.5 250q-27 96 -27 203q0 59 8 121z" />
<glyph unicode="D" horiz-adv-x="1560" d="M121 0l225 1513h539q342 -1 508 -207q128 -159 128 -405q0 -74 -12 -156q-48 -348 -260.5 -546.5t-550.5 -198.5h-577zM389 225h313q120 0 220 42t169.5 116t114.5 172t62 213q10 56 10 108q0 51 -10 98q-18 95 -63.5 164.5t-129 109.5t-194.5 40h-334z" />
<glyph unicode="E" d="M121 0l225 1513h967l-33 -223h-731l-64 -411h678l-33 -224h-677l-64 -432h733l-32 -223h-969z" />
<glyph unicode="F" horiz-adv-x="1191" d="M121 0l225 1513h952l-32 -227h-719l-64 -414h627l-33 -225h-626l-95 -647h-235z" />
<glyph unicode="G" horiz-adv-x="1660" d="M141 782q34 229 165.5 403.5t320.5 264.5t405 90q192 0 350 -75.5t244 -196.5l-176 -152q-70 96 -181 146.5t-245 50.5q-159 0 -296 -66t-230.5 -194t-118.5 -297q-6 -44 -6 -86q0 -103 37 -193q52 -126 165.5 -199t264.5 -73q138 0 267 54t224 149l39 260h-479l33 213 h698l-82 -594q-156 -153 -341.5 -231.5t-381.5 -78.5q-223 0 -390 105t-243 290q-53 127 -53 275q0 65 10 135z" />
<glyph unicode="H" horiz-adv-x="1560" d="M121 0l225 1513h236l-93 -628h719l95 628h235l-225 -1513h-236l99 657h-721l-99 -657h-235z" />
<glyph unicode="I" horiz-adv-x="604" d="M121 0l225 1513h236l-226 -1513h-235z" />
<glyph unicode="J" horiz-adv-x="1161" d="M-23 188l142 170q59 -74 138.5 -114.5t168.5 -40.5q142 0 231.5 101t114.5 257l143 952h238l-141 -952q-23 -151 -79 -266t-135.5 -183.5t-172.5 -102.5t-199 -34q-135 0 -251 55t-198 158z" />
<glyph unicode="K" horiz-adv-x="1382" d="M121 0l225 1513h236l-115 -774l768 774h285l-689 -704l512 -809h-290l-400 643l-237 -237l-60 -406h-235z" />
<glyph unicode="L" horiz-adv-x="1247" d="M121 0l225 1513h236l-193 -1286h799l-33 -227h-1034z" />
<glyph unicode="M" horiz-adv-x="1894" d="M121 0l225 1513h129l496 -927l768 927h135l-225 -1513h-238l145 969l-602 -721h-69l-387 721l-144 -969h-233z" />
<glyph unicode="N" horiz-adv-x="1607" d="M121 0l225 1513h121l729 -1034l156 1034h233l-225 -1513h-137l-713 1026l-156 -1026h-233z" />
<glyph unicode="O" horiz-adv-x="1746" d="M137 766q23 163 105.5 307.5t202 246.5t273 161t314.5 59q224 0 391 -107.5t241 -288.5q52 -125 52 -266q0 -62 -10 -128q-33 -214 -162 -392t-322.5 -280.5t-408.5 -102.5q-163 0 -301 62.5t-227 169t-130 252.5q-26 94 -26 193q0 56 8 114zM383 752q-7 -47 -7 -92 q0 -102 36 -188q52 -126 162.5 -195.5t256.5 -69.5q147 0 282 70.5t229.5 198.5t119.5 286q8 51 8 99q0 96 -33 180q-50 125 -161.5 195.5t-261.5 70.5q-151 0 -287 -71t-228.5 -198.5t-115.5 -285.5z" />
<glyph unicode="P" d="M121 0l225 1513h506q91 0 165 -19t124 -53t86.5 -79.5t52.5 -99.5q18 -54 24 -113q3 -23 2 -47q0 -36 -6 -72q-13 -99 -54.5 -181t-114 -148t-187 -103t-260.5 -37h-244l-84 -561h-235zM473 778h236q156 0 247 76t107 190q3 21 3 40q0 78 -46 136q-56 72 -178 72h-293z " />
<glyph unicode="Q" horiz-adv-x="1746" d="M137 766q23 163 105.5 307.5t202 246.5t273 161t314.5 59q224 0 391 -107.5t241 -288.5q52 -125 52 -266q0 -63 -10 -128q-38 -252 -207.5 -449t-408.5 -278q99 -99 258 -99q84 0 213 39l12 -201q-107 -41 -248 -41q-147 0 -275 63t-214 191h-23q-163 0 -301 62.5 t-227 169t-130 252.5q-26 94 -26 193q0 56 8 114zM383 752q-7 -47 -7 -92q0 -100 36 -188q52 -125 162.5 -195t256.5 -70q147 0 282 70.5t229.5 198.5t119.5 286q8 51 8 99q0 97 -33 180q-50 125 -161.5 195.5t-261.5 70.5q-151 0 -287 -71t-228.5 -198.5t-115.5 -285.5z " />
<glyph unicode="R" horiz-adv-x="1335" d="M121 0l225 1513h518q101 0 181 -27t131 -72.5t82 -105.5q30 -61 40 -126q5 -35 6 -71q0 -30 -4 -62q-13 -100 -57.5 -185.5t-132.5 -155t-209 -96.5l309 -612h-284l-283 594h-199l-88 -594h-235zM477 813h240q163 0 245 67.5t97 176.5q3 20 3 38q0 77 -44 129 q-54 66 -170 66h-299z" />
<glyph unicode="S" horiz-adv-x="1175" d="M35 291l188 139q48 -115 132.5 -172t191.5 -57q118 0 195.5 61.5t88.5 147.5q2 14 2 27q0 44 -23 80q-30 46 -95 87q-35 22 -142.5 77.5t-156.5 88.5q-98 64 -146 160q-35 70 -35 152q0 30 5 63q27 175 169 285t351 110q283 0 434 -219l-170 -154q-113 152 -283 152 q-97 0 -168 -52t-81 -137q-2 -13 -2 -25q0 -93 106 -159q19 -11 150.5 -80.5t179.5 -101.5q96 -64 138 -161q31 -72 32 -153q0 -29 -4 -59q-30 -192 -188.5 -304t-371.5 -112q-171 0 -302.5 80.5t-194.5 235.5z" />
<glyph unicode="T" horiz-adv-x="1181" d="M158 1284l32 229h1125l-33 -229h-444l-193 -1284h-237l192 1284h-442z" />
<glyph unicode="U" horiz-adv-x="1458" d="M184 565l146 948h235l-143 -938q-8 -54 -8 -99q0 -114 50 -180q70 -90 220 -91q156 0 259.5 96.5t129.5 267.5l141 944h238l-143 -964q-43 -280 -217 -428t-422 -148q-124 0 -222.5 38t-165.5 111q-68 72 -94 186q-14 62 -14 133q0 59 10 124z" />
<glyph unicode="V" horiz-adv-x="1470" d="M176 1513h270l285 -1124l621 1124h262l-862 -1513h-158z" />
<glyph unicode="W" horiz-adv-x="2131" d="M182 1513h252l184 -1079l545 1079h125l230 -1079l501 1079h254l-737 -1513h-158l-213 1085l-534 -1085h-162z" />
<glyph unicode="X" horiz-adv-x="1312" d="M-49 0l612 766l-360 747h274l254 -567l436 567h283l-600 -747l377 -766h-275l-272 578l-447 -578h-282z" />
<glyph unicode="Y" horiz-adv-x="1335" d="M197 1513h266l254 -733l483 733h268l-667 -974l-80 -539h-236l80 539z" />
<glyph unicode="Z" horiz-adv-x="1286" d="M2 0l21 156l970 1136h-764l33 221h1092l-21 -159l-956 -1133h807l-33 -221h-1149z" />
<glyph unicode="[" horiz-adv-x="782" d="M39 -465l317 2126h574l-29 -193h-342l-262 -1740h342l-27 -193h-573z" />
<glyph unicode="\" horiz-adv-x="1275" d="M231 1690h228l674 -1942h-226z" />
<glyph unicode="]" horiz-adv-x="782" d="M-96 -465l26 193h342l260 1740h-342l31 193h574l-318 -2126h-573z" />
<glyph unicode="^" horiz-adv-x="1079" d="M143 883l490 651h141l293 -651h-219l-174 417l-301 -417h-230z" />
<glyph unicode="_" horiz-adv-x="1198" d="M-119 -362l31 206h1198l-31 -206h-1198z" />
<glyph unicode="`" horiz-adv-x="841" d="M260 1618h260l72 -348h-195z" />
<glyph unicode="a" horiz-adv-x="1370" d="M96 430q-3 27 -3 54q0 51 9 104q24 160 112.5 284t220.5 191t286 67q233 0 364 -186l25 160h217l-166 -1104h-215l23 158q-173 -185 -402 -185q-84 0 -156.5 23t-126.5 64.5t-96 98.5t-63 125.5t-29 145.5zM336 590q-9 -47 -9 -91q-1 -54 13 -105q26 -93 101 -153.5 t186 -60.5q156 0 268.5 109t134.5 266q5 33 5 65q-1 108 -65 194q-84 110 -237 110q-147 0 -256 -95.5t-141 -238.5z" />
<glyph unicode="b" horiz-adv-x="1374" d="M82 0l231 1554l226 -2l-88 -594q165 172 383 172q153 0 270 -78q116 -77 172 -211q40 -97 41 -209q0 -42 -6 -87q-15 -121 -67 -226t-130.5 -181.5t-185 -120.5t-226.5 -44q-239 0 -372 203l-25 -176h-223zM385 557q-5 -35 -5 -67q0 -114 65 -198q84 -108 237 -108 q159 0 267.5 105.5t129.5 263.5q5 33 5 64q0 63 -20 119q-30 84 -104 135t-178 51q-158 0 -268 -105.5t-129 -259.5z" />
<glyph unicode="c" horiz-adv-x="1228" d="M106 565q22 173 114 303t227.5 196t295.5 66q169 0 296 -76.5t186 -222.5l-193 -98q-39 88 -113 139.5t-178 51.5q-155 0 -272.5 -105.5t-138.5 -271.5q-4 -28 -3 -55q0 -118 68 -204q84 -106 230 -106q103 0 201 52t159 141l166 -123q-87 -131 -232.5 -204t-312.5 -73 q-170 0 -293 78q-123 79 -176 213q-37 95 -37 205q0 46 6 94z" />
<glyph unicode="d" horiz-adv-x="1376" d="M100 588q35 242 207 392t404 150q242 0 372 -190l91 612h227l-234 -1552h-223l21 139q-169 -166 -390 -166q-164 0 -282.5 87.5t-167.5 227.5q-33 94 -33 197q0 50 8 103zM334 590q-9 -44 -9 -87q0 -57 16 -110q27 -93 102.5 -153t185.5 -60q155 0 268.5 109.5 t132.5 261.5q3 27 3 53q1 66 -21 126q-30 84 -106 139t-183 55q-145 0 -253 -95.5t-136 -238.5z" />
<glyph unicode="e" horiz-adv-x="1261" d="M96 445q0 4 -1 8q0 58 7 118q37 250 213 404.5t426 154.5q240 0 371 -153q101 -118 101 -300q0 -54 -9 -114q-10 -63 -20 -98h-865q5 -128 81.5 -208.5t232.5 -80.5q97 0 206 34t189 89l80 -172q-92 -65 -224.5 -108.5t-269.5 -43.5q-87 0 -161.5 17.5t-129 49t-98.5 75 t-70 96t-42.5 111.5t-16.5 121zM348 649h643q1 14 1 28q0 111 -65 181q-73 78 -198 78q-130 0 -233.5 -78t-147.5 -209z" />
<glyph unicode="f" horiz-adv-x="833" d="M127 911l29 193h182l10 65q30 201 158.5 309.5t314.5 108.5q155 0 269 -71l-91 -175q-82 39 -161 39q-230 0 -267 -237l-6 -39h350l-30 -193h-348l-136 -911h-225l133 911h-182z" />
<glyph unicode="g" horiz-adv-x="1359" d="M20 -307l111 170q71 -56 172 -93.5t203 -37.5q177 0 294.5 100t141.5 256l8 72q-159 -162 -381 -162q-164 0 -280.5 76.5t-166.5 208.5q-35 92 -35 198q0 47 7 97q24 164 115.5 291t225 194t286.5 67q234 0 356 -184l23 158h217l-152 -998q-40 -269 -217 -422t-444 -153 q-142 0 -266 44t-218 118zM322 553q-4 -32 -4 -62q0 -112 62 -191q79 -101 226 -101q153 0 271 107t143 267q5 33 5 64q0 110 -64 189q-82 100 -228 100q-159 0 -274.5 -101.5t-136.5 -271.5z" />
<glyph unicode="h" horiz-adv-x="1280" d="M82 0l231 1552h219l-92 -604q60 86 160 135.5t217 49.5q86 0 158.5 -28.5t126.5 -85.5t76 -153q12 -53 12 -115q0 -50 -8 -106l-95 -645h-227l90 612q7 44 7 83q0 93 -41 149q-58 80 -177 80q-133 0 -228 -96.5t-118 -256.5l-86 -571h-225z" />
<glyph unicode="i" horiz-adv-x="518" d="M84 0l166 1104h225l-166 -1104h-225zM254 1409q10 63 58.5 103t111.5 40q66 0 105 -45q32 -37 31 -88q0 -12 -1 -24q-9 -62 -57 -104t-109 -42q-69 0 -109 46q-32 37 -32 90q0 11 2 24z" />
<glyph unicode="j" horiz-adv-x="514" d="M-367 -412l68 181q65 -35 139 -35q195 0 240 297l162 1073h225l-168 -1116q-37 -238 -153.5 -348.5t-292.5 -110.5q-132 0 -220 59zM246 1409q10 63 58.5 103t111.5 40q66 0 105 -45q32 -37 32 -88q0 -11 -2 -24q-9 -62 -57 -104t-109 -42q-69 0 -109 46q-32 37 -32 90 q0 11 2 24z" />
<glyph unicode="k" horiz-adv-x="1140" d="M82 0l231 1552h226l-131 -872l528 424h299l-578 -461l433 -643h-289l-324 502l-108 -88l-62 -414h-225z" />
<glyph unicode="l" horiz-adv-x="516" d="M82 0l231 1552h226l-232 -1552h-225z" />
<glyph unicode="m" horiz-adv-x="2013" d="M82 0l166 1104h219l-23 -158q58 86 155 136.5t204 52.5q110 -2 196 -54t117 -147q69 94 180 147.5t236 53.5q204 -1 310 -133q81 -101 81 -253q0 -47 -8 -100l-96 -649h-226l93 625q6 41 6 76q0 91 -40 147q-54 76 -167 76q-124 0 -216.5 -87t-113.5 -235l-90 -602h-225 l92 621q5 39 5 74q-1 91 -39 149q-54 80 -169 80q-124 0 -216.5 -88t-117.5 -252l-88 -584h-225z" />
<glyph unicode="n" horiz-adv-x="1282" d="M82 0l166 1104h219l-23 -156q60 87 158.5 136t214.5 49q86 0 158.5 -28.5t126.5 -85.5t76 -153q12 -53 12 -115q0 -50 -8 -106l-95 -645h-227l90 612q7 44 7 83q0 93 -41 149q-58 80 -177 80q-133 0 -228 -96.5t-118 -256.5l-86 -571h-225z" />
<glyph unicode="o" horiz-adv-x="1312" d="M98 567q38 247 225 406.5t433 159.5q168 0 290 -80.5t174 -216.5q35 -92 36 -197q0 -50 -9 -104q-39 -241 -223 -402.5t-428 -161.5q-129 0 -232.5 48.5t-166.5 130.5t-90 190q-16 65 -16 134q0 46 7 93zM324 555q-5 -33 -4 -64q0 -115 63 -201q81 -108 227 -108 q150 0 270.5 109t143.5 264q5 32 5 62q0 113 -66 199q-83 108 -230 108q-148 0 -267 -106.5t-142 -262.5z" />
<glyph unicode="p" horiz-adv-x="1374" d="M14 -455l234 1559h223l-18 -139q162 165 376 165q153 0 271 -77.5t174 -212.5q42 -99 42 -213q0 -40 -5 -82q-20 -162 -100 -291.5t-212 -205t-292 -75.5q-241 0 -377 207l-90 -635h-226zM385 557q-5 -32 -5 -62q0 -116 68 -203q85 -108 238 -108q159 0 266.5 105.5 t126.5 263.5q4 31 4 60q0 65 -21 123q-31 83 -105.5 134.5t-178.5 51.5q-158 0 -266.5 -105.5t-126.5 -259.5z" />
<glyph unicode="q" horiz-adv-x="1378" d="M96 403q-3 37 -3 76q0 54 7 111q38 242 210 391t403 149q242 0 372 -190l25 164h225l-233 -1559h-228l84 590q-162 -162 -383 -162q-103 0 -190 33.5t-144.5 92t-96.5 136.5t-48 168zM334 588q-10 -47 -10 -91q0 -57 16 -109q28 -93 104 -150.5t185 -57.5 q155 0 267.5 109t133.5 262q4 28 4 55q0 64 -20 122q-29 84 -103.5 140t-181.5 56q-146 0 -255.5 -96t-139.5 -240z" />
<glyph unicode="r" horiz-adv-x="835" d="M82 0l166 1104h213l-25 -154q124 183 344 183q64 0 144 -21l-62 -217q-59 20 -119 20t-116 -21.5t-105 -63.5t-84.5 -113t-48.5 -162l-82 -555h-225z" />
<glyph unicode="s" horiz-adv-x="960" d="M20 211l154 123q38 -81 109 -122.5t155 -41.5q79 0 139 37.5t70 95.5q1 9 1 18q0 67 -81 111q-28 15 -84 40.5t-96 43.5t-88 51.5t-76 68.5q-29 36 -43 90q-9 32 -8 68q0 25 4 52q21 137 133.5 216t268.5 79q111 0 204 -44.5t148 -131.5l-144 -131q-75 118 -223 118 q-70 0 -114.5 -31.5t-55.5 -78.5q-3 -15 -3 -28q0 -32 16 -54q24 -32 75 -58q28 -15 91 -43q62 -28 94.5 -44.5t82.5 -50.5t73.5 -67.5t37.5 -85.5q8 -30 8 -64q0 -24 -4 -50q-24 -149 -146.5 -236.5t-291.5 -87.5q-139 0 -243.5 61t-162.5 177z" />
<glyph unicode="t" horiz-adv-x="897" d="M104 911l31 193h191l59 391h223l-59 -391h383l-31 -193h-381l-78 -524q-4 -31 -5 -57q0 -150 143 -150q93 0 202 64l58 -183q-143 -88 -320 -88q-183 0 -258 113q-54 81 -54 208q0 51 9 109l76 508h-189z" />
<glyph unicode="u" horiz-adv-x="1230" d="M137 479l96 625h226l-97 -635q-5 -36 -5 -67q0 -88 41 -144q56 -76 173 -76q125 0 206.5 81t103.5 229l94 612h225l-94 -625q-37 -250 -183.5 -378t-371.5 -128q-223 -1 -337 131q-87 99 -86 263q0 53 9 112z" />
<glyph unicode="v" horiz-adv-x="1175" d="M123 1104h252l198 -789l433 789h249l-649 -1102h-164z" />
<glyph unicode="w" horiz-adv-x="1744" d="M123 1104h235l129 -793l406 793h158l174 -793l360 793h236l-535 -1102h-192l-170 782l-396 -782h-194z" />
<glyph unicode="x" horiz-adv-x="1069" d="M-51 0l465 569l-260 535h260l170 -373l290 373h263l-445 -547l289 -557h-262l-191 397l-311 -397h-268z" />
<glyph unicode="y" horiz-adv-x="1165" d="M-53 -414l61 187q68 -35 131 -35q72 0 132 44.5t120 147.5l51 84l-317 1090h260l205 -795l401 795h250l-631 -1198q-106 -200 -217.5 -287.5t-245.5 -87.5q-120 0 -200 55z" />
<glyph unicode="z" horiz-adv-x="1060" d="M0 0l20 150l719 759h-571l29 193h874l-18 -141l-717 -768h620l-28 -193h-928z" />
<glyph unicode="{" horiz-adv-x="784" d="M55 512l25 164q43 8 72 15.5t65.5 23.5t60 37t42.5 55.5t26 79.5q8 52 33 196.5t37 219.5q53 358 422 358h102l-31 -199h-61q-188 0 -213 -184q-10 -66 -35 -212t-33 -198q-14 -97 -83.5 -167t-168.5 -111q84 -36 134 -107t36 -168q-32 -240 -57 -409q-12 -90 24.5 -135 t131.5 -45h67l-30 -199h-105q-180 0 -259.5 94t-51.5 277q9 64 27.5 207.5t27.5 199.5q7 45 -2 79.5t-26 55t-48.5 36t-59.5 22.5t-69 14z" />
<glyph unicode="|" horiz-adv-x="555" d="M53 -367l314 2102h211l-314 -2102h-211z" />
<glyph unicode="}" horiz-adv-x="784" d="M-106 -473l28 199h64q185 0 213 186q9 69 34 217.5t31 189.5q26 178 248 277q-85 40 -132.5 111.5t-33.5 166.5l60 410q14 88 -22.5 133t-131.5 45h-68l31 199h98q183 0 263.5 -92.5t54.5 -272.5q-46 -334 -58 -413q-7 -45 2 -79t25.5 -54.5t49 -36t58 -22t68.5 -15.5 l-22 -164q-42 -7 -72 -14.5t-66 -23.5t-60 -37t-43 -56t-26 -80q-6 -41 -32 -185.5t-37 -224.5q-53 -364 -418 -364h-106z" />
<glyph unicode="~" horiz-adv-x="1388" d="M147 623q154 213 390 213q54 0 105.5 -14t91 -34t75.5 -40t74 -34t73 -14q65 0 115 29t113 100l133 -114q-161 -215 -393 -215q-66 0 -129.5 21.5t-105 47t-91.5 47t-92 21.5q-62 0 -111.5 -29.5t-113.5 -99.5z" />
<glyph unicode="&#xa2;" horiz-adv-x="1255" d="M115 565q21 165 104.5 290.5t207.5 194t273 78.5l25 164h145l-24 -168q136 -19 236.5 -93.5t150.5 -199.5l-193 -98q-68 156 -225 185l-110 -730q85 15 161 64.5t127 122.5l166 -123q-79 -119 -207 -191t-278 -84l-25 -159h-145l24 164q-219 29 -331.5 191t-81.5 392z M338 547q-15 -132 46 -231.5t175 -125.5l109 725q-129 -27 -220.5 -126t-109.5 -242z" />
<glyph unicode="&#xa3;" horiz-adv-x="1179" d="M47 0l27 190q95 68 167 179t87 215q5 37 2 86h-187l29 188h125q-33 154 -16 258q34 195 181 308.5t347 115.5q140 1 250 -65t162 -177l-181 -124q-29 67 -91 107t-136 40q-115 0 -198 -72t-103 -188q-14 -79 12 -203h492l-29 -188h-430q6 -60 -6 -127q-15 -89 -67 -176 t-128 -150h707l-33 -217h-983z" />
<glyph unicode="&#xa5;" horiz-adv-x="1345" d="M180 319l27 177h358l13 86l-9 22h-346l27 174h254l-279 735h254l248 -702l463 702h260l-500 -735h246l-27 -174h-338l-18 -26l-12 -82h352l-27 -177h-352l-47 -319h-235l47 319h-359z" />
<glyph unicode="&#xa8;" horiz-adv-x="1024" d="M250 1442q9 61 57 102t111 41t101.5 -44t29.5 -107q-9 -64 -57 -106t-109 -42q-68 0 -105.5 44.5t-27.5 111.5zM670 1442q7 61 56 102t112 41t101.5 -44t29.5 -107q-10 -64 -58.5 -106t-107.5 -42q-68 0 -105.5 44.5t-27.5 111.5z" />
<glyph unicode="&#xa9;" horiz-adv-x="1755" d="M137 768q32 217 165 395t327 277.5t405 99.5q163 0 302 -63t230 -168.5t131.5 -251.5t16.5 -305q-23 -158 -105 -301t-201.5 -247.5t-275 -166.5t-319.5 -62q-160 0 -297 62.5t-228 168t-132.5 252.5t-18.5 310zM289 760q-19 -131 14 -249.5t106 -203t182.5 -134.5 t237.5 -50q177 0 336.5 85.5t265.5 231.5t132 320q20 128 -13 245t-105.5 201.5t-183.5 134.5t-241 50q-172 0 -330 -81.5t-266.5 -227t-134.5 -322.5zM512 766q26 178 161 295t312 117q104 0 186 -45.5t129 -124.5l-124 -80q-74 104 -205 104q-117 0 -201.5 -78.5 t-99.5 -199.5q-15 -120 45 -196.5t174 -76.5q64 0 127 27.5t108 73.5l97 -99q-64 -69 -156.5 -108t-190.5 -39q-181 0 -284.5 124.5t-77.5 305.5z" />
<glyph unicode="&#xab;" horiz-adv-x="1103" d="M102 596l347 416h233l-354 -416l227 -416h-225zM510 596l342 416h235l-352 -416l223 -416h-225z" />
<glyph unicode="&#xad;" horiz-adv-x="1069" d="M135 461l33 213h807l-33 -213h-807z" />
<glyph unicode="&#xae;" horiz-adv-x="1179" d="M184 1079q29 210 194 352t374 142q144 0 252 -70t156.5 -186.5t29.5 -251.5q-20 -134 -104 -248t-209 -181t-261 -67q-103 0 -190.5 40t-145.5 108t-84.5 162.5t-11.5 199.5zM295 1073q-23 -164 73 -279.5t259 -115.5q162 0 294.5 116.5t155.5 276.5q24 159 -71.5 276 t-264.5 117q-166 0 -294.5 -113.5t-151.5 -277.5zM471 829l74 494h203q79 0 119.5 -49t31.5 -119q-6 -50 -37 -87t-78 -56l78 -183h-117l-67 166h-78l-25 -166h-104zM612 1079h78q45 0 73 21.5t32 60.5q3 33 -16.5 54.5t-61.5 21.5h-80z" />
<glyph unicode="&#xb4;" horiz-adv-x="890" d="M211 1270l176 348h270l-243 -348h-203z" />
<glyph unicode="&#xb8;" horiz-adv-x="663" d="M-49 -463l63 139q80 -43 166 -43q56 0 91 25.5t40 62.5q5 32 -17.5 52t-78.5 20h-115l-10 47l111 201l170 -4l-76 -135h4q89 0 147.5 -55t45.5 -148q-13 -91 -97 -157t-217 -66q-114 0 -227 61z" />
<glyph unicode="&#xbb;" horiz-adv-x="1101" d="M51 180l348 416l-227 416h236l217 -416l-349 -416h-225zM455 180l352 416l-229 416h233l221 -416l-352 -416h-225z" />
<glyph unicode="&#x2c6;" horiz-adv-x="1165" d="M203 1274l344 344h164l241 -344h-229l-113 182l-172 -182h-235z" />
<glyph unicode="&#x2da;" horiz-adv-x="778" d="M236 1466q14 100 96 170t186 70q106 0 168 -70.5t47 -173.5q-13 -98 -96 -166.5t-186 -68.5q-106 0 -168 69t-47 170zM375 1466q-7 -45 20 -76.5t70 -31.5q47 0 84.5 31.5t44.5 80.5q6 44 -21 74.5t-69 30.5q-47 0 -85 -31.5t-44 -77.5z" />
<glyph unicode="&#x2dc;" horiz-adv-x="1116" d="M219 1391q102 202 281 202q54 0 104.5 -22.5t91 -45t70.5 -22.5q81 0 143 101l138 -80q-45 -99 -117 -151t-154 -52q-53 0 -102.5 23t-90.5 46t-73 23q-86 0 -150 -104z" />
<glyph unicode="&#x401;" d="M121 0l225 1513h967l-33 -223h-731l-64 -411h678l-33 -224h-677l-64 -432h733l-32 -223h-969zM477 1790q7 57 52 95t104 38t94.5 -41.5t26.5 -99.5q-7 -59 -52 -98t-102 -39q-63 0 -98 41t-25 104zM866 1790q7 57 52.5 95t105.5 38q59 0 94.5 -41.5t26.5 -99.5 q-9 -59 -54 -98t-100 -39q-63 0 -98.5 41t-26.5 104z" />
<glyph unicode="&#x410;" horiz-adv-x="1394" d="M-43 0l825 1513h154l373 -1513h-254l-86 373h-557l-197 -373h-258zM518 590h408l-119 549z" />
<glyph unicode="&#x411;" horiz-adv-x="1339" d="M121 0l225 1513h950l-32 -215h-717l-53 -350h286q84 0 154.5 -13.5t121 -37.5t90.5 -56t65 -70.5t41 -78t22 -81.5t6 -79t-6 -73q-14 -94 -59 -175t-117.5 -145.5t-181.5 -101.5t-240 -37h-555zM385 215h268q167 0 264 74t113 190q8 50 -1.5 93t-39 79.5t-89 58 t-144.5 21.5h-293z" />
<glyph unicode="&#x412;" horiz-adv-x="1388" d="M121 0l225 1513h598q88 0 159 -22.5t115.5 -59.5t72 -86.5t36 -103t0.5 -108.5q-14 -104 -81 -187t-171 -119q129 -36 189 -144t39 -249q-13 -89 -53 -166t-105.5 -137.5t-164.5 -95.5t-220 -35h-639zM385 215h330q84 0 149 20.5t105 55.5t62.5 76.5t29.5 89.5 q13 100 -46.5 170.5t-191.5 70.5h-366zM487 907h334q113 0 182.5 62.5t81.5 144.5q10 76 -38.5 130t-147.5 54h-352z" />
<glyph unicode="&#x413;" horiz-adv-x="1120" d="M121 0l225 1513h909l-32 -217h-676l-193 -1296h-233z" />
<glyph unicode="&#x414;" horiz-adv-x="1583" d="M-49 -307l78 524h166l673 1296h172l285 -1296h164l-78 -524h-231l47 307h-998l-47 -307h-231zM442 217h635l-176 932z" />
<glyph unicode="&#x415;" d="M121 0l225 1513h967l-33 -223h-731l-64 -411h678l-33 -224h-677l-64 -432h733l-32 -223h-969z" />
<glyph unicode="&#x416;" horiz-adv-x="2064" d="M-18 8l34 203q44 -16 105 -16q29 0 50.5 5t51.5 26t55 46.5t72 85.5t92.5 122t126.5 175q48 63 109 101q-35 29 -61.5 76.5t-38.5 87t-27.5 96.5t-24.5 82q-43 118 -87 167.5t-124 49.5q-25 0 -92 -15l25 203q70 33 147 33q137 0 210.5 -95t139.5 -329q7 -23 16.5 -56 t14.5 -49t13 -39t14.5 -34t17 -25t21.5 -20t27.5 -12.5t36.5 -8.5t46 -2h29l96 643h236l-96 -643h22q33 0 58 3.5t47 16t35.5 22.5t33 37t30 44.5t35.5 61.5t42 71q57 95 99 157t87.5 115.5t89 82t94.5 44t113 15.5q72 0 137 -33l-35 -198q-49 10 -100 10q-22 0 -40.5 -3 t-37 -12.5t-31 -16.5t-31 -26.5t-28.5 -30.5t-30.5 -41t-30 -44.5t-35.5 -53.5q-15 -22 -64 -105.5t-93 -142.5t-93 -98q38 -38 61 -98q50 -111 78 -171.5t58.5 -118.5t48 -82.5t40.5 -44.5t42 -24.5t47 -4.5q58 0 114 18l-26 -209q-69 -29 -152 -29q-46 0 -85 10.5t-67 22 t-57 45t-45 53t-41.5 73.5t-36 79.5t-39.5 97.5q-22 55 -34 84q-4 8 -19 42.5t-20 44t-18.5 35t-22.5 34t-24 22.5t-31.5 18.5t-36.5 4.5h-43l-97 -647h-235l96 647h-35q-17 0 -34 -5.5t-30.5 -11.5t-30.5 -21.5t-27 -25.5t-28.5 -33.5t-27 -34.5t-29 -40.5t-28.5 -40.5 q-20 -27 -57.5 -78.5t-54.5 -75t-49 -65t-49.5 -61t-47 -50t-50.5 -44.5t-50.5 -32.5t-56.5 -26.5t-60 -14t-68 -6q-85 0 -151 31z" />
<glyph unicode="&#x417;" horiz-adv-x="1234" d="M-2 131l108 191q212 -132 414 -132q152 0 255 68.5t120 177.5q18 102 -54.5 167t-224.5 65h-262l33 209h225q133 0 231 67.5t113 171.5q12 94 -54 150.5t-187 56.5q-193 0 -410 -133l-84 180q112 79 255 124.5t280 45.5q118 0 211 -34.5t146.5 -92t76.5 -130t10 -150.5 q-18 -108 -97.5 -195t-211.5 -133q135 -36 200.5 -142.5t45.5 -248.5q-30 -195 -199.5 -317t-427.5 -122q-281 0 -512 156z" />
<glyph unicode="&#x418;" horiz-adv-x="1597" d="M121 0l225 1513h234l-168 -1093l1007 1093h158l-225 -1513h-234l166 1094l-1008 -1094h-155z" />
<glyph unicode="&#x419;" horiz-adv-x="1597" d="M121 0l225 1513h234l-168 -1093l1007 1093h158l-225 -1513h-234l166 1094l-1008 -1094h-155zM608 1831l150 121q49 -91 106 -127.5t135 -36.5q87 0 170 40.5t185 133.5l94 -141q-240 -215 -477 -215q-251 0 -363 225z" />
<glyph unicode="&#x41a;" horiz-adv-x="1382" d="M121 0l225 1513h236l-115 -774l768 774h285l-689 -704l512 -809h-290l-400 643l-237 -237l-60 -406h-235z" />
<glyph unicode="&#x41b;" horiz-adv-x="1343" d="M-37 0l787 1513h172l331 -1513h-258l-211 1120l-563 -1120h-258z" />
<glyph unicode="&#x41c;" horiz-adv-x="1894" d="M121 0l225 1513h129l496 -927l768 927h135l-225 -1513h-238l145 969l-602 -721h-69l-387 721l-144 -969h-233z" />
<glyph unicode="&#x41d;" horiz-adv-x="1560" d="M121 0l225 1513h236l-93 -628h719l95 628h235l-225 -1513h-236l99 657h-721l-99 -657h-235z" />
<glyph unicode="&#x41e;" horiz-adv-x="1746" d="M137 766q23 163 105.5 307.5t202 246.5t273 161t314.5 59q224 0 391 -107.5t241.5 -288.5t41.5 -394q-33 -214 -162 -392t-322.5 -280.5t-408.5 -102.5q-163 0 -301 62.5t-227 169t-130 252.5t-18 307zM383 752q-23 -154 29 -279.5t162.5 -195.5t256.5 -70 q147 0 282 70.5t229.5 198.5t119.5 286q25 154 -25 279t-161.5 195.5t-261.5 70.5q-151 0 -287 -71t-228.5 -198.5t-115.5 -285.5z" />
<glyph unicode="&#x41f;" horiz-adv-x="1560" d="M121 0l225 1513h1192l-225 -1513h-236l193 1286h-721l-193 -1286h-235z" />
<glyph unicode="&#x420;" d="M121 0l225 1513h506q91 0 165 -19t124 -53t86.5 -79.5t53 -99.5t23 -113t-3.5 -119q-13 -99 -54.5 -181t-114 -148t-187 -103t-260.5 -37h-244l-84 -561h-235zM473 778h236q156 0 247 76t107 190q14 104 -42.5 176t-178.5 72h-293z" />
<glyph unicode="&#x421;" horiz-adv-x="1583" d="M135 766q22 174 103.5 321t200.5 245.5t268 153t309 54.5q212 0 370 -90.5t248 -241.5l-182 -143q-66 113 -178.5 180.5t-267.5 67.5q-157 0 -291 -68t-223 -194t-111 -287q-17 -121 10 -225.5t89.5 -176.5t157 -112.5t208.5 -40.5q148 0 283.5 66t242.5 184l150 -158 q-131 -146 -316.5 -235t-392.5 -89q-161 0 -296.5 57t-228 158t-134.5 250t-19 324z" />
<glyph unicode="&#x422;" horiz-adv-x="1181" d="M158 1284l32 229h1125l-33 -229h-444l-193 -1284h-237l192 1284h-442z" />
<glyph unicode="&#x423;" horiz-adv-x="1251" d="M43 16l45 197q64 -27 119 -27q30 0 60 10t53 22.5t51.5 40.5t45.5 46.5t46.5 60t42.5 61.5t45 69l-334 1017h270l226 -768l434 768h270q-73 -121 -214.5 -361t-249 -418.5t-205.5 -334.5q-49 -77 -85 -128.5t-90 -113t-104.5 -97.5t-117.5 -60.5t-140 -24.5 q-103 0 -168 41z" />
<glyph unicode="&#x424;" horiz-adv-x="1892" d="M135 780q22 156 97 287t187 222.5t258 146t310 63.5l27 178h237l-26 -180q210 -17 365 -122.5t226 -274t42 -367.5q-44 -305 -280.5 -501.5t-573.5 -215.5l-27 -180h-238l27 182q-158 13 -287 77t-211.5 164.5t-118.5 235.5t-14 285zM371 752q-31 -218 86.5 -359.5 t341.5 -156.5l155 1044q-231 -21 -391 -163t-192 -365zM1036 236q231 15 391.5 154t194.5 358q32 218 -87.5 365t-342.5 167z" />
<glyph unicode="&#x425;" horiz-adv-x="1312" d="M-49 0l612 766l-360 747h274l254 -567l436 567h283l-600 -747l377 -766h-275l-272 578l-447 -578h-282z" />
<glyph unicode="&#x426;" horiz-adv-x="1482" d="M121 0l225 1513h236l-193 -1286h588l190 1286h238l-193 -1286h152l-82 -534h-235l47 307h-973z" />
<glyph unicode="&#x427;" horiz-adv-x="1404" d="M186 983l78 530h238l-74 -501q-14 -78 -7.5 -135t23 -95t50.5 -60.5t76 -32t100 -9.5q171 0 360 65l115 768h237l-225 -1513h-237l77 516q-223 -67 -381 -67q-239 0 -354.5 132.5t-75.5 401.5z" />
<glyph unicode="&#x428;" horiz-adv-x="2234" d="M121 0l225 1513h236l-193 -1286h580l192 1286h236l-193 -1286h580l192 1286h236l-225 -1513h-1866z" />
<glyph unicode="&#x429;" horiz-adv-x="2289" d="M121 0l225 1513h236l-193 -1286h580l192 1286h236l-193 -1286h580l192 1286h236l-193 -1286h152l-80 -534h-236l48 307h-1782z" />
<glyph unicode="&#x42a;" horiz-adv-x="1538" d="M162 1298l31 215h595l-81 -548q152 57 311 57q109 0 202.5 -35.5t161 -100.5t98 -166t11.5 -224q-13 -80 -43.5 -152t-83.5 -135.5t-123 -109.5t-166.5 -72.5t-210.5 -26.5h-534l192 1298h-360zM596 219h244q179 0 281.5 80t123.5 217q21 136 -55 210.5t-215 74.5 q-145 0 -303 -66z" />
<glyph unicode="&#x42b;" horiz-adv-x="1890" d="M125 0l225 1513h234l-80 -534h299q88 0 161 -17.5t123.5 -48t90.5 -71.5t60.5 -87t34.5 -95t12.5 -96t-5.5 -89q-14 -97 -58.5 -181.5t-115.5 -151t-176 -104.5t-230 -38h-575zM389 217h256q175 0 274 75.5t119 199.5q8 52 -3 98.5t-41.5 86t-89 62.5t-138.5 23h-295z M1409 0l225 1513h236l-225 -1513h-236z" />
<glyph unicode="&#x42c;" horiz-adv-x="1329" d="M121 0l225 1513h234l-82 -548q152 57 311 57q109 0 202.5 -35.5t161 -100.5t98 -166t11.5 -224q-13 -80 -43.5 -152t-83.5 -135.5t-123 -109.5t-166.5 -72.5t-210.5 -26.5h-534zM387 219h244q179 0 281.5 80t123.5 217q21 136 -55 210.5t-215 74.5q-145 0 -303 -66z" />
<glyph unicode="&#x42d;" horiz-adv-x="1570" d="M45 307l176 139q74 -113 188.5 -177t256.5 -64q203 0 366.5 121.5t229.5 320.5h-818l33 219h817q-6 198 -132.5 321.5t-321.5 123.5q-145 0 -276.5 -68t-233.5 -184l-150 160q118 145 301 233t383 88q157 0 291 -59.5t225 -163.5t132 -254.5t16 -323.5 q-26 -176 -106.5 -320.5t-196 -240.5t-260 -148.5t-301.5 -52.5q-208 0 -368.5 91.5t-250.5 238.5z" />
<glyph unicode="&#x42e;" horiz-adv-x="2281" d="M121 0l225 1513h236l-97 -645h205q48 193 176 346.5t308 239.5t378 86q168 0 308.5 -63.5t229.5 -170t129.5 -252t18.5 -304.5q-28 -214 -154.5 -392t-318.5 -280.5t-407 -102.5q-148 0 -276 51.5t-218 140t-143 211.5t-57 263h-211l-97 -641h-235zM915 752 q-20 -155 34 -280t165.5 -195t257.5 -70q147 0 281.5 70.5t227 198.5t114.5 286q23 154 -29.5 279t-165 195.5t-262.5 70.5q-151 0 -286 -71t-225.5 -198.5t-111.5 -285.5z" />
<glyph unicode="&#x42f;" horiz-adv-x="1343" d="M4 0l453 582q-143 60 -208 190.5t-42 284.5q16 100 62.5 182t124.5 144t195.5 96t264.5 34h469l-225 -1513h-234l84 561q-115 -20 -256 -20l-403 -541h-285zM446 1028q-6 -48 4.5 -93t41 -86t93.5 -66t152 -25q126 0 244 24l76 510h-193q-376 0 -418 -264z" />
<glyph unicode="&#x430;" horiz-adv-x="1370" d="M95.5 430q-7.5 77 6.5 158q24 160 112.5 284t220.5 191t286 67q233 0 364 -186l25 160h217l-166 -1104h-215l23 158q-173 -185 -402 -185q-84 0 -156.5 23t-126.5 64.5t-96 98.5t-63.5 125.5t-29 145.5zM336 590q-21 -103 4.5 -196t100.5 -153.5t186 -60.5 q156 0 268.5 109t134.5 266q24 150 -59.5 259.5t-237.5 109.5q-147 0 -256 -95.5t-141 -238.5z" />
<glyph unicode="&#x431;" horiz-adv-x="1382" d="M129.5 563q-5.5 101 13.5 207q50 307 201.5 478t443.5 241q20 5 74 17t79.5 18.5t76.5 22.5t89.5 33t93.5 45.5t112 64.5l61 -213q-34 -27 -67.5 -47.5t-57 -33t-75 -27.5t-75.5 -21.5t-107.5 -26t-125.5 -29.5q-44 -11 -70.5 -17.5t-66 -19t-64 -24t-58 -31t-56 -41 t-49 -52t-46 -67t-39 -83.5t-34.5 -103q78 111 203.5 170t253.5 59q101 0 193 -39t161.5 -108.5t103 -176.5t15.5 -233q-32 -238 -208.5 -396.5t-436.5 -158.5q-102 0 -188.5 29.5t-148.5 83t-108 127.5t-67 162.5t-26.5 189.5zM393 539q-10 -69 4.5 -133.5t49.5 -115 t95.5 -81.5t137.5 -31q153 0 267.5 105t133.5 254q19 143 -63 244.5t-230 101.5q-142 0 -256.5 -94t-138.5 -250z" />
<glyph unicode="&#x432;" horiz-adv-x="1288" d="M149.5 326.5q-24.5 123.5 0.5 283.5l53 367q22 150 80 267t141.5 191.5t187 113t222.5 38.5q116 0 204.5 -38.5t136 -101t65.5 -138t3 -154.5q-19 -102 -84.5 -184.5t-163.5 -118.5q122 -37 180 -148.5t35 -265.5q-32 -213 -187 -339t-411 -126q-118 0 -212.5 38.5 t-160 115t-90 200zM368 454q2 -66 24 -113.5t48.5 -78.5t64 -49t71 -25.5t69.5 -7.5q74 0 135 23.5t101.5 64t65.5 89t34 102.5q7 47 -1.5 91t-34 83t-79 62.5t-129.5 23.5h-344l-16 -111q-11 -88 -9 -154zM422 920h309q69 0 122.5 21t85 57t49 74t24.5 81 q16 100 -35.5 162.5t-169.5 62.5q-141 0 -246 -108.5t-137 -335.5z" />
<glyph unicode="&#x433;" horiz-adv-x="1024" d="M51 295q11 76 53 136.5t100.5 98.5t127.5 68.5t137 54.5t125 47.5t95 56t44 72.5q7 43 -33.5 74t-124.5 31q-150 0 -335 -64l-41 185q85 33 196 54t207 21q118 0 208 -32.5t139.5 -102.5t35.5 -168q-10 -73 -51.5 -129.5t-99.5 -91t-127 -62t-136.5 -51t-124.5 -48.5 t-95 -63.5t-44 -88.5q-7 -58 40.5 -89.5t131.5 -31.5q186 0 393 92l41 -184q-239 -107 -477 -107q-192 0 -299.5 88.5t-85.5 233.5z" />
<glyph unicode="&#x434;" horiz-adv-x="1370" d="M74 -369l69 187q76 -37 177 -62.5t200 -25.5q190 0 300 94t132 264l11 72q-159 -162 -381 -162q-164 0 -281 76.5t-167 208.5t-28 295q35 247 214 399.5t413 152.5t354 -182l23 156h217l-149 -998q-43 -290 -218 -433.5t-446 -143.5q-119 0 -235.5 28t-204.5 74zM332 553 q-20 -153 59 -253.5t227 -100.5q153 0 270.5 106.5t143.5 267.5q23 152 -59.5 252.5t-229.5 100.5q-157 0 -272.5 -101.5t-138.5 -271.5z" />
<glyph unicode="&#x435;" horiz-adv-x="1261" d="M95.5 445q-0.5 62 6.5 126q37 250 213 404.5t426 154.5q240 0 371 -153t92 -414q-10 -63 -20 -98h-865q5 -128 81.5 -208.5t232.5 -80.5q97 0 206 34t189 89l80 -172q-92 -65 -224.5 -108.5t-269.5 -43.5q-87 0 -161.5 17.5t-129 49t-98.5 75t-70 96t-42.5 111.5t-17 121 zM348 649h643q9 132 -64 209.5t-198 77.5q-130 0 -233.5 -78t-147.5 -209z" />
<glyph unicode="&#x436;" horiz-adv-x="1744" d="M-16 8l36 176q34 -14 80 -14q54 0 98 39.5t188 211.5q11 13 17.5 21t17 20t19.5 23q38 43 76 68q-11 8 -20.5 17t-17.5 21t-14.5 20.5t-13.5 24.5t-10.5 23.5t-10.5 27.5t-9.5 27t-9.5 30.5t-9 29.5q-13 42 -21.5 64t-25 48t-40 37t-56.5 11q-50 0 -108 -12l20 176 q60 24 131 24q125 0 186 -60t105 -210q4 -15 12 -43.5t11.5 -39.5t10.5 -31.5t12.5 -28.5t15 -21.5t19.5 -18t25 -10.5t33 -8t41 -2h27l67 455h215l-69 -455h14q36 0 65 8.5t46.5 17.5t39 35.5t31 40.5t33.5 57t35 62q79 138 157 195t187 57q78 0 139 -28l-30 -168 q-35 8 -68 8q-31 0 -57.5 -10t-45 -22.5t-40.5 -40t-34 -47l-36 -58.5q-33 -57 -51.5 -85.5t-55.5 -67t-79 -60.5q33 -30 53 -76q7 -14 21 -40q90 -169 121 -207q37 -47 86 -50h11q66 0 115 12l-24 -178q-65 -22 -134 -22q-42 0 -76.5 7.5t-60 17.5t-49.5 31.5t-39 39 t-34.5 52t-30 57l-31.5 67.5q-3 7 -5 11.5t-5 11t-6 12.5q-40 85 -71.5 121t-82.5 36h-39l-68 -450h-213l68 450h-29q-18 0 -33 -3t-32.5 -15.5t-28.5 -21t-34.5 -35.5t-35.5 -42t-45 -57q-12 -15 -39.5 -52t-40.5 -53.5t-40 -47.5t-45.5 -46t-48 -36t-57 -30.5t-63.5 -17 t-75 -7.5q-67 0 -137 26z" />
<glyph unicode="&#x437;" horiz-adv-x="1124" d="M-86 -303l109 174q177 -133 362 -133q152 0 252 72t119 192q17 109 -59.5 177.5t-200.5 68.5h-242l29 203h166q159 0 256.5 68.5t115.5 178.5q15 103 -51 165.5t-182 62.5q-181 0 -381 -138l-90 164q98 77 237.5 127.5t272.5 50.5q138 0 242.5 -58t152.5 -154.5 t31 -208.5q-37 -224 -301 -336q128 -37 190 -147.5t43 -248.5q-28 -192 -191.5 -318t-404.5 -126q-271 0 -475 164z" />
<glyph unicode="&#x438;" horiz-adv-x="1308" d="M132.5 313q-3.5 75 8.5 170l95 621h225l-92 -615q-46 -305 192 -305q140 0 252 92t135 242l90 586h226l-164 -1104h-217l22 156q-73 -81 -179.5 -131t-231.5 -50q-57 0 -106.5 11t-95 36t-78.5 64.5t-55.5 95.5t-26 131z" />
<glyph unicode="&#x439;" horiz-adv-x="1308" d="M132.5 313q-3.5 75 8.5 170l95 621h225l-92 -615q-46 -305 192 -305q140 0 252 92t135 242l90 586h226l-164 -1104h-217l22 156q-73 -81 -179.5 -131t-231.5 -50q-57 0 -106.5 11t-95 36t-78.5 64.5t-55.5 95.5t-26 131zM434 1360l133 108q44 -81 95.5 -114t121.5 -33 q78 0 153 37t167 121l86 -127q-219 -195 -430 -195q-224 0 -326 203z" />
<glyph unicode="&#x43a;" horiz-adv-x="1140" d="M82 0l231 1552h226l-131 -872l528 424h299l-578 -461l433 -643h-289l-324 502l-108 -88l-62 -414h-225z" />
<glyph unicode="&#x43b;" horiz-adv-x="1187" d="M-43 0l655 1104h174l318 -1104h-248l-203 788l-446 -788h-250z" />
<glyph unicode="&#x43c;" horiz-adv-x="1585" d="M82 0l166 1104h139l406 -655l600 655h147l-164 -1104h-223l102 670l-464 -504h-72l-316 504l-100 -670h-221z" />
<glyph unicode="&#x43d;" horiz-adv-x="1263" d="M82 0l166 1104h225l-67 -447h522l65 447h226l-164 -1104h-226l68 457h-520l-70 -457h-225z" />
<glyph unicode="&#x43e;" horiz-adv-x="1327" d="M98 567q38 247 225 406.5t433 159.5q168 0 290 -80.5t174 -217t27 -300.5q-39 -241 -223 -402.5t-428 -161.5q-129 0 -232.5 48.5t-166.5 130.5t-90 190.5t-9 226.5zM324 555q-22 -156 59 -264.5t227 -108.5q150 0 270.5 109t143.5 264q22 153 -61 261t-230 108 q-148 0 -267 -106.5t-142 -262.5z" />
<glyph unicode="&#x43f;" horiz-adv-x="1282" d="M82 0l166 1104h219l-23 -156q60 87 158.5 136t214.5 49q86 0 158.5 -28.5t126.5 -85.5t76 -153.5t4 -220.5l-95 -645h-227l90 612q24 152 -34 232t-177 80q-133 0 -228 -96.5t-118 -256.5l-86 -571h-225z" />
<glyph unicode="&#x440;" horiz-adv-x="1378" d="M14 -455l234 1559h223l-18 -139q162 165 376 165q153 0 271 -77.5t174.5 -212t36.5 -295.5q-20 -162 -100 -291.5t-212 -205t-292 -75.5q-241 0 -377 207l-90 -635h-226zM385 557q-22 -156 63 -264.5t238 -108.5q159 0 266.5 105.5t126.5 263.5q14 99 -17 182.5 t-105.5 135t-178.5 51.5q-158 0 -266.5 -105.5t-126.5 -259.5z" />
<glyph unicode="&#x441;" horiz-adv-x="1228" d="M106 565q22 173 114 303t227.5 196t295.5 66q169 0 296 -76.5t186 -222.5l-193 -98q-39 88 -113 139.5t-178 51.5q-155 0 -272.5 -105.5t-138.5 -271.5q-19 -154 65 -259.5t230 -105.5q103 0 201 52t159 141l166 -123q-87 -131 -232.5 -204t-312.5 -73q-170 0 -293 78 t-176 212.5t-31 299.5z" />
<glyph unicode="&#x442;" horiz-adv-x="2013" d="M82 0l166 1104h219l-23 -158q58 86 155 136.5t204 52.5q110 -2 196 -54t117 -147q69 94 180 147.5t236 53.5q203 0 309.5 -132.5t73.5 -353.5l-96 -649h-226l93 625q21 146 -33.5 222.5t-167.5 76.5q-124 0 -216.5 -87t-113.5 -235l-90 -602h-225l92 621 q20 144 -33.5 223.5t-169.5 79.5q-124 0 -216.5 -88t-117.5 -252l-88 -584h-225z" />
<glyph unicode="&#x443;" horiz-adv-x="1165" d="M-55 -414l61 187q68 -35 131 -35q72 0 132 44.5t120 147.5l51 84l-317 1090h260l205 -795l401 795h250l-631 -1198q-106 -200 -217.5 -287.5t-245.5 -87.5q-120 0 -200 55z" />
<glyph unicode="&#x444;" horiz-adv-x="1699" d="M100 590q21 132 87 235t166.5 169t226.5 101t272 38l63 419h207l-63 -419q189 -7 328 -79.5t207 -206.5t42 -310q-24 -173 -126 -299.5t-262 -192.5t-361 -70l-66 -436h-209l66 436q-204 7 -345 87.5t-200 217t-33 310.5zM313 555q-25 -180 82.5 -283.5t311.5 -103.5 l116 768q-212 -5 -348.5 -100t-161.5 -281zM915 168q205 3 344 106.5t168 288.5q24 170 -80.5 271t-316.5 102z" />
<glyph unicode="&#x445;" horiz-adv-x="1071" d="M-49 0l465 569l-260 535h260l170 -373l291 373h262l-445 -547l289 -557h-262l-191 397l-311 -397h-268z" />
<glyph unicode="&#x446;" horiz-adv-x="1415" d="M130 268q-13 81 5 189l101 647h225l-96 -639q-42 -283 198 -283q150 0 258 98.5t135 278.5l82 545h226l-123 -815q-5 -36 3.5 -62t27 -41.5t49 -24.5t63.5 -12t76 -2l-78 -516h-199l52 353q-99 0 -159.5 59.5t-51.5 142.5q-54 -89 -177 -151t-262 -62q-66 0 -123 16 t-107.5 51t-81 91t-43.5 137z" />
<glyph unicode="&#x447;" horiz-adv-x="1165" d="M127 756l55 348h226l-52 -340q-37 -236 195 -236q149 0 262 37l82 539h225l-164 -1104h-227l53 356q-136 -34 -270 -34q-102 0 -179 23.5t-130.5 74t-73.5 135.5t-2 201z" />
<glyph unicode="&#x448;" horiz-adv-x="1984" d="M133 274.5q-14 83.5 4 194.5l99 635h225l-96 -633q-21 -142 31 -215.5t161 -73.5q131 0 219.5 93.5t114.5 271.5l84 557h225l-96 -643q-20 -130 33 -204.5t159 -74.5q127 0 217.5 96t114.5 248l86 578h228l-166 -1104h-213l22 156q-54 -80 -161.5 -131.5t-219.5 -51.5 q-104 0 -187 49t-112 146q-69 -99 -181 -147t-228 -48q-66 0 -123.5 16t-110 51.5t-84 93t-45.5 141z" />
<glyph unicode="&#x449;" horiz-adv-x="2095" d="M133 274.5q-14 83.5 4 194.5l99 635h225l-96 -633q-21 -142 31 -215.5t161 -73.5q131 0 219.5 93.5t114.5 271.5l84 557h225l-96 -643q-20 -130 33 -204.5t159 -74.5q127 0 217.5 96t114.5 248l86 578h228l-125 -815q-7 -46 3 -75.5t39 -43.5t62.5 -18.5t87.5 -4.5 l-78 -516h-200l53 353q-98 0 -145.5 57.5t-34.5 138.5q-65 -96 -175 -151.5t-225 -55.5q-104 0 -187 49t-112 146q-69 -99 -181 -147t-228 -48q-66 0 -123.5 16t-110 51.5t-84 93t-45.5 141z" />
<glyph unicode="&#x44a;" horiz-adv-x="1325" d="M92 903l33 201h498l-43 -291q143 78 292 78q136 0 231 -66.5t133 -173t19 -231.5q-14 -90 -53.5 -168.5t-104 -142t-162 -100t-216.5 -36.5q-82 0 -148.5 18.5t-111 49t-77.5 73t-50.5 89t-25.5 98.5t-7 99.5t8 93.5l62 409h-277zM522.5 418q-0.5 -29 3.5 -65t18.5 -66.5 t37.5 -56.5t63.5 -41t93.5 -15q122 0 200.5 74t92.5 184q6 49 -2.5 93.5t-32.5 82t-73 60t-117 22.5q-133 0 -258 -76l-21 -139q-5 -28 -5.5 -57z" />
<glyph unicode="&#x44b;" horiz-adv-x="1574" d="M82 0l166 1104h221l-55 -361h241q80 0 146.5 -16.5t110 -44.5t76.5 -66t47 -81t20.5 -88.5t-2.5 -88.5q-21 -157 -147.5 -257.5t-340.5 -100.5h-483zM330 190h211q142 0 209.5 54t78.5 135q10 72 -35.5 123t-158.5 51h-250zM1143 0l166 1104h223l-166 -1104h-223z" />
<glyph unicode="&#x44c;" horiz-adv-x="1157" d="M131.5 400q0.5 47 7.5 94l92 610h226l-45 -291q146 78 295 78q136 0 231 -66.5t133 -173t19 -231.5q-14 -90 -53.5 -168.5t-104.5 -142t-162.5 -100t-216.5 -36.5q-82 0 -148.5 18.5t-111.5 49t-77.5 73t-50.5 89t-26 98.5t-7.5 99zM355.5 417.5q-0.5 -28.5 4 -64.5 t19 -66.5t37.5 -56.5t63.5 -41t93.5 -15q121 0 199 73.5t94 184.5q6 49 -2 93t-32.5 82t-74 60.5t-118.5 22.5q-133 0 -258 -76l-21 -139q-4 -29 -4.5 -57.5z" />
<glyph unicode="&#x44d;" horiz-adv-x="1234" d="M47 254l170 119q47 -87 134.5 -140t197.5 -53q129 0 235 76.5t148 204.5h-457l29 184h448q-11 125 -95 203t-210 78q-105 0 -202 -53.5t-166 -141.5l-160 113q91 139 236.5 212.5t308.5 73.5q170 0 295 -80t181 -219.5t31 -310.5q-35 -245 -210.5 -395t-423.5 -150 q-173 0 -299 74t-191 205z" />
<glyph unicode="&#x44e;" horiz-adv-x="1753" d="M82 0l231 1552h226l-138 -911h152q58 219 236 355.5t403 136.5q169 0 292 -80.5t175.5 -217t26.5 -300.5q-40 -241 -224 -402.5t-428 -161.5q-225 0 -361.5 138t-142.5 344h-157l-68 -453h-223zM762 555q-22 -156 59 -264.5t226 -108.5q151 0 270.5 109t144.5 264 q22 153 -61 261t-230 108q-148 0 -267 -106.5t-142 -262.5z" />
<glyph unicode="&#x44f;" horiz-adv-x="1150" d="M-6 0l356 420q-116 47 -164 142.5t-32 205.5q21 155 153.5 245.5t386.5 90.5h414l-166 -1104h-221l59 399q-104 -14 -219 -14l-311 -385h-256zM377 745q-10 -89 48 -131.5t171 -42.5q103 0 213 21l47 321h-176q-147 0 -219.5 -41.5t-83.5 -126.5z" />
<glyph unicode="&#x451;" horiz-adv-x="1261" d="M95.5 445q-0.5 62 6.5 126q37 250 213 404.5t426 154.5q240 0 371 -153t92 -414q-10 -63 -20 -98h-865q5 -128 81.5 -208.5t232.5 -80.5q97 0 206 34t189 89l80 -172q-92 -65 -224.5 -108.5t-269.5 -43.5q-87 0 -161.5 17.5t-129 49t-98.5 75t-70 96t-42.5 111.5t-17 121 zM348 649h643q9 132 -64 209.5t-198 77.5q-130 0 -233.5 -78t-147.5 -209zM436 1380q9 62 57 103t111 41t101.5 -44.5t29.5 -107.5q-9 -64 -57 -105.5t-109 -41.5q-68 0 -105.5 44t-27.5 111zM856 1380q7 61 56 102.5t112 41.5t101.5 -44.5t29.5 -107.5 q-10 -64 -58.5 -105.5t-107.5 -41.5q-68 0 -105.5 44t-27.5 111z" />
<glyph unicode="&#x2000;" horiz-adv-x="981" />
<glyph unicode="&#x2001;" horiz-adv-x="1962" />
<glyph unicode="&#x2002;" horiz-adv-x="981" />
<glyph unicode="&#x2003;" horiz-adv-x="1962" />
<glyph unicode="&#x2004;" horiz-adv-x="654" />
<glyph unicode="&#x2005;" horiz-adv-x="490" />
<glyph unicode="&#x2006;" horiz-adv-x="327" />
<glyph unicode="&#x2007;" horiz-adv-x="327" />
<glyph unicode="&#x2008;" horiz-adv-x="245" />
<glyph unicode="&#x2009;" horiz-adv-x="392" />
<glyph unicode="&#x200a;" horiz-adv-x="109" />
<glyph unicode="&#x2010;" horiz-adv-x="1069" d="M135 461l33 213h807l-33 -213h-807z" />
<glyph unicode="&#x2011;" horiz-adv-x="1069" d="M135 461l33 213h807l-33 -213h-807z" />
<glyph unicode="&#x2012;" horiz-adv-x="1069" d="M135 461l33 213h807l-33 -213h-807z" />
<glyph unicode="&#x2013;" horiz-adv-x="1468" d="M135 461l33 213h1206l-33 -213h-1206z" />
<glyph unicode="&#x2014;" horiz-adv-x="2121" d="M135 461l33 213h1860l-33 -213h-1860z" />
<glyph unicode="&#x2018;" horiz-adv-x="493" d="M201 1253q27 172 315 344l68 -106q-6 -4 -28 -19t-29.5 -20t-26 -18t-26.5 -19.5t-23 -18t-23.5 -19.5t-18.5 -18t-18 -20q52 -8 82 -49t21 -96q-7 -52 -51.5 -88.5t-100.5 -36.5q-69 0 -111 54t-30 130z" />
<glyph unicode="&#x2019;" horiz-adv-x="489" d="M190 1165q9 6 36.5 25t38 26.5t32.5 23.5t33.5 26.5t26 24t24.5 26.5q-52 8 -82 49t-23 96q7 52 51.5 88.5t100.5 36.5q71 0 111.5 -54.5t29.5 -131.5q-24 -173 -313 -342z" />
<glyph unicode="&#x201a;" horiz-adv-x="489" d="M-10 -174q10 7 36.5 25.5t38 26t32 23t32.5 26t26.5 24t24.5 26.5q-51 8 -81 49.5t-23 96.5q7 52 51 88.5t100 36.5q71 0 112 -55t30 -132q-24 -172 -314 -342z" />
<glyph unicode="&#x201c;" horiz-adv-x="987" d="M201 1253q27 172 315 344l68 -106q-6 -4 -28 -19t-29.5 -20t-26 -18t-26.5 -19.5t-23 -18t-23.5 -19.5t-18.5 -18t-18 -20q52 -8 82 -49t21 -96q-7 -52 -51.5 -88.5t-100.5 -36.5q-69 0 -111 54t-30 130zM694 1253q26 172 316 344l67 -106q-5 -4 -22.5 -15.5t-23.5 -15.5 t-21.5 -15t-22 -15.5t-19.5 -14t-19.5 -15.5t-17.5 -14.5t-17.5 -15.5t-14.5 -15t-14 -16q52 -8 81.5 -49t20.5 -96q-7 -52 -51 -88.5t-100 -36.5q-69 0 -111.5 54t-30.5 130z" />
<glyph unicode="&#x201d;" horiz-adv-x="950" d="M190 1171q6 4 28 19t29.5 20t26 18t26.5 19.5t23 18t23.5 19.5t18.5 18t18 20q-52 8 -81.5 49t-20.5 96q7 52 51 88.5t100 36.5q69 0 111 -54t30 -130q-27 -172 -315 -344zM647 1171q6 4 28 19t29.5 20t26 18t26.5 19.5t23 18t23.5 19.5t18.5 18t18 20q-52 8 -82 49 t-21 96q7 52 51.5 88.5t100.5 36.5q69 0 111 -54t30 -130q-27 -172 -315 -344z" />
<glyph unicode="&#x201e;" horiz-adv-x="948" d="M-12 -178q6 4 32 21.5t33.5 23t28.5 20t30 22l24 20t25 23t19 21.5q-52 8 -81.5 49.5t-20.5 96.5q7 52 51 88.5t100 36.5q69 0 111.5 -54.5t30.5 -130.5q-26 -172 -316 -344zM444 -178q7 5 37.5 25.5t39 26.5t32 22.5t34 26t25.5 23.5t25 27q-52 8 -81.5 49.5t-20.5 96.5 q7 52 51 88.5t100 36.5q69 0 111 -54.5t30 -130.5q-27 -172 -315 -344z" />
<glyph unicode="&#x2022;" horiz-adv-x="884" d="M186 705q17 122 113 206t219 84q127 0 203 -90t57 -219q-17 -119 -114 -201t-220 -82q-126 0 -200.5 87.5t-57.5 214.5z" />
<glyph unicode="&#x2026;" horiz-adv-x="1460" d="M51 123q9 61 53.5 99t106.5 38q64 0 100 -43.5t25 -105.5q-10 -60 -55.5 -98t-104.5 -38q-62 0 -98 42.5t-27 105.5zM539 123q9 61 53 99t106 38q64 0 100 -43.5t25 -105.5q-10 -60 -55 -98t-104 -38q-62 0 -98 42.5t-27 105.5zM1026 123q9 61 53.5 99t106.5 38 q64 0 100 -43.5t25 -105.5q-10 -60 -55.5 -98t-104.5 -38q-62 0 -98 42.5t-27 105.5z" />
<glyph unicode="&#x202f;" horiz-adv-x="392" />
<glyph unicode="&#x2039;" horiz-adv-x="696" d="M102 596l347 416h233l-354 -416l227 -416h-225z" />
<glyph unicode="&#x203a;" horiz-adv-x="694" d="M47 180l352 416l-229 416h233l222 -416l-353 -416h-225z" />
<glyph unicode="&#x205f;" horiz-adv-x="490" />
<glyph unicode="&#x20ac;" horiz-adv-x="1511" d="M74 516l100 174h119q4 48 8 76q1 9 4 26.5t4 26.5h-147l98 174h102q98 244 306 395.5t469 151.5q121 0 236.5 -37.5t205.5 -107.5l-125 -178q-136 104 -319 104q-163 0 -297.5 -90.5t-216.5 -237.5h753l-104 -174h-717q-6 -23 -14 -76q-4 -36 -4 -53h673l-94 -174h-565 q37 -151 149 -237t273 -86q191 0 405 110l-24 -229q-91 -46 -200 -71.5t-212 -25.5q-253 0 -425.5 149t-211.5 390h-229z" />
<glyph unicode="&#x2122;" horiz-adv-x="1671" d="M211 1382l20 131h555l-20 -131h-201l-86 -585h-151l86 585h-203zM756 797l106 716h78l262 -421l393 421h78l-106 -716h-146l62 407l-281 -301h-51l-188 301l-62 -407h-145z" />
<glyph unicode="&#x25fc;" horiz-adv-x="1105" d="M0 0v1106h1106v-1106h-1106z" />
</font>
</defs>
</svg>
