<?xml version="1.0" encoding="UTF-8" standalone="no"?>
<!-- Created with Inkscape (http://www.inkscape.org/) -->

<svg
   xmlns:dc="http://purl.org/dc/elements/1.1/"
   xmlns:cc="http://creativecommons.org/ns#"
   xmlns:rdf="http://www.w3.org/1999/02/22-rdf-syntax-ns#"
   xmlns:svg="http://www.w3.org/2000/svg"
   xmlns="http://www.w3.org/2000/svg"
   xmlns:sodipodi="http://sodipodi.sourceforge.net/DTD/sodipodi-0.dtd"
   xmlns:inkscape="http://www.inkscape.org/namespaces/inkscape"
   version="1.1"
   id="svg2"
   width="500"
   height="500"
   viewBox="0 0 500 500"
   sodipodi:docname="icons8-facebook.svg"
   inkscape:version="0.92.1 r15371">
  <metadata
     id="metadata8">
    <rdf:RDF>
      <cc:Work
         rdf:about="">
        <dc:format>image/svg+xml</dc:format>
        <dc:type
           rdf:resource="http://purl.org/dc/dcmitype/StillImage" />
        <dc:title></dc:title>
      </cc:Work>
    </rdf:RDF>
  </metadata>
  <defs
     id="defs6" />
  <sodipodi:namedview
     pagecolor="#ffffff"
     bordercolor="#666666"
     borderopacity="1"
     objecttolerance="10"
     gridtolerance="10"
     guidetolerance="10"
     inkscape:pageopacity="0"
     inkscape:pageshadow="2"
     inkscape:window-width="1920"
     inkscape:window-height="1017"
     id="namedview4"
     showgrid="false"
     inkscape:zoom="0.472"
     inkscape:cx="250"
     inkscape:cy="250"
     inkscape:window-x="-8"
     inkscape:window-y="-8"
     inkscape:window-maximized="1"
     inkscape:current-layer="svg2" />
  <path
     style="fill:#020202"
     d="M 73.976908,453.72418 C 57.685267,448.16921 45.717901,435.53231 41.532909,419.46504 40.185564,414.29223 40,393.53575 40,248 40,66.845439 39.67869,76.99734 45.773799,65.574864 49.248153,59.063787 59.063787,49.248153 65.574864,45.773799 76.99734,39.67869 66.845439,40 248,40 c 181.08118,0 171.14141,-0.313471 182.27932,5.748539 11.08916,6.035479 19.99754,16.932766 23.73544,29.034666 C 455.96145,81.08587 456,84.44906 456,248 c 0,162.95008 -0.0452,166.93562 -1.96413,173.14466 -4.83625,15.64871 -17.22047,28.05218 -32.81908,32.8701 -6.30436,1.94722 -9.6286,1.98475 -173.57213,1.95942 L 80.5,455.94837 Z M 248,367.52673 V 298.05347 L 233.25,297.77673 218.5,297.5 218.23704,262.75 217.97408,228 H 232.98704 248 l 0.006,-13.75 c 0.0104,-24.23477 4.4702,-43.12715 13.32286,-56.43749 9.00008,-13.53199 24.61992,-23.94279 40.87908,-27.2464 18.20437,-3.69884 44.1541,-0.48471 66.04216,8.17998 l 8.75,3.46381 v 27.75185 27.75186 l -20.25,0.57769 c -22.52861,0.64269 -27.3538,1.53642 -28.79762,5.33395 C 327.42857,205.00297 327,211.0509 327,217.0651 V 228 h 26.07946 26.07945 l -0.64808,2.95067 c -0.35644,1.62287 -3.45529,17.26037 -6.88634,34.75 l -6.23827,31.79933 -19.19995,0.27162 -19.19995,0.27161 0.25684,69.22839 L 327.5,436.5 h 42 c 48.96456,0 49.1606,-0.0302 58.06522,-8.93478 C 437.34299,417.78744 436.5,434.72935 436.5,248 436.5,61.307039 437.33887,78.208439 427.58874,68.458305 418.35558,59.225141 434.80757,60 248,60 61.231953,60 77.640322,59.229244 68.434783,68.434783 59.229244,77.640322 60,61.231953 60,248 c 0,183.7167 -0.557824,169.67652 7.086365,178.36078 4.451822,5.05753 10.636197,8.42285 17.645138,9.60185 2.622673,0.44117 40.430997,0.85506 84.018497,0.91975 L 248,437 Z M 307.75602,357.25 308.01204,278 h 20.49398 C 339.77771,278 349,277.83688 349,277.63752 c 0,-0.48748 4.83808,-24.54382 5.50803,-27.38752 L 355.0381,248 H 331.51905 308 v -23.91263 -23.91263 l 3.27724,-6.33737 c 2.67011,-5.16331 4.2642,-6.92827 8.60466,-9.52695 C 326.77686,180.18233 332.60282,179 346.04922,179 H 357 v -11.46482 c 0,-13.33956 0.73921,-12.39344 -12.18233,-15.59213 -10.52504,-2.60544 -31.09616,-3.66294 -39.03715,-2.00678 -17.44744,3.63882 -29.61193,16.19882 -35.41237,36.56373 -1.36944,4.80802 -1.7908,11.51291 -2.12096,33.75 l -0.412,27.75 H 252.91759 238 v 15 15 h 15 15 v 79.52114 79.52114 L 287.75,436.77114 307.5,436.5 Z"
     id="path4487"
     inkscape:connector-curvature="0" />
</svg>
