<?xml version="1.0" encoding="UTF-8" standalone="no"?>
<!-- Created with Inkscape (http://www.inkscape.org/) -->

<svg
   xmlns:dc="http://purl.org/dc/elements/1.1/"
   xmlns:cc="http://creativecommons.org/ns#"
   xmlns:rdf="http://www.w3.org/1999/02/22-rdf-syntax-ns#"
   xmlns:svg="http://www.w3.org/2000/svg"
   xmlns="http://www.w3.org/2000/svg"
   xmlns:sodipodi="http://sodipodi.sourceforge.net/DTD/sodipodi-0.dtd"
   xmlns:inkscape="http://www.inkscape.org/namespaces/inkscape"
   version="1.1"
   id="svg2"
   width="500"
   height="500"
   viewBox="0 0 500 500"
   sodipodi:docname="icons8-vk.svg"
   inkscape:version="0.92.1 r15371">
  <metadata
     id="metadata8">
    <rdf:RDF>
      <cc:Work
         rdf:about="">
        <dc:format>image/svg+xml</dc:format>
        <dc:type
           rdf:resource="http://purl.org/dc/dcmitype/StillImage" />
        <dc:title></dc:title>
      </cc:Work>
    </rdf:RDF>
  </metadata>
  <defs
     id="defs6" />
  <sodipodi:namedview
     pagecolor="#ffffff"
     bordercolor="#666666"
     borderopacity="1"
     objecttolerance="10"
     gridtolerance="10"
     guidetolerance="10"
     inkscape:pageopacity="0"
     inkscape:pageshadow="2"
     inkscape:window-width="1920"
     inkscape:window-height="1017"
     id="namedview4"
     showgrid="false"
     inkscape:zoom="0.944"
     inkscape:cx="207.4237"
     inkscape:cy="152.63565"
     inkscape:window-x="-8"
     inkscape:window-y="-8"
     inkscape:window-maximized="1"
     inkscape:current-layer="svg2" />
  <path
     style="fill:#030303"
     d="M 73.976908,453.72418 C 57.685267,448.16921 45.717901,435.53231 41.532909,419.46504 40.185564,414.29223 40,393.53575 40,248 40,66.845439 39.67869,76.99734 45.773799,65.574864 49.248153,59.063787 59.063787,49.248153 65.574864,45.773799 76.99734,39.67869 66.845439,40 248,40 c 181.08118,0 171.14141,-0.313471 182.27932,5.748539 11.08916,6.035479 19.99754,16.932766 23.73544,29.034666 C 455.96145,81.08587 456,84.44906 456,248 c 0,162.95008 -0.0452,166.93562 -1.96413,173.14466 -4.83625,15.64871 -17.22047,28.05218 -32.81908,32.8701 -6.30436,1.94722 -9.6286,1.98475 -173.57213,1.95942 L 80.5,455.94837 Z M 417.49151,434.57371 c 6.98841,-2.69693 14.66829,-10.60129 17.10572,-17.60572 C 436.43754,411.6795 436.5,406.13265 436.5,248 436.5,61.307039 437.33887,78.208439 427.58874,68.458305 418.35558,59.225141 434.80757,60 248,60 61.231953,60 77.640322,59.229244 68.434783,68.434783 59.229244,77.640322 60,61.231953 60,248 c 0,183.7167 -0.557824,169.67652 7.086365,178.36078 4.44603,5.05095 10.622751,8.41571 17.645138,9.61216 2.622673,0.44685 77.443497,0.74823 166.268497,0.66975 156.86272,-0.13859 161.64333,-0.198 166.49151,-2.06898 z m -94.59938,-99.92805 c -9.27461,-3.81522 -12.2523,-6.16959 -25.86952,-20.45427 -14.84343,-15.571 -15.20485,-15.65188 -16.48591,-3.68952 -0.80859,7.55057 -3.51398,12.21306 -8.55663,14.74658 -2.98432,1.49937 -6.48854,1.74866 -24.59908,1.75 -31.34308,0.002 -44.58417,-2.99674 -60.78613,-13.76779 C 168.34863,301.10059 143.62754,269.01845 119.1213,225.6659 108.71231,207.25196 99,187.18134 99,184.08494 c 0,-4.37889 4.13443,-11.24559 7.9844,-13.26095 3.11397,-1.63008 6.2501,-1.82299 29.5,-1.81461 l 26.0156,0.009 5.20446,2.98483 c 5.61354,3.21945 5.16081,2.56408 17.26755,24.9964 8.00842,14.83862 17.96865,30.73133 20.95179,33.43104 1.85684,1.68042 1.93294,1.56372 2.6327,-4.03693 1.01401,-8.11585 -0.0808,-28.63259 -1.70802,-32.0084 -0.9516,-1.97419 -2.82005,-3.31924 -6.34848,-4.57014 -6.52955,-2.31485 -8.5,-4.80604 -8.5,-10.74636 0,-3.96429 0.57138,-5.37675 3.61215,-8.9292 C 203.06369,161.43456 211.85099,159 235.82086,159 c 24.95469,0 35.29982,3.51203 40.30799,13.68402 2.34648,4.76586 2.36863,5.11256 2.12901,33.31598 l -0.24215,28.5 4.65705,-5 c 6.69929,-7.19263 14.13598,-18.98604 23.95659,-37.99133 7.33525,-14.19552 9.1855,-17.01978 12.65539,-19.3175 l 4.06407,-2.69117 29.53268,-0.30677 c 33.43296,-0.34728 35.91516,0.0515 40.88571,6.56821 2.30313,3.01955 2.72538,4.53848 2.68562,9.66072 -0.071,9.14755 -4.91353,17.71666 -26.83481,47.48567 -6.71997,9.1257 -13.69865,18.75719 -15.50818,21.40332 l -3.29005,4.81115 15.3845,15.18885 c 19.98271,19.72858 28.4859,31.18999 30.29529,40.83485 0.98416,5.24605 -1.05394,11.32494 -5.12142,15.27522 -6.1634,5.98582 -9.60042,6.58175 -37.80629,6.55504 -23.86741,-0.0226 -25.34126,-0.13455 -30.67973,-2.3306 z M 376,316.14913 C 376,313.83281 364.04284,299.97241 350.85348,287 c -16.37109,-16.1018 -18.7952,-19.84649 -18.83152,-29.09028 -0.0305,-7.76632 3.51614,-14.2808 17.06261,-31.34058 10.71298,-13.4914 26.57922,-36.25084 25.79884,-37.00732 -0.7407,-0.71803 -3.5598,-0.79777 -24.05125,-0.6803 L 330.16431,189 l -8.00129,15.42967 c -10.08125,19.44064 -17.68431,31.00761 -26.44089,40.22601 C 287.61067,253.19493 282.49982,256 275.0527,256 c -4.92398,0 -5.63043,-0.31458 -9.58304,-4.26719 -6.6663,-6.66629 -7.01949,-8.87171 -6.64664,-41.50333 l 0.32301,-28.27052 -3.79773,-1.58679 c -3.01965,-1.26169 -6.60686,-1.50965 -17.50891,-1.21025 -7.54116,0.2071 -13.97049,0.63585 -14.28742,0.95278 -0.31693,0.31692 0.34784,2.66524 1.47726,5.21847 3.94319,8.91424 4.95831,39.06127 1.82022,54.05703 C 224.61479,250.0688 218.62444,256 210.07401,256 c -12.2638,0 -23.55844,-13.85195 -47.40648,-58.14012 -2.55887,-4.75207 -5.36767,-8.91457 -6.24179,-9.25 -2.0577,-0.78962 -32.90368,-0.79861 -33.69246,-0.01 -1.21995,1.21995 19.69382,38.52629 33.00086,58.86751 22.26722,34.03777 38.73576,50.97648 55.09411,56.66703 6.44297,2.2413 22.41489,3.82519 38.81476,3.84914 12.20686,0.0178 12.3355,-0.0478 12.37895,-6.31552 0.0464,-6.69265 6.18072,-15.61089 13.33416,-19.38553 4.94244,-2.60796 12.40754,-2.19727 17.83079,0.98097 2.52665,1.48072 9.93073,8.39552 16.4535,15.36623 6.52278,6.97072 13.86019,13.95565 16.30537,15.52207 l 4.44578,2.84805 h 22.80422 C 365.7381,317 376,316.61711 376,316.14913 Z"
     id="path4487"
     inkscape:connector-curvature="0" />
</svg>
